<?xml version="1.0" encoding="UTF-8" standalone="no"?>
<!-- Created with Inkscape (http://www.inkscape.org/) -->

<svg
   xmlns:dc="http://purl.org/dc/elements/1.1/"
   xmlns:cc="http://creativecommons.org/ns#"
   xmlns:rdf="http://www.w3.org/1999/02/22-rdf-syntax-ns#"
   xmlns:svg="http://www.w3.org/2000/svg"
   xmlns="http://www.w3.org/2000/svg"
   xmlns:xlink="http://www.w3.org/1999/xlink"
   xmlns:sodipodi="http://sodipodi.sourceforge.net/DTD/sodipodi-0.dtd"
   xmlns:inkscape="http://www.inkscape.org/namespaces/inkscape"
   width="210mm"
   height="297mm"
   viewBox="0 0 210 297"
   version="1.1"
   id="svg56"
   inkscape:version="0.92.3 (2405546, 2018-03-11)"
   sodipodi:docname="drawing.svg">
  <defs
     id="defs50">
    <linearGradient
       inkscape:collect="always"
       id="d-2">
      <stop
         style="stop-color:#6f3299;stop-opacity:1;"
         offset="0"
         id="stop932" />
      <stop
         style="stop-color:#fe0090;stop-opacity:1"
         offset="1"
         id="stop934" />
    </linearGradient>
    <linearGradient
       inkscape:collect="always"
       xlink:href="#d-2"
       id="linearGradient875"
       x1="-14.661193"
       y1="128.76067"
       x2="243.24315"
       y2="128.76067"
       gradientUnits="userSpaceOnUse" />
  </defs>
  <sodipodi:namedview
     id="base"
     pagecolor="#ffffff"
     bordercolor="#666666"
     borderopacity="1.0"
     inkscape:pageopacity="0.0"
     inkscape:pageshadow="2"
     inkscape:zoom="0.35"
     inkscape:cx="-44.285714"
     inkscape:cy="710.47608"
     inkscape:document-units="mm"
     inkscape:current-layer="layer1"
     showgrid="false"
     inkscape:window-width="1321"
     inkscape:window-height="713"
     inkscape:window-x="45"
     inkscape:window-y="27"
     inkscape:window-maximized="1" />
  <metadata
     id="metadata53">
    <rdf:RDF>
      <cc:Work
         rdf:about="">
        <dc:format>image/svg+xml</dc:format>
        <dc:type
           rdf:resource="http://purl.org/dc/dcmitype/StillImage" />
        <dc:title />
      </cc:Work>
    </rdf:RDF>
  </metadata>
  <g
     inkscape:label="Layer 1"
     inkscape:groupmode="layer"
     id="layer1">
    <path
       sodipodi:type="star"
       style="opacity:0.478;fill:url(#linearGradient875);fill-opacity:1;stroke:#ffffff;stroke-width:1.41961014;stroke-linecap:round;stroke-linejoin:round;stroke-miterlimit:4;stroke-dasharray:none;stroke-dashoffset:0;stroke-opacity:0.94117647"
       id="path816"
       sodipodi:sides="3"
       sodipodi:cx="114.14833"
       sodipodi:cy="130.73036"
       sodipodi:r1="124.66111"
       sodipodi:r2="107.95969"
       sodipodi:arg1="-0.15218829"
       sodipodi:arg2="0.89500926"
       inkscape:flatsided="true"
       inkscape:rounded="0.65"
       inkscape:randomized="0"
       d="M 237.36857,111.83155 C 258.64547,250.55697 199.68325,297.82799 68.905061,246.89162 -61.873124,195.95526 -73.329919,121.25696 36.171362,33.46791 145.67264,-54.321137 216.09167,-26.893863 237.36857,111.83155 Z"
       inkscape:transform-center-x="-6.4354035e-06"
       transform="matrix(1.1179171,0,0,1.1179081,-20.427456,-6.320208)"
       inkscape:transform-center-y="3.5857906e-06" />
    <path
       style="fill:#000000;stroke-width:0.26458338"
       d="m 76.416995,269.04907 c -0.56195,-0.6209 -0.89548,-1.25519 -0.7412,-1.4095 0.1543,-0.15439 0.74032,0.22751 1.30225,0.84847 0.56195,0.62093 0.89549,1.25519 0.7412,1.4095 -0.15428,0.15438 -0.7403,-0.2275 -1.30225,-0.84847 z m 48.531435,-1.62449 c 0.46287,-0.25756 1.59904,-0.61822 2.52479,-0.80149 l 1.68318,-0.33314 -1.68318,0.7932 c -1.89364,0.89239 -4.03553,1.18206 -2.52479,0.34143 z m 11.22115,-0.86019 c 0,-0.4534 1.76312,-2.00373 2.27879,-2.00373 0.28354,0 0.0832,0.50495 -0.44528,1.1221 -0.87427,1.02108 -1.83351,1.48234 -1.83351,0.88163 z m -15.11579,-2.53573 c 0.78948,-0.23955 2.05186,-0.76706 2.8053,-1.17224 0.75343,-0.40522 2.75851,-0.78644 4.4557,-0.8472 1.6972,-0.0605 2.58086,0.005 1.9637,0.14358 -0.61716,0.13981 -2.72667,0.73863 -4.68783,1.33096 -1.96114,0.59233 -4.10718,1.05528 -4.76901,1.02877 -1.06131,-0.0425 -1.0339,-0.0996 0.23214,-0.48379 z m -12.37605,-5.7056 c 1.08002,-0.32212 3.47855,-1.048 5.33006,-1.61305 1.85148,-0.56506 3.44689,-0.94803 3.54531,-0.85104 0.367,0.36156 -5.88181,2.40807 -8.31432,2.72297 -2.44122,0.31607 -2.4598,0.30747 -0.56105,-0.25888 z m 26.6783,-2.66294 c 0.52181,-0.47459 5.35734,-1.80182 6.25174,-1.71593 0.65328,0.0628 -5.00071,2.10534 -5.9712,2.15722 -0.49299,0.0263 -0.60356,-0.14753 -0.28054,-0.44129 z m -21.27782,-2.61073 c -0.45752,-0.45753 -1.11029,-0.83183 -1.45063,-0.83183 -0.3403,0 -0.75435,-0.3534 -0.92008,-0.78533 -0.20795,-0.5419 -1.22616,-0.77697 -3.28564,-0.75845 -2.13254,0.019 -3.44269,-0.29882 -4.5903,-1.11419 -3.48674,-2.47732 -9.909405,-3.95516 -11.884365,-2.73456 -0.94624,0.5848 -6.83385,0.99876 -6.83385,0.48047 0,-0.26074 0.31349,-0.78752 0.69664,-1.17068 0.9963,-0.99632 -0.32213,-1.69514 -2.76902,-1.46773 -1.54814,0.14393 -1.80647,0.0329 -1.31116,-0.56406 0.45707,-0.55072 0.36283,-1.27601 -0.36374,-2.79963 -0.83122,-1.7431 -0.86011,-2.13082 -0.18953,-2.54525 1.55167,-0.95901 -1.59009,-2.64894 -5.57976,-3.00137 -5.17948,-0.45754 -11.69649,-1.75394 -14.299005,-2.84447 -1.553965,-0.65113 -2.948525,-0.81808 -4.673237,-0.55945 -2.27425,0.34104 -2.612522,0.22093 -4.517748,-1.60444 -2.412437,-2.31126 -4.110417,-2.94913 -5.653032,-2.12354 -0.794296,0.42508 -1.514667,0.41092 -2.525639,-0.0498 -1.476947,-0.67293 -4.6548,-4.76372 -4.11777,-5.30075 0.170059,-0.17001 0.733831,0.40255 1.252802,1.27253 1.53211,2.56822 3.523352,3.78511 5.053131,3.08813 1.84762,-0.84183 3.627173,-0.24467 5.999515,2.01326 1.822424,1.73452 2.314843,1.92869 4.140247,1.63246 1.415532,-0.22971 3.603878,0.1201 6.908461,1.10402 4.627365,1.37791 5.709525,1.46089 25.010225,1.91787 24.313955,0.57561 25.806335,0.381 11.24555,-1.46666 -7.79163,-0.98872 -10.10648,-1.57961 -9.57258,-2.44345 0.15252,-0.24681 -0.93949,-0.33178 -2.42674,-0.18894 -4.29433,0.41262 -17.81767,-1.00977 -25.871955,-2.72123 -1.388617,-0.29506 -4.624933,-0.7744 -7.191848,-1.06519 -2.566892,-0.29079 -5.722833,-1.01747 -7.01319,-1.61486 -1.290358,-0.59735 -3.419129,-1.374 -4.730595,-1.72588 -1.311465,-0.35184 -2.384487,-0.86609 -2.384487,-1.14275 0,-0.27665 1.704209,0.0155 3.787128,0.64613 5.425858,1.64636 7.502247,1.63499 8.348206,-0.0458 0.785122,-1.55991 3.641471,-2.94841 4.708615,-2.28884 0.720628,0.44535 1.462865,0.32762 3.634589,-0.57651 0.617155,-0.25692 2.258248,-0.61818 3.646865,-0.80277 4.883102,-0.64909 5.810212,-0.8484 6.129722,-1.31775 0.55268,-0.81186 5.13329,-2.40035 5.77613,-2.00308 0.3652,0.2257 0.4498,0.11695 0.21043,-0.27025 -0.25309,-0.40952 0.0246,-0.64777 0.7549,-0.64777 0.63538,0 1.15522,-0.24765 1.15522,-0.55035 0,-0.3027 0.61292,-0.7042 1.36205,-0.89221 0.74913,-0.18808 1.50476,-0.71377 1.6792,-1.16836 0.17443,-0.45456 0.55591,-0.67895 0.84769,-0.49861 0.2918,0.18024 0.79086,-0.11924 1.10901,-0.66575 0.31818,-0.54648 0.58617,-0.68318 0.59555,-0.30373 0.0121,0.4643 0.61339,0.32896 1.84049,-0.41382 1.00288,-0.60704 2.45463,-1.35916 3.22608,-1.67141 0.77145,-0.31224 1.78136,-0.82191 2.24423,-1.13266 0.46286,-0.31071 1.22028,-0.71013 1.68316,-0.88754 0.46287,-0.17747 1.47277,-0.5986 2.24421,-0.93593 0.77147,-0.33731 1.64195,-0.5526 1.93445,-0.4784 0.47319,0.12009 5.467545,-1.75684 9.286695,-3.48997 0.77145,-0.35008 2.39488,-1.46167 3.60759,-2.47016 1.21275,-1.00853 2.43616,-1.83367 2.71869,-1.83367 0.28257,0 1.22408,-0.50582 2.09234,-1.12404 0.86822,-0.61823 1.9802,-0.96992 2.4711,-0.78155 0.50148,0.1923 0.89253,0.0558 0.89253,-0.3117 0,-0.3598 0.27647,-0.48334 0.61438,-0.27448 0.33793,0.20887 1.33761,-0.15508 2.22154,-0.80848 2.02496,-1.4971 3.8567,-1.505 6.36104,-0.0272 1.57202,0.92751 2.50854,1.08923 4.66077,0.80491 2.55977,-0.33816 2.42051,-0.23008 -2.80545,2.17749 -3.02439,1.39332 -6.43281,3.11075 -7.57428,3.81653 -1.14144,0.70576 -3.96895,2.07294 -6.28332,3.03819 -2.31436,0.96523 -5.84903,2.44103 -7.8548,3.27954 -2.00578,0.83849 -3.961,1.82686 -4.34491,2.19636 -0.38393,0.3695 -0.86282,2.62118 -1.06423,5.00372 -0.36354,4.30076 -0.35651,4.33186 0.97856,4.32157 3.88903,-0.0302 11.97543,0.65512 12.73267,1.0789 0.96319,0.53902 3.81344,-0.23107 5.17184,-1.39728 0.64127,-0.55059 2.7443,-0.66837 8.56246,-0.4795 4.24184,0.13757 7.89889,0.29084 8.12681,0.34027 0.22794,0.0494 1.04561,-0.0686 1.81707,-0.26237 2.4585,-0.61745 7.86491,-0.83037 8.17905,-0.32206 0.16674,0.26966 0.89825,0.4903 1.62581,0.4903 0.72751,0 1.41576,0.27899 1.52942,0.61996 0.24645,0.73939 4.19838,2.29238 5.75209,2.26037 0.60293,-0.0121 1.36039,0.18574 1.68315,0.44018 0.32282,0.25451 1.0872,0.38269 1.69865,0.28485 0.61144,-0.0978 1.51575,0.18767 2.00956,0.63463 0.49381,0.4469 1.50836,0.79323 2.25461,0.76965 2.0932,-0.0662 3.36181,0.32286 3.9178,1.20141 0.28379,0.44843 0.51139,0.52171 0.51618,0.16623 0.005,-0.34971 0.51234,-0.7676 1.12802,-0.9286 0.96869,-0.2533 1.07063,-0.0919 0.75692,1.19691 -0.19933,0.81933 -0.73341,1.70855 -1.18673,1.97601 -0.68979,0.40702 -0.69887,0.56578 -0.0556,0.97327 1.23879,0.78472 3.14546,0.5767 3.51392,-0.38339 0.60317,-1.57187 0.36818,-2.00027 -0.92183,-1.68026 -0.69432,0.17217 -0.94679,0.16812 -0.56106,-0.008 0.38573,-0.17728 0.70132,-0.80603 0.70132,-1.39746 0,-0.68104 0.38942,-1.07535 1.06211,-1.07535 1.10365,0 1.98066,1.40605 1.43136,2.29482 -0.17345,0.28076 -0.0302,0.51043 0.31878,0.51043 0.35458,0 0.2272,0.40706 -0.28889,0.92311 -1.46088,1.46089 0.16623,2.04096 2.02071,0.72044 1.8534,-1.31973 2.25957,-1.35923 1.80539,-0.17559 -0.29379,0.76557 -0.16554,0.80927 0.82231,0.28054 1.66656,-0.89192 1.67139,-0.88705 1.89292,1.89839 0.11054,1.38861 0.0918,2.52475 -0.0415,2.52475 -0.13329,0 -2.11779,-0.64732 -4.40992,-1.43846 -2.29215,-0.7911 -4.24716,-1.35878 -4.34449,-1.26144 -0.58117,0.58116 1.68962,2.34687 3.4915,2.7149 1.17197,0.2394 4.15068,0.94451 6.61932,1.56695 2.46867,0.62243 5.18277,1.28334 6.03136,1.46871 1.69663,0.37058 2.126,1.45223 0.56106,1.41332 -0.54003,-0.0121 -2.09879,-0.24005 -3.46391,-0.50358 -1.8815,-0.36321 -2.67178,-0.28939 -3.26615,0.30497 -0.43124,0.43123 -0.57669,0.78782 -0.32322,0.79236 0.25348,0.005 -0.14548,0.32014 -0.8867,0.70133 -1.82699,0.93959 -2.73687,2.44353 -1.95272,3.22767 0.33102,0.33103 2.4164,0.75397 4.63422,0.93992 5.93197,0.49731 5.38763,1.18145 -0.68722,0.8637 -5.08892,-0.26616 -5.35029,-0.21757 -10.98404,2.04267 -3.1741,1.27344 -6.06382,2.31534 -6.42157,2.31534 -0.35775,0 -1.6428,0.53186 -2.85567,1.18191 -2.97393,1.59392 -6.87232,2.732 -9.38355,2.73937 -1.1371,0.005 -2.65194,0.22159 -3.36635,0.48498 -0.71438,0.2634 -2.03729,0.65799 -2.93976,0.87685 -1.35514,0.3287 -1.52921,0.26337 -0.99943,-0.37493 0.35282,-0.42512 2.73229,-1.09781 5.28776,-1.49489 4.56903,-0.70995 10.70299,-2.52609 12.08025,-3.57672 1.19775,-0.91371 0.79922,-1.79108 -2.18194,-4.80369 -2.98278,-3.01428 -4.05673,-3.27518 -5.62215,-1.36594 -0.66454,0.81047 -0.60108,0.87826 0.54553,0.58268 1.27493,-0.3287 1.27199,-0.3108 -0.16915,1.02476 -1.72793,1.60142 -2.06241,1.69211 -1.57717,0.42757 0.27874,-0.72637 0.10545,-0.86591 -0.78485,-0.63301 -0.81609,0.2134 -1.12359,0.0387 -1.07648,-0.61113 0.0363,-0.50045 0.31838,-1.11969 0.62697,-1.37606 0.3098,-0.25741 -0.10605,-0.32143 -0.92862,-0.14289 -1.27768,0.27723 -1.44827,0.16502 -1.19872,-0.78939 0.4176,-1.59692 -1.33894,-2.09196 -3.34264,-0.942 -1.8116,1.0397 -4.65288,1.24597 -5.19007,0.37679 -0.19065,-0.30856 -1.80806,-0.56103 -3.59413,-0.56103 -3.55785,0 -6.09625,1.4288 -5.46429,3.07563 0.46041,1.19981 -0.75113,3.64759 -1.83196,3.70129 -0.57973,0.0288 -0.6464,0.14341 -0.19044,0.32728 1.21501,0.49022 0.83459,2.03834 -0.42022,1.7102 -1.4488,-0.37884 -1.77724,0.2191 -1.77724,3.23574 v 2.46814 l -2.8988,0.29122 c -8.64519,0.86854 -11.53508,0.8799 -12.36639,0.0486 z m 1.89327,-1.06647 c 0,-0.43766 0.16898,-1.25817 0.37568,-1.82345 0.36257,-0.9919 0.33456,-0.99167 -0.80376,0.005 -0.64869,0.56901 -1.04319,1.38959 -0.87671,1.82344 0.39331,1.02484 1.30479,1.02008 1.30479,-0.005 z m 2.54783,-0.36376 c 0.65793,-1.06451 -0.3016,-1.3272 -1.27876,-0.35007 -0.87466,0.87464 -0.8762,0.94847 -0.019,0.94847 0.51078,0 1.09511,-0.26928 1.29852,-0.5984 z m 42.80419,-16.65395 c 0.2788,-0.54001 0.67935,-1.93667 0.89009,-3.10369 0.37894,-2.09846 0.36584,-2.11777 -1.18851,-1.75098 -2.19312,0.51749 -2.73842,1.16928 -1.34764,1.61071 1.29237,0.41017 1.49353,1.46689 0.5978,3.14056 -0.38015,0.71034 -0.38701,1.08524 -0.019,1.08524 0.3086,0 0.78919,-0.44183 1.06801,-0.98184 z m 3.89239,-6.76768 c 0.33663,-1.00983 -0.82305,-0.79764 -1.21441,0.22222 -0.20974,0.54641 -0.0843,0.8029 0.32571,0.66624 0.36662,-0.12214 0.76656,-0.52203 0.8887,-0.88846 z m -57.09923,-1.50314 c 0,-0.42385 -0.44182,-0.88979 -0.98184,-1.03542 -1.85411,-0.49999 -5.18978,-0.33737 -5.18978,0.253 0,0.3249 0.31559,0.48148 0.70132,0.34794 0.38573,-0.13364 1.56236,0.21402 2.61473,0.77233 2.00056,1.06134 2.85557,0.96018 2.85557,-0.33785 z m 3.36636,1.08053 c 0,-1.04775 -1.25555,-2.40141 -1.97226,-2.12639 -1.14367,0.43884 -1.04923,1.74397 0.14873,2.05704 1.52874,0.39949 1.82345,0.41073 1.82345,0.0695 z m -24.659215,-1.12156 c 4.84197,0.23499 5.21864,0.17136 6.48404,-1.09395 1.53302,-1.53301 1.72917,-2.51653 0.50187,-2.51653 -0.46286,0 -0.84158,-0.22382 -0.84158,-0.49741 0,-0.7052 -3.01988,-1.2089 -7.42496,-1.23838 -2.07795,-0.0155 -3.90704,-0.23393 -4.06467,-0.48896 -0.26362,-0.42654 -1.69108,-0.19234 -5.34205,0.87643 -2.11158,0.61818 -3.96188,1.96069 -3.57191,2.59168 0.21127,0.34184 0.53352,0.26339 0.82817,-0.20167 0.26528,-0.41866 0.48621,-0.49613 0.49093,-0.1722 0.005,0.32403 -0.29438,0.8921 -0.66468,1.26237 -0.52365,0.52368 -0.0402,0.67327 2.17553,0.67327 1.8298,0 3.09511,0.29681 3.53745,0.82979 0.50182,0.60467 0.96848,0.68006 1.71997,0.27788 0.56801,-0.304 3.3405,-0.43985 6.17189,-0.30243 z m 78.048815,-1.24306 c -0.53363,-0.1779 -0.54393,-0.41691 -0.0437,-1.01935 0.51483,-0.62034 0.46037,-0.78704 -0.2571,-0.78704 -0.97032,0 -1.11698,0.49175 -0.57096,1.91457 0.18661,0.48634 0.61601,0.71325 0.95422,0.50422 0.42812,-0.26459 0.40312,-0.45061 -0.0822,-0.6124 z m -64.32072,-9.91764 c 0.96035,-2.63314 1.36141,-4.57013 1.11013,-5.36179 -0.62958,-1.98357 -1.64454,-0.31902 -2.741585,4.49625 -0.52725,2.31432 -1.10874,4.71082 -1.2922,5.32556 -0.28677,0.9611 -0.21065,1.01575 0.54329,0.39002 0.48226,-0.40023 1.55341,-2.58277 2.380365,-4.85004 z m -4.245255,2.23741 c 0.62935,-0.38894 1.12298,-1.41419 1.93057,-4.00967 0.32662,-1.04972 0.18908,-1.15496 -1.18747,-0.90859 -0.85628,0.15336 -1.93557,0.60136 -2.39845,0.9958 -0.46286,0.39445 -1.47019,0.80331 -2.23849,0.9086 -1.40059,0.1919 -2.05732,1.50787 -1.49015,2.98588 0.30672,0.79928 4.10405,0.819 5.38399,0.028 z m 56.396655,27.16563 c -0.5153,-0.8338 -0.10544,-1.12896 0.79489,-0.5725 0.48235,0.29813 0.53974,0.58723 0.1628,0.82022 -0.32018,0.19785 -0.75114,0.0864 -0.95765,-0.24772 z M 23.958264,229.14516 c 1.388621,-0.33183 2.903466,-0.88 3.366342,-1.21814 0.748078,-0.5465 0.748078,-0.51202 0,0.3103 -0.462876,0.5088 -1.977721,1.057 -3.366342,1.21817 l -2.524746,0.29303 z m -2.910472,-1.99715 c 0.405025,-0.16193 0.888927,-0.14204 1.075359,0.0444 0.186397,0.18639 -0.144839,0.31904 -0.736393,0.29468 -0.653585,-0.027 -0.786544,-0.15987 -0.338966,-0.33897 z m 2.805283,-0.56105 c 0.405016,-0.16195 0.888918,-0.14204 1.075351,0.0444 0.186441,0.18639 -0.144944,0.31903 -0.736386,0.29465 -0.653594,-0.0269 -0.786544,-0.15988 -0.338965,-0.33895 z m -12.10786,-18.13144 c 0,-1.08 0.115578,-1.52184 0.25658,-0.98182 0.141015,0.54002 0.141015,1.42367 0,1.96368 -0.141221,0.54 -0.25658,0.0983 -0.25658,-0.98186 z m -0.579989,-6.45207 c -0.06807,-2.16005 -0.279933,-4.93725 -0.471007,-6.17156 -0.262816,-1.69769 -0.187879,-2.09553 0.308113,-1.63369 0.440667,0.41039 0.595061,2.43334 0.471008,6.17156 -0.151188,4.55423 -0.206961,4.84998 -0.308114,1.63369 z M 143.32305,191.8135 c 0.38572,-0.15559 1.01688,-0.15559 1.40264,0 0.38572,0.15558 0.0702,0.28296 -0.70132,0.28296 -0.77146,0 -1.08705,-0.12745 -0.70132,-0.28296 z m 6.21956,-1.4567 c 1.02042,-0.49079 1.2432,-0.94791 1.00696,-2.06597 -0.16692,-0.78968 -0.529,-2.64734 -0.80474,-4.12819 -0.27577,-1.48084 -0.72891,-2.9046 -1.00698,-3.16391 -1.04987,-0.97915 -6.98555,-2.27893 -10.41041,-2.27967 -1.95829,-4.6e-4 -5.70656,-0.3788 -8.32949,-0.84083 -7.18614,-1.26581 -12.78213,-1.05477 -23.09225,0.87087 -17.709325,3.3076 -24.866295,4.11933 -32.541195,3.69059 -12.035632,-0.67232 -15.353811,-0.97407 -20.702909,-1.88284 l -5.362663,-0.9111 0.685187,-2.64145 c 0.778385,-3.0007 0.933023,-4.37316 0.844825,-7.49775 -0.05188,-1.83625 -0.479666,-2.60018 -2.58683,-4.61921 -3.4681,-3.32298 -7.371557,-5.16396 -13.100774,-6.17863 -9.614528,-1.70282 -16.031324,0.21699 -19.066283,5.70429 -0.87805,1.58754 -0.804109,0.0408 0.101777,-2.12689 0.842797,-2.01715 4.224874,-4.61173 7.147213,-5.4831 2.808688,-0.83749 9.833527,-0.67455 13.697021,0.31763 4.991427,1.28189 9.99046,3.92044 12.32647,6.50611 1.137226,1.25878 2.151541,2.20311 2.254021,2.09852 0.482935,-0.49286 0.611293,-6.52929 0.166611,-7.83545 -1.070937,-3.1457 -8.184197,-7.37714 -13.982999,-8.31808 -4.518213,-0.73311 -9.749426,-0.74825 -12.235092,-0.0355 -1.059104,0.30376 -2.914649,1.34705 -4.123419,2.31843 -1.827551,1.46867 -2.086633,1.55851 -1.538033,0.53343 0.362862,-0.678 0.756688,-1.65817 0.875155,-2.17815 0.118545,-0.51999 0.706038,-2.96524 1.305698,-5.43384 0.59966,-2.46863 1.264833,-5.56222 1.478158,-6.87465 0.3079,-1.89433 0.66675,-2.45624 1.740871,-2.72582 1.242721,-0.3119 1.353022,-0.61517 1.353022,-3.72025 0,-1.85934 0.289059,-4.3454 0.642343,-5.52455 0.607297,-2.02697 0.705923,-2.09937 1.808003,-1.32746 1.810923,1.26842 2.433058,1.00892 2.15317,-0.8981 -0.180541,-1.23011 0.09288,-2.08129 0.967667,-3.01246 0.67062,-0.71386 1.412334,-2.02519 1.648258,-2.9141 0.309811,-1.16736 0.824002,-1.66331 1.851395,-1.7857 1.176914,-0.14016 1.377126,-0.40656 1.159902,-1.54291 -0.223251,-1.16786 -0.04764,-1.37342 1.173693,-1.37342 1.897968,0 3.353771,-1.99891 2.549829,-3.50108 -0.318909,-0.59588 -0.451191,-1.21205 -0.293965,-1.36929 0.659542,-0.65952 3.957113,0.61906 6.394173,2.47932 2.548348,1.94519 2.660392,1.9746 4.186264,1.09885 0.862311,-0.49488 1.567836,-0.66713 1.567836,-0.38276 0,0.28439 -0.643841,0.85438 -1.430755,1.26669 l -1.430756,0.74964 1.430756,0.76573 c 1.538882,0.82355 1.651305,1.38092 1.565066,7.75963 l -0.04781,3.53671 2.341239,-0.17052 2.341243,-0.17051 0.377835,-3.36632 c 0.207813,-1.85146 0.896577,-4.50242 1.530584,-5.89101 1.568891,-3.43619 1.520805,-4.13521 -0.253821,-3.68982 -0.9909,0.24873 -1.938635,-0.001 -3.080565,-0.81523 -0.907149,-0.64592 -2.156663,-1.21263 -2.77671,-1.25935 -0.620048,-0.0466 -1.127352,-0.28366 -1.127352,-0.52656 0,-0.80268 1.934517,-0.45527 3.80069,0.68253 2.189865,1.33515 3.664315,1.4241 4.615156,0.27841 0.384132,-0.46287 1.267892,-0.84155 1.963871,-0.84155 0.695979,0 2.17992,-0.38211 3.297634,-0.84912 1.76459,-0.73729 2.032212,-1.09766 2.032212,-2.73658 0,-1.0381 0.358858,-2.18525 0.797448,-2.54924 0.65031,-0.53971 0.74548,-0.46311 0.51582,0.41509 -0.34007,1.30042 1.04387,1.77832 5.13888,1.77461 2.18449,-0.001 3.35163,-0.37276 5.27419,-1.67551 2.17662,-1.47486 2.94946,-1.67291 6.52788,-1.67291 3.64695,0 4.14709,0.13449 4.92708,1.32487 0.47746,0.72869 1.57951,1.47717 2.44901,1.66328 1.16756,0.24989 2.23439,1.33373 4.08036,4.14534 3.789855,5.77243 9.563265,15.44537 9.563265,16.02254 0,0.28139 0.50495,1.15359 1.12211,1.93818 0.61715,0.78458 1.12212,1.80023 1.12212,2.25694 0,0.71276 -0.19598,0.70205 -1.3829,-0.0757 -1.57765,-1.0337 -2.20739,-1.16129 -1.70291,-0.34504 0.19071,0.30857 -0.032,0.56105 -0.49483,0.56105 -1.09016,0 -1.66479,-0.93483 -0.87478,-1.42307 0.39879,-0.24644 0.17216,-0.8471 -0.6497,-1.72191 -0.69415,-0.73888 -0.97354,-1.34345 -0.62086,-1.34345 0.92075,0 0.24209,-1.42886 -1.63098,-3.43399 l -1.619945,-1.73414 v 1.40195 c 0,1.73883 -1.51634,2.40792 -2.80796,1.23905 -0.72298,-0.65427 -1.31201,-0.73818 -2.36682,-0.33715 -0.77237,0.29365 -2.44635,0.39416 -3.71995,0.22331 -1.52299,-0.2042 -2.62727,-0.0518 -3.22599,0.4449 -1.12603,0.93455 -5.98144,0.9213 -8.84607,-0.024 -1.83579,-0.60587 -2.24562,-0.56978 -3.18521,0.28054 -0.96179,0.87041 -1.42797,0.90152 -4.31302,0.28788 -4.724434,-1.00489 -4.787919,-0.99896 -5.563085,0.52032 -0.552253,1.0824 -0.559578,1.47247 -0.03281,1.74798 1.376655,0.71995 7.787395,1.05464 8.890735,0.46416 0.78457,-0.41987 2.60512,-0.41283 6.19827,0.024 3.45023,0.41952 5.65139,0.43803 6.8399,0.0579 0.96386,-0.30854 4.34035,-0.68105 7.5033,-0.82784 4.66857,-0.21666 5.750845,-0.11997 5.750845,0.51447 0,1.45808 1.29822,3.6394 2.16597,3.6394 0.69616,0 0.72579,0.1362 0.1527,0.70132 -0.56941,0.56161 -0.84323,0.5278 -1.37459,-0.16966 -0.5768,-0.75712 -2.534095,-0.84378 -14.970505,-0.66264 -7.8688,0.11464 -16.35821,0.18258 -18.86535,0.15113 -4.295243,-0.0539 -4.578252,0.0172 -4.901575,1.2237 -0.577337,2.15503 -0.442582,2.27788 2.175139,1.98285 1.393495,-0.15714 2.648236,-0.1 2.788276,0.12643 0.14006,0.2266 1.46157,0.22343 2.93669,-0.005 1.47511,-0.23053 7.22657,-0.42179 12.78103,-0.42507 5.55445,-0.005 10.98266,-0.1458 12.0627,-0.31718 1.08003,-0.17119 5.914855,-0.44606 10.744085,-0.61085 7.02777,-0.23977 9.17999,-0.1326 10.78233,0.53688 1.10108,0.46006 3.71428,0.8433 5.80713,0.85166 2.09283,0.008 6.20366,0.2692 9.1352,0.57964 14.0439,1.48722 14.0264,1.48668 14.0264,0.45341 0,-2.08407 -0.66093,-2.73142 -2.78873,-2.73142 -1.1592,0 -3.39566,-0.2443 -4.96994,-0.54281 -1.57428,-0.29859 -6.71961,-0.68846 -11.43405,-0.86642 -6.03687,-0.22787 -8.93477,-0.5614 -9.79932,-1.12789 -1.06821,-0.69989 -1.48521,-0.69667 -3.21199,0.0249 -2.92411,1.22176 -4.383,1.09597 -4.16345,-0.35893 0.1302,-0.86328 1.01518,-1.49901 3.23647,-2.32509 2.6826,-0.99764 3.26698,-1.04533 4.76902,-0.38925 0.94147,0.41126 3.60537,0.79573 5.91974,0.85436 2.31437,0.0588 8.09169,0.30141 12.83856,0.53939 7.53038,0.37758 8.66335,0.55789 8.88736,1.41446 0.14874,0.56842 0.94534,1.08281 1.89235,1.22181 2.03708,0.29896 2.17159,0.16107 1.66659,-1.706 -0.29213,-1.08024 -0.79241,-1.52463 -1.76541,-1.56822 -2.44919,-0.10956 -2.68117,-0.20824 -3.02274,-1.28455 -0.25458,-0.80213 -0.85227,-1.05755 -2.4223,-1.03529 -8.08161,0.11465 -21.33477,-0.60716 -22.48706,-1.22464 -0.78368,-0.41998 -2.04691,-0.56311 -3.08582,-0.34964 -0.96746,0.19869 -2.60637,0.50636 -3.64204,0.6836 l -1.88303,0.32223 0.4116,-1.89174 c 0.73778,-3.39092 1.32215,-4.4165 2.51659,-4.4165 0.63451,0 1.29894,-0.3787 1.47657,-0.84156 0.44784,-1.16704 4.86882,-1.13824 5.84507,0.0379 0.56485,0.6806 1.69127,0.85075 4.97796,0.75201 2.33636,-0.0702 5.43935,0.072 6.89556,0.31635 3.00995,0.50472 9.44139,-0.64997 9.08047,-1.63027 -0.12112,-0.32905 -0.43525,-2.19727 -0.69798,-4.15158 -0.44586,-3.31666 -0.39937,-3.58279 0.69823,-3.99547 0.64673,-0.24318 1.99645,-0.3197 2.99933,-0.17 1.41619,0.21121 1.82343,0.0699 1.82343,-0.63323 0,-1.29619 0.98587,-1.1196 2.9429,0.52709 0.93623,0.78776 2.3638,1.56463 3.17241,1.72634 l 1.47017,0.29404 -0.38178,4.58545 c -0.20995,2.52203 -0.40186,4.90109 -0.42641,5.2868 -0.0246,0.38573 -0.42333,0.70132 -0.8862,0.70132 -0.82475,0 -0.9127,-0.69593 -1.08706,-8.60238 -0.0229,-1.03591 -0.61263,-2.08683 -1.69392,-3.01838 -2.03275,-1.75123 -2.3687,-1.06234 -1.21983,2.50118 1.12144,3.47833 1.75211,7.4309 1.01798,6.37989 -0.41119,-0.58865 -0.64147,-0.32341 -0.95381,1.09867 -0.22645,1.03109 -0.19086,1.95229 0.0794,2.04716 2.16259,0.7594 3.38481,1.85915 3.92969,3.53584 0.87627,2.69637 2.21468,2.83108 2.69494,0.27126 0.46978,-2.50426 2.37078,-7.01421 2.96361,-7.03096 0.24241,-0.005 1.04845,-0.47971 1.79123,-1.05071 l 1.35045,-1.03819 -3.31417,-3.22463 c -1.8228,-1.77353 -2.51764,-2.65959 -1.54409,-1.96899 0.97355,0.69061 2.04658,1.08476 2.38449,0.87593 0.36833,-0.22762 0.61441,0.0778 0.61441,0.76258 0,0.62822 0.57231,1.51726 1.27183,1.97558 1.16619,0.76415 1.56154,0.69533 4.76119,-0.82862 1.91918,-0.9141 3.8407,-1.66197 4.27003,-1.66197 1.16916,0 2.32889,1.67233 2.14307,3.09036 -0.11234,0.85768 0.18491,1.34243 0.94559,1.54134 0.62332,0.16314 1.60805,1.38433 2.24699,2.78693 0.62558,1.37324 1.51572,2.81074 1.97807,3.19447 0.46238,0.38372 1.11827,1.5388 1.45759,2.56684 0.33926,1.02808 0.98335,2.00985 1.43131,2.18173 0.49153,0.1885 0.81444,1.07094 0.81444,2.22532 0,1.05201 0.35226,2.76413 0.78282,3.80469 0.96672,2.33648 3.8987,17.11559 3.51777,17.73198 -0.2943,0.47617 0.98162,5.89732 1.6379,6.95921 0.21412,0.34646 0.16468,0.52313 -0.10956,0.39257 -6.11262,-2.90857 -12.15704,-4.18031 -16.89648,-3.55489 -4.23417,0.55873 -10.21852,1.93427 -12.42368,2.85564 -3.50701,1.46528 -4.30864,2.61405 -4.45768,6.38788 -0.0732,1.859 0.008,3.38001 0.18428,3.38001 0.17472,0 1.26956,-0.48561 2.43293,-1.07913 2.31951,-1.18332 6.57142,-2.31796 12.86363,-3.43275 3.57426,-0.63322 4.76272,-0.59927 9.53795,0.27273 6.97998,1.27461 10.07768,2.36202 11.03491,3.87366 1.39294,2.19972 1.55056,5.46825 0.42274,8.76643 l -1.05018,3.07094 -0.39627,-2.50989 c -1.18696,-7.51802 -6.12552,-11.22533 -15.00372,-11.2631 -8.44063,-0.0357 -16.37743,2.06789 -19.29687,5.1151 -1.60176,1.67188 -1.61794,1.75694 -1.62653,8.55442 -0.0109,7.86921 0.80024,11.3494 2.53643,10.89542 1.73808,-0.45452 1.20793,0.17449 -0.88349,1.04841 -1.07013,0.44714 -2.6481,0.79588 -3.50659,0.77498 l -1.56093,-0.0379 1.31033,-0.6302 z M 81.261035,178.57955 c 0.37158,-0.69431 0.63901,-1.32426 0.59428,-1.39991 -0.0447,-0.0757 0.0674,-0.88147 0.2493,-1.79068 0.41349,-2.06746 5.62058,-7.18593 6.45822,-6.34831 0.38367,0.38369 0.0178,0.81199 -1.12657,1.31851 -1.50808,0.6675 -2.87134,2.75016 -1.80024,2.75016 0.62792,0 0.64649,3.83204 0.0206,4.21894 -0.97592,0.60313 -0.57102,1.39138 0.71924,1.40015 1.04582,0.005 1.11801,0.11101 0.42079,0.60472 -1.14289,0.80953 5.16016,0.11271 7.29371,-0.80636 0.46287,-0.19932 1.61043,-0.44313 2.55014,-0.54165 2.24527,-0.23545 3.08315,-0.79747 2.69539,-1.80799 -0.19709,-0.51357 0.0232,-0.82361 0.58554,-0.82361 0.495895,0 0.901625,-0.2329 0.901625,-0.51756 0,-0.28462 0.86132,-0.8018 1.91408,-1.14923 1.05275,-0.34743 2.0547,-0.99819 2.2266,-1.44614 0.1719,-0.44794 0.63606,-0.81058 1.03147,-0.80584 0.57846,0.005 0.57993,0.097 0.007,0.46024 -0.89698,0.56929 -1.85501,3.81879 -1.44267,4.89332 0.17086,0.44517 0.59918,0.79164 0.95189,0.76996 1.74434,-0.10738 2.85609,-1.14817 4.7736,-4.46945 l 2.09363,-3.62637 2.9184,-0.16965 c 1.60515,-0.0933 2.91842,0.0674 2.91842,0.35713 0,0.52302 1.71533,0.99619 5.75087,1.58633 1.34755,0.197 2.10395,0.0849 2.10395,-0.31228 2e-5,-0.34101 -0.25247,-0.62 -0.56106,-0.62 -0.30856,0 -0.11924,-0.4649 0.42081,-1.03308 0.54002,-0.56823 1.19817,-0.91537 1.46255,-0.77149 0.2644,0.14393 0.14548,0.46885 -0.26427,0.72208 -0.40975,0.25325 -0.62228,0.58312 -0.47232,0.73309 0.14994,0.14992 0.895,-0.1968 1.65566,-0.77052 l 1.38295,-1.04318 -2.65372,-0.66821 c -1.4631,-0.3684 -2.65375,-0.99592 -2.65375,-1.39861 0,-1.35744 3.42793,-1.53064 10.50995,-0.53095 l 2.93568,0.41439 -0.92825,-2.7242 c -0.51062,-1.49831 -1.45295,-3.15821 -2.09417,-3.68873 l -1.16584,-0.96453 1.26235,0.31687 c 0.74466,0.18681 1.26238,0.0599 1.26238,-0.30958 0,-0.34458 0.3156,-0.56338 0.70133,-0.48624 0.38572,0.0772 0.63818,-0.17535 0.56102,-0.56102 -0.0772,-0.38574 0.14376,-0.63823 0.49095,-0.56107 0.34713,0.0772 0.74602,-0.17284 0.88643,-0.5553 0.17643,-0.48087 -0.26882,-0.63458 -1.44236,-0.49796 -0.97465,0.11355 -1.80818,-0.0906 -1.95733,-0.47926 -0.29778,-0.77598 -8.1241,-2.41125 -17.1939,-3.5925 -5.67355,-0.73894 -16.43053,-0.53505 -17.47432,0.3312 -0.56383,0.46792 -4.511265,0.7263 -12.849665,0.84108 -9.4654,0.1302 -12.00423,0.32027 -11.88796,0.88967 0.0812,0.39824 -0.11695,1.21876 -0.44053,1.82343 -0.63743,1.19104 -0.0363,1.48445 0.97318,0.47499 0.88516,-0.88514 1.79361,-0.14461 1.44728,1.17968 -0.1604,0.61338 -0.51542,0.97695 -0.78891,0.80791 -0.27351,-0.16897 -0.49727,-0.0398 -0.49727,0.28682 0,0.80163 1.29949,0.75341 2.13201,-0.079 0.45042,-0.4504 0.67326,-0.47026 0.67326,-0.0599 0,0.72632 -1.61403,1.51389 -2.80527,1.36888 -0.61748,-0.0753 -0.57698,0.0599 0.15207,0.50703 0.5465,0.33523 0.83101,0.87266 0.63224,1.19427 -0.19879,0.32162 0.30086,0.15078 1.11032,-0.37952 1.45239,-0.95164 1.87549,-0.65659 1.0109,0.70493 -0.24401,0.3842 -1.07898,0.75116 -1.85549,0.81542 -1.17137,0.097 -1.3675,0.34884 -1.1515,1.47886 0.17015,0.88996 -0.0628,1.5429 -0.67247,1.88403 -0.51305,0.28711 -0.78385,0.76311 -0.60173,1.05773 0.18209,0.29467 0.52794,0.41409 0.76854,0.26538 0.2406,-0.14873 0.45805,0.45355 0.4832,1.33827 0.0338,1.19261 -0.27063,1.7001 -1.17755,1.96231 -1.21321,0.35074 -1.21173,0.3593 0.17936,1.03702 1.69463,0.82568 1.99248,1.86236 1.04416,3.63431 -0.57708,1.07827 -0.5749,1.41454 0.0121,1.77698 0.39781,0.24588 0.73388,0.67125 0.74682,0.94535 0.10508,2.22636 2.79647,2.66897 3.88311,0.63858 z m 19.000835,-6.81237 c 0,-0.49645 3.03877,-3.14629 3.60812,-3.14629 0.29356,0 0.0437,0.37933 -0.55532,0.84294 -0.80323,0.6217 -0.84627,0.75894 -0.16397,0.52281 0.5088,-0.176 1.08054,-0.0686 1.27051,0.23875 0.19,0.3074 -0.22631,0.72336 -0.9251,0.92436 -2.91776,0.83922 -3.23421,0.89964 -3.23421,0.61743 z m -22.675575,-6.15273 c 0.19437,-0.50652 0.74718,-0.92091 1.22846,-0.92091 0.48129,0 0.76986,0.0713 0.6413,0.15884 -0.12856,0.0873 -0.68139,0.50175 -1.22847,0.92092 -0.86598,0.66356 -0.94897,0.64302 -0.64129,-0.15885 z m 44.378335,-7.87057 c -0.20909,-0.54475 0.0237,-0.69387 0.77525,-0.49724 0.59059,0.15439 0.93554,0.50457 0.76651,0.77806 -0.45643,0.73851 -1.20279,0.60258 -1.54176,-0.28082 z M 70.560405,176.7231 c 1.40197,-1.34316 1.46294,-1.60265 0.94597,-4.02648 -0.48203,-2.26011 -0.41874,-2.69519 0.49587,-3.40875 1.02156,-0.79698 1.02123,-0.80851 -0.0127,-0.44909 -0.89808,0.31216 -0.95258,0.23799 -0.35458,-0.48258 0.38866,-0.46828 0.57431,-1.35747 0.41257,-1.97596 -0.16174,-0.61851 -0.0646,-1.26634 0.21582,-1.43968 0.29462,-0.18216 0.30439,-0.71527 0.0231,-1.26291 -0.26771,-0.52126 -0.37358,-1.26339 -0.23528,-1.64913 0.13829,-0.38571 -0.022,-0.7013 -0.35635,-0.7013 -0.33425,0 -0.60777,-0.37871 -0.60777,-0.84157 0,-0.46287 0.25649,-0.84156 0.56997,-0.84156 0.65263,0 0.53387,-3.31139 -0.13355,-3.72391 -0.24229,-0.14975 -0.28599,-0.88795 -0.0972,-1.64049 0.3211,-1.27934 0.20276,-1.36459 -1.82138,-1.31231 -3.819448,0.0987 -4.425562,0.51958 -4.47659,3.10874 -0.02518,1.27772 -0.198604,2.72135 -0.38538,3.20809 -0.186776,0.48672 -0.137419,1.00994 0.109683,1.16264 0.247114,0.15268 0.496273,1.73878 0.553694,3.52457 0.05738,1.78577 0.334957,3.32628 0.616779,3.42335 0.281811,0.0971 0.373322,0.5389 0.20335,0.98184 -0.169949,0.44292 -0.0024,0.80535 0.372075,0.80535 0.382379,0 0.535899,0.37841 0.350019,0.8628 -0.1881,0.49015 0.027,1.0002 0.49781,1.18088 0.45589,0.17496 0.66511,0.58309 0.46493,0.90701 -0.58805,0.95149 -0.70011,3.2552 -0.14155,2.91 0.65584,-0.40534 0.64466,0.35444 -0.0208,1.40619 -0.28349,0.44809 -0.39097,1.0162 -0.23882,1.26236 0.4978,0.80545 1.52563,0.47248 3.05017,-0.9881 z m -1.71767,-2.72115 c 0,-0.1069 0.37871,-0.50849 0.8416,-0.89263 0.48507,-0.40262 0.84158,-0.45712 0.84158,-0.12867 0,0.31334 -0.37872,0.71503 -0.84158,0.89265 -0.46289,0.1777 -0.8416,0.23555 -0.8416,0.12865 z m -2.244213,-8.18632 c 0,-0.30857 0.252463,-0.56106 0.561053,-0.56106 0.30858,0 0.56106,0.25249 0.56106,0.56106 0,0.30857 -0.25248,0.56107 -0.56106,0.56107 -0.30859,0 -0.561053,-0.2525 -0.561053,-0.56107 z m 48.250858,9.53789 c 0,-0.7367 -0.37405,-1.12212 -1.08902,-1.12212 -1.23299,0 -1.95377,0.84498 -1.43575,1.68317 0.64666,1.04632 2.52477,0.62897 2.52477,-0.56105 z m -41.237655,-1.68316 c -0.19072,-0.30858 -0.0645,-0.56104 0.28051,-0.56104 0.34501,0 0.4546,-0.27945 0.24352,-0.62095 -0.26753,-0.43289 -0.52987,-0.39039 -0.86612,0.14015 -0.65339,1.03119 -0.61962,1.60279 0.0947,1.60279 0.3268,0 0.43813,-0.2525 0.24742,-0.56107 z m 65.455235,-0.42079 c 0.4964,-0.54002 1.47764,-1.41569 2.1806,-1.94591 1.35035,-1.01862 1.40771,-0.94402 -1.39009,-1.80784 -0.89255,-0.27558 -2.20363,0.98337 -1.62583,1.56114 0.20294,0.20316 -0.0514,0.36919 -0.56591,0.36919 -0.51431,0 -0.9351,0.27946 -0.9351,0.62107 0,0.3416 0.38457,0.47352 0.85458,0.29315 0.69719,-0.26753 0.74519,-0.12368 0.26076,0.78157 -0.73491,1.37318 0.005,1.4505 1.22099,0.12763 z m -6.96512,-1.02866 c -0.53465,-0.53468 -1.60659,0.33134 -1.20812,0.97604 0.23684,0.3832 0.55065,0.37354 0.95359,-0.0295 0.33034,-0.33031 0.44486,-0.75631 0.25453,-0.94664 z m -55.965375,-7.86793 c 0,-0.12128 -0.37871,-0.2205 -0.84159,-0.2205 -0.46287,0 -0.84157,0.24454 -0.84157,0.54342 0,0.2989 0.3787,0.39813 0.84157,0.22052 0.46288,-0.17768 0.84159,-0.42216 0.84159,-0.54344 z m -2.24423,-7.76159 c 0,-0.1362 -0.25246,-0.40345 -0.56105,-0.59417 -0.30858,-0.19063 -0.56105,-0.0794 -0.56105,0.24744 0,0.32678 0.25247,0.59415 0.56105,0.59415 0.30859,0 0.56105,-0.11114 0.56105,-0.24742 z m 1.52342,-2.19548 c -0.30568,-0.91709 -1.52342,-1.0946 -1.52342,-0.22209 0,0.43713 0.38573,0.79483 0.85718,0.79483 0.47144,0 0.77125,-0.25775 0.66624,-0.57274 z m 71.404495,-10.14688 c 0.82204,-2.93599 0.49165,-4.24176 -1.07328,-4.24176 -0.61492,0 -3.27869,-0.50382 -5.91955,-1.11956 -9.24349,-2.1553 -30.84316,-3.80817 -35.72776,-2.734 -3.10107,0.68192 -6.641535,0.7406 -21.230425,0.35171 -6.01733,-0.16039 -11.69802,-0.0906 -12.62376,0.15525 -0.92574,0.24577 -2.59134,0.59856 -3.701307,0.78394 -2.138336,0.35717 -3.590207,2.30666 -2.953537,3.9658 0.180541,0.47044 0.01211,1.23698 -0.375525,1.70336 -1.457405,1.75603 -2.168626,1.71589 21.617819,1.22043 9.25743,-0.19278 19.608915,-0.58866 23.003335,-0.8796 6.45275,-0.55307 7.25818,-0.48373 25.65284,2.20839 4.54301,0.66489 8.5826,1.0879 8.97692,0.94002 0.39427,-0.14788 1.2218,-0.0831 1.83895,0.14443 1.53144,0.56396 1.70663,0.38995 2.51528,-2.49828 z m -89.831461,1.87081 c 0.978309,-0.34104 2.018652,-1.06839 2.311903,-1.61629 0.767721,-1.43449 2.362871,-6.252 2.14296,-6.47191 -0.300563,-0.30056 -4.382988,3.49757 -4.382988,4.07775 0,0.29106 -0.528335,1.00735 -1.174071,1.59175 -2.916409,2.63928 -2.452288,3.65777 1.102196,2.4187 z m 92.887471,-9.97636 c 0.3665,-0.593 -1.24161,-2.05547 -1.72675,-1.57035 -0.46747,0.46745 0.20866,2.06783 0.87375,2.06783 0.30004,0 0.68388,-0.22387 0.853,-0.49748 z m -87.317243,-9.71366 c 1.10252,-1.10253 0.772043,-1.98126 -0.869644,-2.31237 -1.580247,-0.31875 -2.945535,0.72476 -2.945535,2.2513 0,0.92942 2.900391,0.97587 3.815179,0.0613 z m -0.629298,-11.03011 c 1.368726,-2.88819 2.400074,-5.33977 2.291868,-5.44798 -0.108231,-0.10811 -0.738726,-0.0548 -1.401183,0.11839 -0.802878,0.20992 -1.518796,1.18456 -2.147318,2.92327 -2.461852,6.8103 -3.048693,8.7816 -3.015485,10.1293 0.03366,1.36614 0.08971,1.33485 0.909703,-0.50787 0.480608,-1.08003 1.993702,-4.32676 3.362415,-7.21495 z m 83.984471,0.62261 c -0.11428,-3.46598 -1.45289,-7.10096 -2.70502,-7.34602 -0.86102,-0.16863 -0.9369,0.11234 -0.60629,2.24422 0.32632,2.1043 0.87946,4.36701 1.72712,7.06547 0.12112,0.38572 0.54696,0.70131 0.94621,0.70131 0.5043,0 0.69908,-0.81354 0.63798,-2.66498 z m -80.067926,0.98013 c 2.318791,-0.0172 4.723161,-0.005 7.625281,0.0448 1.00289,0.0172 2.7404,-0.13637 3.86113,-0.34038 1.26142,-0.22972 2.18241,-0.13707 2.4176,0.24358 0.62263,1.00744 5.41247,0.74402 6.63798,-0.36504 0.633,-0.57287 2.36069,-1.09712 4.16007,-1.26236 l 3.07745,-0.28262 -3.664,-3.78709 c -2.0152,-2.08289 -3.93048,-3.78707 -4.25616,-3.78707 -0.32568,0 -0.59216,0.77677 -0.59216,1.72614 0,1.6072 -0.1262,1.71525 -1.83151,1.56834 -1.00733,-0.0868 -2.15556,0.0425 -2.55162,0.28725 -1.24312,0.76831 -2.34954,-0.10193 -2.34954,-1.84787 0,-0.9172 -0.24978,-1.82201 -0.55507,-2.0107 -0.30529,-0.18872 -2.10657,-0.0378 -4.00283,0.33526 -2.7487,0.54076 -3.67851,0.5342 -4.58571,-0.0322 -1.41147,-0.88147 -2.15184,-0.0269 -5.488872,6.33415 -1.868098,3.56111 -2.092658,4.28219 -1.181708,3.79467 0.618584,-0.33105 2.094426,-0.60946 3.279669,-0.61875 z m 1.874471,-1.68144 c 0,-0.30858 0.26736,-0.56106 0.59416,-0.56106 0.3268,0 0.43813,0.25248 0.24742,0.56106 -0.19073,0.30856 -0.45809,0.56105 -0.59417,0.56105 -0.13607,0 -0.24741,-0.25249 -0.24741,-0.56105 z m 11.2297,-2.38447 c 0.007,-1.0208 0.11271,-1.10131 0.55246,-0.42078 0.70296,1.08776 0.70296,1.68315 0,1.68315 -0.30858,0 -0.55718,-0.56808 -0.55246,-1.26237 z m -11.02956,-1.83055 c -0.17912,-0.46682 -0.01,-1.23034 0.3781,-1.69673 0.96205,-1.15919 1.33807,-0.62168 0.56959,0.81423 -0.8255,1.54244 -0.20117,1.49262 1.15581,-0.0922 l 1.08088,-1.26235 -0.66021,1.54287 c -0.72058,1.68398 -2.00843,2.03814 -2.52417,0.69416 z m 102.473195,1.97082 c 0,-0.30859 -0.25245,-0.56105 -0.56106,-0.56105 -0.30856,0 -0.56104,0.25246 -0.56104,0.56105 0,0.30856 0.25248,0.56105 0.56104,0.56105 0.30861,0 0.56106,-0.25249 0.56106,-0.56105 z M 35.668877,179.4537 c -0.664557,-0.81927 -0.654752,-0.87891 0.07155,-0.43535 0.462873,0.28267 1.977721,0.6761 3.366342,0.87432 l 2.524754,0.36036 -2.596324,0.0748 c -1.829084,0.0529 -2.823862,-0.20547 -3.366332,-0.8743 z m 9.504315,0.005 c 0.405015,-0.16194 0.888928,-0.14204 1.07536,0.0444 0.186442,0.18638 -0.144943,0.31903 -0.736385,0.29465 -0.653593,-0.0269 -0.786544,-0.15987 -0.338975,-0.33894 z m 59.812298,-59.4256 c 0.21936,-0.89463 1.25308,-3.64637 2.29718,-6.11501 1.04411,-2.46862 2.07008,-5.2031 2.27998,-6.07659 0.42258,-1.75881 1.7952,-2.6079 2.46471,-1.52471 0.31144,0.50394 0.84052,0.25583 1.90705,-0.89435 0.81181,-0.87548 1.47603,-1.78373 1.47603,-2.01833 0,-0.79089 3.05606,-0.43166 8.3161,0.97752 3.24944,0.87054 6.75549,1.40413 9.25747,1.4089 4.38793,0.008 6.5519,0.40156 6.5519,1.19055 0,0.27846 -0.60741,0.35387 -1.34979,0.16759 -0.83002,-0.20821 -1.91067,0.0288 -2.80632,0.61559 -0.83398,0.54642 -2.06319,0.83836 -2.87593,0.68299 -1.01124,-0.19338 -1.70048,0.0861 -2.39679,0.9712 -0.83708,1.0642 -1.33793,1.19445 -3.48879,0.90747 -2.22416,-0.29679 -2.53176,-0.5116 -2.68897,-1.878 -0.24235,-2.1062 -1.47757,-1.9637 -3.89015,0.44884 -1.39107,1.39106 -2.16944,1.81405 -2.58084,1.40264 -0.32403,-0.32403 -1.37455,-0.58913 -2.3345,-0.58913 -2.20304,0 -5.48414,3.39482 -7.71003,7.97719 -1.77824,3.66083 -3.05258,4.89181 -2.42831,2.34569 z m 7.3583,-11.46618 c 1.01766,-1.12449 1.01267,-1.13513 -0.30496,-0.64771 -0.73677,0.27253 -1.43677,0.787 -1.55552,1.14327 -0.34547,1.0364 0.73435,0.74879 1.86048,-0.49556 z m 63.77482,8.95544 c -1.01269,-1.82803 -1.72361,-3.32373 -1.57987,-3.32373 0.37964,0 3.86875,6.19987 3.62579,6.44279 -0.11259,0.11259 -1.03323,-1.29099 -2.04592,-3.11906 z M 30.611625,116.72279 c 0.946151,-1.69799 3.442905,-4.56556 3.41951,-3.92736 -0.01114,0.30859 -0.926014,1.57095 -2.032667,2.80523 -1.106652,1.23435 -1.730728,1.73929 -1.386843,1.12213 z m 84.798815,-1.89745 c 0,-0.30859 0.25248,-0.7171 0.56105,-0.9078 0.30859,-0.19065 0.56107,-0.0943 0.56107,0.21431 0,0.30859 -0.25248,0.71708 -0.56107,0.90778 -0.30857,0.19063 -0.56105,0.0943 -0.56105,-0.21429 z m -80.003832,-3.35092 c 1.187384,-1.33729 1.455951,-1.45946 1.455951,-0.66241 0,0.29772 -0.568072,0.83942 -1.262381,1.20373 -1.2556,0.65888 -1.25664,0.65599 -0.193561,-0.54132 z M 165.62188,109.7062 c -1.10129,-1.21692 -0.92453,-1.89281 0.36557,-1.39776 0.44198,0.16966 0.84117,0.80673 0.88702,1.41582 0.10375,1.37756 0.008,1.37619 -1.25259,-0.0172 z M 43.955589,107.19063 c -0.216028,-0.56292 0.1393,-0.95132 1.088213,-1.18947 1.809547,-0.45417 2.211513,-0.0316 1.062818,1.11695 -1.1297,1.12969 -1.737492,1.15019 -2.151031,0.0725 z m 114.150521,-1.15839 c -1.04956,-0.45553 -1.74997,-0.98657 -1.55644,-1.1801 0.19359,-0.1936 0.69331,-0.0684 1.11068,0.27788 0.41734,0.34639 1.74892,0.86196 2.95908,1.14573 1.54591,0.36247 1.78314,0.52616 0.79766,0.55033 -0.77145,0.019 -2.2614,-0.3383 -3.31098,-0.79384 z m -99.642911,-0.24996 c -0.617155,-0.26518 -2.763193,-0.53365 -4.768968,-0.59656 l -3.646868,-0.11429 2.772839,-0.38358 c 1.52506,-0.21098 3.869594,-0.13261 5.210076,0.1741 2.431066,0.55631 2.444358,0.55072 5.25308,-2.20645 1.548722,-1.5203 2.6391,-2.29731 2.423063,-1.72669 -0.474446,1.25319 -4.771818,5.39684 -5.560047,5.36114 -0.308577,-0.0154 -1.066008,-0.24238 -1.683175,-0.5076 z m 89.169991,-2.52386 c -1.72698,-2.26415 -3.85815,-2.65526 -4.34405,-0.7972 -0.21929,0.83848 -0.67151,1.11456 -1.60837,0.98183 -1.06565,-0.15096 -1.36082,-0.61572 -1.61885,-2.54893 -0.17365,-1.300333 -0.78075,-2.878281 -1.34933,-3.506565 -2.03108,-2.244306 0.50887,-1.231084 2.80275,1.118037 1.7282,1.769828 2.51384,2.199998 3.62046,1.982378 0.77731,-0.15284 2.17075,0.0962 3.09648,0.55338 0.92573,0.45724 1.24132,0.70923 0.70132,0.55998 -1.30501,-0.36072 -1.26746,0.94415 0.0617,2.14711 0.82986,0.75104 1.35451,0.82629 2.56127,0.36748 2.12723,-0.80877 2.54323,-0.6842 0.88353,0.2646 -2.1717,1.24143 -3.18458,1.00499 -4.807,-1.1221 z m -5.09598,-1.6652 c 0.17387,-0.453 0.0746,-0.97283 -0.22053,-1.15522 -0.29508,-0.18237 -0.53655,0.18831 -0.53655,0.82361 0,1.3547 0.31202,1.49137 0.75708,0.33161 z m -51.629745,2.1496 c -1.43462,-0.58547 -5.1755,-6.265885 -6.02074,-9.1423 -1.00674,-3.425961 -1.21456,-8.15655 -0.33442,-7.612585 0.30858,0.190635 0.56105,0.949822 0.56105,1.68694 0,2.148885 3.30846,10.688424 5.09818,13.159055 0.90284,1.24634 1.57683,2.24611 1.49775,2.22176 -0.0791,-0.0243 -0.4399,-0.1652 -0.80182,-0.31287 z m 26.856125,-2.30785 c 0.46413,-0.54 1.88163,-2.887915 3.14999,-5.217569 2.08982,-3.838331 2.52637,-5.436703 2.86567,-10.491818 0.0259,-0.38573 0.25723,-0.701334 0.51411,-0.701334 0.25686,0 0.35974,1.325487 0.22863,2.945504 -0.16401,2.02429 -1.02744,4.524797 -2.76121,7.994981 -2.7401,5.484526 -3.37922,6.452106 -4.26174,6.452106 -0.31864,0 -0.19957,-0.44184 0.26455,-0.98187 z m -49.574715,-0.98822 c 0.72041,-0.922234 2.23052,-2.434156 3.3558,-3.359923 l 2.04594,-1.683151 -1.61433,2.124116 c -0.88788,1.168241 -2.39798,2.680228 -3.35578,3.359908 l -1.74147,1.23581 z m 28.88875,-1.608881 c -3.20616,-1.758657 -8.00321,-7.622524 -10.26776,-12.551254 -0.60257,-1.311445 -1.2939,-2.383517 -1.5363,-2.382368 -1.88253,0.0086 -6.84757,5.058293 -7.74062,7.872023 -0.17941,0.565223 -1.51377,1.588396 -2.9653,2.273687 -1.4515,0.685328 -3.03035,1.57922 -3.50855,1.986446 -0.47818,0.407189 -1.94067,1.118327 -3.24998,1.580248 -1.920736,0.677677 -2.434552,0.699214 -2.660104,0.111377 -0.335647,-0.874692 0.46947,-5.676102 1.644874,-9.809447 0.91567,-3.219996 1.72788,-4.116992 4.96502,-5.483329 1.83439,-0.774307 2.21518,-1.298233 3.28927,-4.525789 0.66807,-2.00758 1.96983,-4.510191 2.89278,-5.561361 0.92295,-1.051162 1.49478,-1.911226 1.27074,-1.911226 -0.22404,0 -0.11428,-0.353076 0.24387,-0.784648 0.4322,-0.520774 0.53305,-1.983081 0.2999,-4.348142 -0.20005,-2.029222 -0.10375,-4.167417 0.22351,-4.966132 0.51949,-1.267623 0.57955,-1.159595 0.6241,1.122108 0.0832,4.264247 1.03624,7.103392 3.48228,10.374146 2.6098,3.489748 3.87124,3.771661 4.4397,0.992189 0.40419,-1.976142 2.45051,-4.024425 4.05015,-4.054013 1.23758,-0.02284 4.32033,-1.567748 4.32033,-2.165057 0,-0.238939 -0.27789,-0.712322 -0.61753,-1.051963 -0.97162,-0.971613 1.23902,-1.40819 3.994985,-0.788977 1.47165,0.330672 2.90636,0.337285 3.74793,0.01699 0.74993,-0.285126 1.88295,-0.518395 2.5178,-0.518395 0.97753,0 1.04409,0.13274 0.43464,0.867096 -0.3958,0.476921 -1.01769,0.752741 -1.38195,0.612953 -0.36427,-0.139739 -0.99765,-0.04689 -1.40751,0.206326 -0.4802,0.29679 0.23617,0.588481 2.01459,0.820317 4.67461,0.609346 5.24434,0.826135 7.48055,2.846376 1.69253,1.529105 2.25152,2.517259 2.55004,4.507806 0.45138,3.009872 1.23209,3.015447 2.82823,0.02122 1.01808,-1.910488 1.29269,-2.079072 2.96168,-1.818207 1.72122,0.26903 1.8295,0.190418 1.68318,-1.222704 -0.12814,-1.236809 0.0973,-1.545983 1.24474,-1.707696 1.34864,-0.189988 1.36457,-0.157115 0.42568,0.880358 -0.56505,0.624383 -1.34007,3.168827 -1.84217,6.048009 -1.20252,6.895599 -3.30033,10.617677 -8.63884,15.327673 -2.33759,2.062351 -4.37639,3.903899 -4.53066,4.092246 -0.15422,0.188322 -1.16421,0.792152 -2.24425,1.341709 -1.08003,0.54957 -2.56582,1.468449 -3.30174,2.041964 -1.79595,1.399622 -4.864425,1.283872 -7.737305,-0.291975 z m 10.805435,-16.1337 c 0.17103,-0.276646 1.07092,-0.05712 1.99991,0.487764 1.65938,0.97335 1.70799,0.967466 2.76669,-0.333769 1.27351,-1.565327 1.31915,-2.408579 0.29276,-5.408085 -1.19284,-3.485891 -3.25497,-4.301749 -10.02241,-3.96527 -5.260375,0.261543 -8.581655,1.187909 -9.875865,2.754591 -0.29515,0.357289 -0.70109,1.533282 -0.90207,2.613314 -0.29073,1.562203 -0.11695,2.229829 0.84995,3.265449 1.04066,1.114649 1.54975,1.24648 3.5413,0.917118 2.87974,-0.47627 3.19363,-0.656425 2.82361,-1.620683 -0.16219,-0.422629 -1.21129,-0.940361 -2.33134,-1.150483 -2.33709,-0.43843 -4.95998,-1.972483 -3.37253,-1.972483 0.51405,0 1.29254,-0.510991 1.73,-1.135543 0.67826,-0.968358 1.45224,-1.144069 5.255465,-1.193319 4.3843,-0.05678 6.91709,0.701592 6.91709,2.071102 0,0.916861 -1.17999,1.883503 -1.94219,1.591024 -1.22673,-0.470731 -2.2237,1.343881 -1.55031,2.821805 0.46648,1.0238 0.92331,1.254714 2.05447,1.038502 0.80004,-0.152845 1.59449,-0.504421 1.76547,-0.781034 z m -5.09643,-1.046221 c 0.19072,-0.30857 0.0793,-0.561046 -0.2474,-0.561046 -0.32681,0 -0.59418,0.252476 -0.59418,0.561046 0,0.308589 0.11126,0.561065 0.24742,0.561065 0.13607,0 0.40345,-0.252476 0.59416,-0.561065 z M 79.219535,78.848254 c -0.18921,-0.306153 -0.64471,-0.536672 -1.01222,-0.512312 -0.4824,0.03208 -0.48975,0.117502 -0.0265,0.307437 0.35297,0.144612 0.52496,0.819066 0.38219,1.49858 -0.23093,1.099142 -0.19004,1.126622 0.37046,0.249183 0.34651,-0.542453 0.47522,-1.236753 0.28601,-1.542888 z m 23.437525,-8.218291 c -0.37985,-0.153736 -1.13728,-0.163068 -1.68318,-0.02122 -0.54588,0.142294 -0.2351,0.267992 0.69065,0.279424 0.92574,0.01041 1.37237,-0.10496 0.99253,-0.25864 z m 38.31451,25.316927 c -0.59899,-0.45306 -1.72668,-0.823725 -2.50597,-0.823725 -0.77934,0 -2.4847,-0.407807 -3.78977,-0.906204 -1.91254,-0.730399 -2.44495,-1.247391 -2.74431,-2.664981 -0.61289,-2.902129 -2.2533,-5.03024 -5.24799,-6.808256 -1.66623,-0.98925 -2.83953,-2.087913 -2.84608,-2.664981 -0.0172,-1.413082 0.47504,-1.246463 3.83618,1.301716 3.1685,2.40211 4.7738,2.540065 4.46765,0.383929 -0.14119,-0.99378 -0.48968,-1.228896 -1.62634,-1.097066 -0.86217,0.100009 -1.99566,-0.309514 -2.80531,-1.013508 -1.07726,-0.936758 -1.12624,-1.07437 -0.23641,-0.664779 0.61716,0.284092 2.21472,0.65567 3.55013,0.825738 1.33542,0.169998 2.89749,0.733979 3.47123,1.253239 0.57378,0.519207 1.27298,0.802064 1.55378,0.628531 0.64878,-0.400963 3.08286,2.182005 4.2651,4.52595 1.05549,2.092628 2.66271,8.592164 2.11823,8.565991 -0.20398,-0.0097 -0.86112,-0.388546 -1.46012,-0.841594 z m -3.82015,-4.234988 c -0.54,-0.314518 -0.98184,-0.952922 -0.98184,-1.418657 0,-0.465759 -0.23504,-0.701574 -0.52229,-0.524025 -0.28727,0.177488 -0.68343,0.0621 -0.88035,-0.256565 -0.19699,-0.318658 -0.59935,-0.43024 -0.89424,-0.247958 -0.29493,0.182137 -0.4763,0.123168 -0.40309,-0.131061 0.0731,-0.254386 -0.20019,-1.064661 -0.60747,-1.800653 -0.56117,-1.013997 -0.85196,-1.157938 -1.20036,-0.594217 -0.70694,1.14386 0.85712,3.616269 2.93577,4.640665 2.09446,1.032192 4.23329,1.310706 2.55387,0.332543 z m -55.684915,-0.516097 -1.68317,-0.42829 1.82342,-0.06634 c 1.00289,-0.03656 1.82343,0.186193 1.82343,0.494669 0,0.308573 -0.0631,0.53118 -0.14028,0.494668 -0.0771,-0.03656 -0.89768,-0.259107 -1.82342,-0.494668 z M 124.94843,77.978 c 0,-0.48109 0.2525,-0.718659 0.56109,-0.527921 0.30857,0.190635 0.56104,0.584325 0.56104,0.874678 0,0.29037 -0.25247,0.527957 -0.56104,0.527957 -0.30859,0 -0.56109,-0.393639 -0.56109,-0.874714 z M 78.986045,68.4265 c 0.0269,-0.653597 0.15987,-0.786539 0.33897,-0.338976 0.16206,0.405014 0.14213,0.888908 -0.0443,1.075351 -0.18643,0.186393 -0.31904,-0.14504 -0.29467,-0.736375 z m 44.840285,-1.603296 c 0,-0.481071 0.25247,-0.87468 0.56106,-0.87468 0.30856,0 0.56104,0.237551 0.56104,0.527936 0,0.290361 -0.25248,0.683971 -0.56104,0.87469 -0.30859,0.190639 -0.56106,-0.04689 -0.56106,-0.527946 z M 77.706475,65.640365 c -1.49509,-2.503192 -3.30528,-8.384694 -2.97976,-9.681653 0.57449,-2.288932 1.34506,-2.988473 2.56989,-2.332973 1.20449,0.644628 0.91443,2.055339 -0.68994,3.355547 -1.02088,0.827349 -1.01057,0.95252 0.36796,4.470096 0.78006,1.990419 1.33552,3.867223 1.23436,4.170659 -0.11441,0.343211 -0.30433,0.350149 -0.50251,0.01913 z m 51.176655,0.167941 c 0.0218,-0.422313 3.30772,-6.807373 3.33112,-6.473147 0.0666,0.952042 -2.34546,6.613397 -2.81765,6.613397 -0.2864,0 -0.51748,-0.06322 -0.51347,-0.140373 z m -3.66337,-1.088028 c -0.20082,-0.521289 -0.1086,-1.404948 0.20504,-1.963673 0.5255,-0.936168 0.59896,-0.941536 0.93549,-0.06812 0.20082,0.52126 0.10859,1.404921 -0.20506,1.963674 -0.52549,0.936155 -0.59894,0.941509 -0.93547,0.06812 z m -17.94468,-3.821174 c -0.56195,-0.620952 -0.89549,-1.255222 -0.74117,-1.409509 0.15422,-0.154371 0.74028,0.227508 1.30225,0.848462 0.56193,0.620928 0.89547,1.25521 0.74118,1.409507 -0.15422,0.15437 -0.74031,-0.227531 -1.30226,-0.84846 z M 93.873395,58.707618 c 2.01405,-1.228114 4.14426,-5.218575 4.14426,-7.763336 0,-1.214854 -0.44664,-2.097139 -1.46859,-2.900995 -0.80772,-0.635356 -1.66768,-1.032136 -1.91103,-0.881737 -0.69865,0.431782 0.10012,2.723142 1.23056,3.530185 1.45378,1.03784 1.29594,1.455496 -0.95581,2.529259 -2.46624,1.176074 -5.40415,1.280067 -4.9806,0.17642 0.39804,-1.037242 -1.15508,-1.560301 -2.78876,-0.93921 -1.67111,0.635341 -2.5125,-0.133169 -2.16072,-1.973346 0.17763,-0.929122 0.74596,-1.485435 1.74011,-1.703345 0.812,-0.177913 2.10754,-0.524565 2.87899,-0.770231 1.21143,-0.385758 1.26822,-0.502193 0.41657,-0.854164 -1.34579,-0.556126 -4.67874,0.13063 -5.72856,1.180554 -0.77213,0.772122 -0.85963,0.740095 -0.85963,-0.3146 0,-0.708018 0.55687,-1.427924 1.40264,-1.81327 1.40077,-0.638228 1.90263,-1.581067 0.84159,-1.581067 -0.30859,0 -0.56106,0.252466 -0.56106,0.561035 0,0.308582 -0.49846,0.561049 -1.1077,0.561049 -1.66955,0 -2.97534,2.95557 -2.56321,5.801667 l 0.33791,2.33358 -0.794,-1.735021 c -0.43671,-0.954269 -0.97427,-2.802081 -1.19462,-4.10622 -0.27715,-1.640468 -0.63058,-2.282937 -1.14689,-2.084822 -1.20388,0.461958 -2.01186,-4.504571 -1.37023,-8.422403 0.48233,-2.945039 0.41618,-3.454548 -0.63358,-4.880513 -0.68706,-0.933285 -1.40762,-3.17902 -1.74123,-5.426628 l -0.56911,-3.834445 2.08123,-3.37184 c 1.87962,-3.045217 3.51576,-4.824107 7.55758,-8.216961 0.73521,-0.617157 1.15221,-0.806511 0.92666,-0.420787 -0.58619,1.002478 0.24552,0.86019 2.09345,-0.358149 0.87765,-0.578632 2.0511,-0.932981 2.60766,-0.78744 0.55655,0.145554 1.49301,0.0073 2.081,-0.307531 0.84137,-0.450276 1.21311,-0.341515 1.74528,0.51062 0.87174,1.395852 1.48196,1.365196 2.88906,-0.145126 0.96289,-1.033523 1.14397,-1.077931 1.14397,-0.280526 0,1.192101 2.00146,1.267194 2.45242,0.09202 0.223825,-0.583268 0.754065,-0.748488 1.666875,-0.519389 1.03964,0.260929 1.40659,0.07605 1.64296,-0.827797 0.22522,-0.86128 0.75548,-1.163765 2.04003,-1.163765 0.95463,0 1.73569,-0.246222 1.73569,-0.547165 0,-0.885542 2.97499,0.460882 4.02202,1.820293 0.69253,0.899163 0.79021,1.488232 0.37533,2.263442 -0.77776,1.453233 -0.16812,1.84127 1.49461,0.951384 1.60876,-0.860971 1.82211,-1.962404 0.4799,-2.477454 -0.50704,-0.194558 -0.79709,-0.478537 -0.64457,-0.631048 0.37783,-0.377846 5.02022,1.735206 4.91959,2.239237 -0.0441,0.221197 0.10751,0.570494 0.33696,0.77621 0.22949,0.20573 0.23562,0.05845 0.0121,-0.327278 -0.222,-0.385722 -0.29329,-0.701314 -0.15834,-0.701314 0.72444,0 4.75703,1.95368 5.91872,2.867454 0.74112,0.582949 1.78207,1.059903 2.31324,1.059903 0.53118,0 2.0751,0.850891 3.43095,1.890865 2.91984,2.239595 3.86781,4.739018 3.86781,10.19765 0,3.611244 -0.27239,4.489619 -3.64593,11.756163 -0.83977,1.808888 -1.96463,8.512983 -1.96463,11.709207 0,1.076025 -0.37872,2.33512 -0.84158,2.797986 -0.927,0.927001 -1.13455,2.964914 -0.33193,3.259439 0.99099,0.363621 0.92169,2.38463 -0.0889,2.592276 -0.709,0.145674 -0.98508,-0.16053 -0.99354,-1.101754 -0.005,-0.716921 -0.34234,-2.881473 -0.7465,-4.810077 -0.7413,-3.537519 -0.40143,-4.449766 0.88839,-2.384468 0.86658,1.387592 1.55297,1.445141 1.55297,0.1302 0,-1.377505 -2.67322,-5.179701 -3.64167,-5.179701 -1.12943,0 -1.7098,-3.715749 -0.92106,-5.896913 0.51526,-1.424949 0.47461,-2.272219 -0.20081,-4.186884 -0.46584,-1.320224 -0.84693,-2.912905 -0.84693,-3.539281 0,-0.626376 -0.64801,-1.988423 -1.44002,-3.026777 -2.71366,-3.557746 -3.25777,-3.708272 -15.02445,-4.156664 -11.459885,-0.436715 -16.202845,0.09437 -18.371465,2.056887 -1.90294,1.722103 -3.87703,5.696583 -3.87703,7.805654 0,1.122516 -0.25513,2.517641 -0.56695,3.100279 -0.31183,0.58265 -0.72957,2.615244 -0.92834,4.516867 -0.3607,3.450918 -0.35884,3.456703 0.97689,3.032773 0.73606,-0.23362 2.01639,-0.926093 2.84517,-1.538857 1.30995,-0.968453 2.16652,-1.082534 6.55336,-0.872801 3.01689,0.144198 5.40499,0.538831 5.93795,0.981144 1.06029,0.879951 1.18491,2.807211 0.19017,2.940989 -0.38572,0.05201 0.81353,0.244946 2.665025,0.429052 3.83297,0.381142 4.51051,0.236734 3.66566,-0.781241 -0.92597,-1.115728 1.01227,-3.079144 3.62807,-3.675184 2.95117,-0.672459 9.65322,0.355272 11.42975,1.752693 0.73996,0.582032 1.8014,1.058264 2.35875,1.058264 0.55734,0 1.14808,0.218 1.31275,0.484466 0.40969,0.662845 -1.2865,8.636941 -1.98541,9.333927 -0.35049,0.349531 -0.33775,-0.03442 0.0336,-1.018349 0.9324,-2.469439 0.73069,-6.265644 -0.40765,-7.671392 -0.71385,-0.881552 -1.80828,-1.317171 -3.78713,-1.507365 -2.06013,-0.198048 -2.56452,-0.113011 -1.94157,0.327533 0.72621,0.513458 0.70697,0.596226 -0.14034,0.603655 -0.54003,0.0046 -0.98187,-0.236489 -0.98187,-0.535985 0,-0.324335 -0.96425,-0.395727 -2.38449,-0.176643 -1.31149,0.202302 -2.99129,0.345544 -3.7329,0.318039 -0.88103,-0.03266 -1.09918,0.103919 -0.62942,0.394356 0.3954,0.244362 0.5618,0.698561 0.36974,1.009298 -0.19206,0.310761 0.008,0.702247 0.44567,0.870002 0.43714,0.167734 0.87755,0.868729 0.97863,1.557728 0.10109,0.689006 0.52585,1.365499 0.94398,1.503304 0.54934,0.181099 0.65556,-0.07908 0.38298,-0.937872 -0.32675,-1.029441 -0.15302,-1.188484 1.29765,-1.188484 1.49557,0 7.37765,2.483773 7.37765,3.115303 0,0.653819 -2.2711,0.143993 -3.11419,-0.699086 -0.89276,-0.89276 -0.99592,-0.887417 -1.70948,0.0884 -0.6526,0.892453 -0.62336,1.138038 0.2078,1.7458 1.49382,1.092307 0.6833,1.312968 -2.5013,0.680947 -2.00296,-0.397478 -3.55471,-1.16854 -4.98118,-2.475116 l -2.07194,-1.897789 0.38143,2.385741 c 0.20979,1.312152 0.74818,3.121027 1.19646,4.019701 0.44827,0.898692 0.70816,1.740855 0.57753,1.871473 -0.37821,0.378212 -1.56923,-2.121819 -2.6055,-5.469108 -0.80886,-2.612794 -1.18107,-3.11306 -2.4281,-3.263636 -1.02482,-0.123837 -1.57956,0.132328 -1.823765,0.84159 -1.53288,4.452518 -3.34944,7.590376 -4.97628,8.595803 -0.99662,0.615936 -2.03471,1.118946 -2.30687,1.117803 -0.27217,-0.0011 0.29124,-0.481422 1.25201,-1.067276 z m -3.14947,-9.590592 c 0.68419,-0.442175 0.61168,-0.545479 -0.38769,-0.552467 -0.67609,-0.0046 -1.3853,0.243884 -1.57601,0.552467 -0.44148,0.714305 0.85834,0.714305 1.9637,0 z M 129.98936,36.60052 c -0.005,-0.99936 -0.11017,-1.071872 -0.55246,-0.387683 -0.71432,1.105338 -0.71432,2.40516 0,1.963687 0.30859,-0.190723 0.55719,-0.899919 0.55246,-1.576004 z m -48.324165,0.419267 c 0.10932,-0.09668 0.10932,-0.431546 0,-0.744177 -0.10932,-0.312626 -0.82989,-0.06006 -1.60135,0.561151 l -1.40263,1.129576 1.40263,-0.385395 c 0.77146,-0.211963 1.49207,-0.464488 1.60135,-0.561155 z m -0.47923,-20.792966 c 0,-0.745523 -0.15232,-0.783861 -0.84158,-0.211839 -0.46287,0.384147 -0.84159,0.793771 -0.84159,0.910273 0,0.11651 0.37872,0.21184 0.84159,0.21184 0.46286,0 0.84158,-0.409626 0.84158,-0.910274 z M 110.92197,9.863168 c 0,-0.912265 -1.89117,-1.614782 -3.5126,-1.304832 -2.29867,0.439414 -1.85426,1.191992 0.84756,1.435336 1.31149,0.118108 2.44763,0.258876 2.52477,0.312784 0.077,0.05392 0.14033,-0.145571 0.14033,-0.443288 z M 84.836805,58.66128 c -0.19656,-0.318052 0.0287,-0.412094 0.52794,-0.22051 0.97198,0.372973 1.14982,0.775131 0.34278,0.775131 -0.29037,0 -0.6822,-0.249588 -0.87072,-0.554621 z m 34.220505,-1.128534 c 0.55854,-0.61715 1.14176,-1.122108 1.29604,-1.122108 0.15439,0 -0.17642,0.504958 -0.73497,1.122108 -0.55852,0.617162 -1.14175,1.12212 -1.29604,1.12212 -0.15439,0 0.17644,-0.504958 0.73497,-1.12212 z m 11.49826,0.420795 c -8.6e-4,-0.385725 -0.38802,-1.438723 -0.85802,-2.339996 -0.57289,-1.098573 -0.66858,-1.824635 -0.29032,-2.202893 0.91614,-0.91614 2.83495,1.245823 2.83495,3.194185 0,1.614785 -0.0425,1.646763 -0.81367,0.614348 -0.78586,-1.051836 -0.80281,-1.04591 -0.4956,0.17325 0.17493,0.694303 0.16246,1.262361 -0.0278,1.262361 -0.19022,0 -0.34753,-0.315579 -0.34941,-0.701314 z m -51.223415,-3.35557 c -0.29119,-2.171085 -0.14173,-3.221884 0.37398,-2.628993 0.44439,0.510943 0.78399,5.002731 0.37821,5.002731 -0.23859,0 -0.57707,-1.068187 -0.75219,-2.373738 z m 30.467695,1.251618 c -0.46288,-0.299133 -0.58911,-0.543866 -0.28052,-0.543866 0.30857,0 0.93978,0.244733 1.40264,0.543866 0.46287,0.299123 0.5891,0.543881 0.28054,0.543881 -0.30859,0 -0.93978,-0.244758 -1.40266,-0.543881 z M 94.952765,9.282333 c 0.71598,-2.812241 5.060165,-4.764284 7.730365,-3.473613 1.09526,0.529403 0.99791,0.596451 -0.91523,0.630385 -2.557815,0.04541 -4.144185,0.793781 -5.882035,2.774981 l -1.2902,1.470879 z"
       id="path12"
       inkscape:connector-curvature="0" />
  </g>
</svg>
