<?xml version="1.0" encoding="UTF-8" standalone="no"?>
<!-- Created with Inkscape (http://www.inkscape.org/) -->

<svg
   xmlns:dc="http://purl.org/dc/elements/1.1/"
   xmlns:cc="http://creativecommons.org/ns#"
   xmlns:rdf="http://www.w3.org/1999/02/22-rdf-syntax-ns#"
   xmlns:svg="http://www.w3.org/2000/svg"
   xmlns="http://www.w3.org/2000/svg"
   xmlns:sodipodi="http://sodipodi.sourceforge.net/DTD/sodipodi-0.dtd"
   xmlns:inkscape="http://www.inkscape.org/namespaces/inkscape"
   width="210mm"
   height="297mm"
   viewBox="0 0 210 297"
   version="1.1"
   id="svg32"
   inkscape:version="0.92.3 (2405546, 2018-03-11)"
   sodipodi:docname="drawing-1.svg">
  <defs
     id="defs26" />
  <sodipodi:namedview
     id="base"
     pagecolor="#ffffff"
     bordercolor="#666666"
     borderopacity="1.0"
     inkscape:pageopacity="0.0"
     inkscape:pageshadow="2"
     inkscape:zoom="0.35"
     inkscape:cx="400"
     inkscape:cy="560"
     inkscape:document-units="mm"
     inkscape:current-layer="layer1"
     showgrid="false"
     inkscape:window-width="1321"
     inkscape:window-height="713"
     inkscape:window-x="45"
     inkscape:window-y="27"
     inkscape:window-maximized="1" />
  <metadata
     id="metadata29">
    <rdf:RDF>
      <cc:Work
         rdf:about="">
        <dc:format>image/svg+xml</dc:format>
        <dc:type
           rdf:resource="http://purl.org/dc/dcmitype/StillImage" />
        <dc:title></dc:title>
      </cc:Work>
    </rdf:RDF>
  </metadata>
  <g
     inkscape:label="Layer 1"
     inkscape:groupmode="layer"
     id="layer1">
    <path
       style="fill:#ffffff;stroke-width:0.26458338"
       d="m 76.993764,304.30428 c -0.648811,-0.71688 -1.033896,-1.44922 -0.855763,-1.62737 0.178147,-0.17825 0.854739,0.26268 1.50354,0.97962 0.648811,0.71692 1.033912,1.44923 0.855763,1.62737 -0.178133,0.17825 -0.854726,-0.26267 -1.50354,-0.97962 z m 56.032886,-1.8756 c 0.53442,-0.29737 1.8462,-0.71379 2.91503,-0.92538 l 1.94334,-0.38465 -1.94334,0.91583 c -2.18633,1.03034 -4.65929,1.36477 -2.91503,0.3942 z m 12.95559,-0.99314 c 0,-0.52351 2.03567,-2.31349 2.63104,-2.31349 0.32735,0 0.096,0.58301 -0.51412,1.29556 -1.0094,1.17893 -2.11692,1.71148 -2.11692,1.01793 z m -17.4522,-2.92772 c 0.9115,-0.27657 2.369,-0.88564 3.2389,-1.35345 0.86988,-0.46786 3.18487,-0.908 5.14439,-0.97817 1.95954,-0.07 2.9798,0.005 2.26725,0.16577 -0.71258,0.16134 -3.14815,0.8528 -5.41244,1.5367 -2.26425,0.68389 -4.74201,1.2184 -5.50612,1.18779 -1.22535,-0.049 -1.19372,-0.11515 0.26802,-0.55856 z m -14.28896,-6.58757 c 1.24696,-0.37193 4.01621,-1.21002 6.1539,-1.8624 2.13766,-0.65241 3.97966,-1.09458 4.0933,-0.98259 0.42371,0.41744 -6.79095,2.7803 -9.59943,3.14389 -2.81855,0.36491 -2.83999,0.35499 -0.64777,-0.2989 z m 30.80188,-3.07459 c 0.60247,-0.54795 6.18545,-2.08034 7.21809,-1.98117 0.75427,0.0725 -5.77367,2.4308 -6.89418,2.49068 -0.5692,0.0303 -0.69684,-0.17039 -0.32391,-0.50951 z m -24.56667,-3.01429 c -0.52825,-0.52827 -1.28191,-0.96044 -1.67484,-0.96044 -0.39291,0 -0.87094,-0.40801 -1.0623,-0.9067 -0.2401,-0.62569 -1.41568,-0.89707 -3.7935,-0.87569 -2.46213,0.022 -3.97482,-0.34502 -5.2998,-1.28643 -4.0257,-2.86026 -11.441113,-4.56655 -13.721355,-3.15728 -1.092491,0.67522 -7.890153,1.15314 -7.890153,0.55476 0,-0.30105 0.361939,-0.90927 0.80431,-1.35166 1.150302,-1.15032 -0.371915,-1.95717 -3.197022,-1.6946 -1.78744,0.16624 -2.085708,0.038 -1.513829,-0.65127 0.527709,-0.63585 0.418912,-1.47325 -0.419963,-3.23239 -0.959712,-2.01255 -0.993055,-2.4602 -0.218829,-2.9387 1.791518,-1.10725 -1.835864,-3.05842 -6.442231,-3.46533 -5.980073,-0.52826 -13.504442,-2.02507 -16.509225,-3.28415 -1.794166,-0.7518 -3.404279,-0.94456 -5.395589,-0.64594 -2.625778,0.39377 -3.01634,0.25506 -5.21606,-1.85246 -2.785329,-2.66854 -4.745767,-3.405 -6.526836,-2.45179 -0.917062,0.49078 -1.748783,0.47442 -2.916029,-0.0574 -1.70524,-0.77695 -5.374293,-5.50011 -4.754258,-6.12015 0.196352,-0.19635 0.847257,0.46478 1.446456,1.46923 1.76893,2.96522 4.067958,4.37023 5.834197,3.5655 2.133209,-0.97195 4.187828,-0.28248 6.926866,2.32447 2.10412,2.00266 2.672657,2.22682 4.780214,1.88481 1.634342,-0.26522 4.160943,0.13859 7.976312,1.27469 5.342628,1.5909 6.592056,1.6867 28.876103,2.21432 28.072141,0.66459 29.795191,0.43991 12.983781,-1.69337 -8.995997,-1.14155 -11.668651,-1.82377 -11.052224,-2.82116 0.176098,-0.28495 -1.084721,-0.38308 -2.801851,-0.21814 -4.958109,0.47641 -20.57178,-1.16586 -29.871019,-3.14189 -1.603253,-0.34066 -5.339823,-0.89411 -8.303498,-1.22986 -2.963669,-0.33573 -6.607424,-1.17475 -8.097239,-1.86446 -1.489806,-0.68971 -3.947626,-1.58639 -5.461807,-1.99266 -1.514184,-0.40624 -2.753061,-0.99999 -2.753061,-1.31942 0,-0.31941 1.967629,0.0171 4.372509,0.74602 6.264542,1.90086 8.661882,1.88772 9.638602,-0.0529 0.906478,-1.80104 4.204337,-3.40416 5.436446,-2.64266 0.832004,0.51419 1.688968,0.37826 4.196379,-0.66562 0.712557,-0.29666 2.60731,-0.71375 4.210566,-0.92685 5.637887,-0.74945 6.708307,-0.97956 7.077205,-1.52147 0.638109,-0.93735 5.926748,-2.7714 6.66895,-2.31272 0.421648,0.2606 0.519334,0.13515 0.242961,-0.31203 -0.292206,-0.47282 0.02841,-0.74788 0.871588,-0.74788 0.733584,0 1.333783,-0.28594 1.333783,-0.63543 0,-0.34949 0.70766,-0.81306 1.57258,-1.03013 0.864923,-0.21716 1.737358,-0.82412 1.938761,-1.34896 0.20139,-0.52484 0.641837,-0.78392 0.978726,-0.57569 0.336904,0.2081 0.91309,-0.1376 1.280429,-0.76867 0.367351,-0.63097 0.676768,-0.7888 0.687594,-0.35067 0.01347,0.53606 0.7082,0.37981 2.124988,-0.47779 1.157896,-0.70087 2.834037,-1.56928 3.724733,-1.92978 0.890696,-0.36051 2.056699,-0.94897 2.591115,-1.30775 0.534413,-0.35874 1.408911,-0.81989 1.943338,-1.02474 0.534416,-0.20492 1.700419,-0.69112 2.591115,-1.0806 0.890694,-0.38947 1.895731,-0.63802 2.233431,-0.55236 0.54634,0.13858 6.31268,-2.02841 10.72215,-4.02945 0.8907,-0.4042 2.76505,-1.6876 4.16522,-2.852 1.40018,-1.16442 2.81269,-2.11713 3.1389,-2.11713 0.32624,0 1.41328,-0.58401 2.41572,-1.2978 1.00242,-0.71377 2.28629,-1.11984 2.85305,-0.90235 0.57901,0.22204 1.03049,0.0644 1.03049,-0.35988 0,-0.41543 0.31921,-0.55805 0.70934,-0.31692 0.39016,0.24117 1.54436,-0.17897 2.56491,-0.93344 2.33796,-1.72852 4.45282,-1.73765 7.34424,-0.0315 1.81501,1.07089 2.89629,1.25762 5.38121,0.92933 2.95542,-0.39043 2.79463,-0.26564 -3.2391,2.51409 -3.49187,1.6087 -7.42713,3.59163 -8.74501,4.40649 -1.31789,0.81487 -4.58241,2.39338 -7.2545,3.50785 -2.6721,1.11444 -6.7531,2.81836 -9.0689,3.78647 -2.31581,0.96813 -4.57324,2.10927 -5.0165,2.53589 -0.44326,0.42662 -0.99618,3.02638 -1.22872,5.7772 -0.41973,4.96557 -0.41161,5.00149 1.12982,4.9896 4.49016,-0.0348 13.82643,0.75639 14.70071,1.24568 1.11205,0.62234 4.40288,-0.26678 5.97122,-1.61328 0.74041,-0.63569 3.16849,-0.77168 9.88595,-0.5536 4.89749,0.15889 9.11982,0.33578 9.38299,0.39287 0.26316,0.0571 1.20722,-0.0793 2.09792,-0.30293 2.83851,-0.71291 9.0806,-0.95873 9.44329,-0.37186 0.19243,0.31134 1.03711,0.56609 1.87711,0.56609 0.83998,0 1.63461,0.32213 1.76584,0.7158 0.28456,0.85368 4.84733,2.64672 6.64118,2.60977 0.69615,-0.0147 1.57066,0.21447 1.94334,0.50822 0.3727,0.29387 1.25523,0.44186 1.96121,0.32891 0.70596,-0.11285 1.75004,0.21667 2.32017,0.73272 0.57014,0.51598 1.74153,0.91584 2.60311,0.88861 2.41674,-0.0764 3.88146,0.37277 4.52337,1.38713 0.32767,0.51775 0.59044,0.60236 0.596,0.19195 0.005,-0.40377 0.59153,-0.88626 1.30236,-1.07215 1.11842,-0.29245 1.23613,-0.10625 0.87393,1.38193 -0.23014,0.94598 -0.84679,1.97265 -1.37019,2.28147 -0.79639,0.46993 -0.80687,0.65323 -0.0641,1.12371 1.43028,0.90603 3.63166,0.66586 4.05706,-0.44264 0.69641,-1.81487 0.42508,-2.30948 -1.06432,-1.94 -0.80163,0.1988 -1.09313,0.19414 -0.64778,-0.009 0.44535,-0.20468 0.80972,-0.93062 0.80972,-1.61348 0,-0.78632 0.44963,-1.24158 1.22627,-1.24158 1.27426,0 2.28683,1.62339 1.65263,2.64958 -0.20028,0.32413 -0.0348,0.58931 0.36805,0.58931 0.40938,0 0.26231,0.46998 -0.33354,1.0658 -1.68668,1.68672 0.19195,2.35647 2.33306,0.83181 2.13987,-1.52373 2.60883,-1.56934 2.08443,-0.20272 -0.33918,0.88392 -0.19121,0.93435 0.94943,0.32389 1.92416,-1.02978 1.92974,-1.02417 2.18552,2.19186 0.12753,1.60326 0.10598,2.91503 -0.0479,2.91503 -0.15399,0 -2.44514,-0.74738 -5.09157,-1.66082 -2.64644,-0.9134 -4.90365,-1.56883 -5.01603,-1.45646 -0.671,0.67101 1.95079,2.70966 4.0312,3.13461 1.35312,0.27638 4.79224,1.09049 7.64249,1.80914 2.85024,0.71866 5.98386,1.48173 6.96362,1.69575 1.95886,0.42788 2.45461,1.67672 0.64777,1.63179 -0.62349,-0.0148 -2.42318,-0.27715 -3.99932,-0.58142 -2.17233,-0.41934 -3.08476,-0.33412 -3.771,0.35211 -0.49791,0.49789 -0.66583,0.90958 -0.37319,0.91484 0.29268,0.005 -0.16796,0.36963 -1.02375,0.80974 -2.10938,1.08484 -3.15992,2.82127 -2.25457,3.72663 0.38219,0.38219 2.78993,0.8705 5.35054,1.08521 6.84889,0.57417 6.22041,1.36406 -0.79343,0.99719 -5.87552,-0.30731 -6.1773,-0.2512 -12.68186,2.35844 -3.66474,1.47029 -7.00112,2.67325 -7.41416,2.67325 -0.41305,0 -1.89673,0.61407 -3.29708,1.36461 -3.43361,1.84031 -7.93459,3.15431 -10.83399,3.16283 -1.31285,0.005 -3.06185,0.25583 -3.88668,0.55994 -0.8248,0.30411 -2.35219,0.7597 -3.39417,1.0124 -1.56461,0.37949 -1.76557,0.30408 -1.15391,-0.43291 0.40735,-0.49083 3.15463,-1.26749 6.10508,-1.72596 5.2753,-0.8197 12.35737,-2.91658 13.94754,-4.12962 1.38288,-1.05494 0.92275,-2.06793 -2.51922,-5.54624 -3.44385,-3.48023 -4.68379,-3.78146 -6.49118,-1.57708 -0.76725,0.93575 -0.69399,1.01402 0.62988,0.67273 1.47199,-0.37949 1.46858,-0.35885 -0.19538,1.18319 -1.99504,1.84896 -2.38122,1.95366 -1.82097,0.49366 0.32181,-0.83865 0.12187,-0.99978 -0.90616,-0.73086 -0.94223,0.24638 -1.29726,0.0448 -1.24288,-0.70562 0.0419,-0.57779 0.36761,-1.29275 0.72389,-1.58874 0.35769,-0.29723 -0.12241,-0.37113 -1.07216,-0.16502 -1.47518,0.32009 -1.67214,0.19047 -1.384,-0.91141 0.48214,-1.84378 -1.54593,-2.41533 -3.85933,-1.08762 -2.09163,1.20041 -5.37207,1.43859 -5.99231,0.43505 -0.2201,-0.35626 -2.08754,-0.64778 -4.14967,-0.64778 -4.10778,0 -7.03856,1.64968 -6.30892,3.55108 0.53157,1.38528 -0.86724,4.21143 -2.11513,4.27345 -0.66935,0.0333 -0.7463,0.16549 -0.21987,0.37785 1.40281,0.56602 0.96361,2.35344 -0.48518,1.97458 -1.67274,-0.43743 -2.05196,0.25297 -2.05196,3.73592 v 2.84967 l -3.34685,0.33623 c -9.98142,1.0028 -13.31801,1.01592 -14.2778,0.056 z m 2.18591,-1.23135 c 0,-0.5053 0.19512,-1.45264 0.43374,-2.10529 0.41861,-1.14525 0.38627,-1.14498 -0.928,0.007 -0.74894,0.65696 -1.20443,1.60436 -1.01221,2.10529 0.45409,1.18327 1.50647,1.17777 1.50647,-0.007 z m 2.94163,-0.41997 c 0.75961,-1.22907 -0.34824,-1.53236 -1.47642,-0.40418 -1.00985,1.00984 -1.01161,1.09506 -0.0221,1.09506 0.58973,0 1.26438,-0.31089 1.49923,-0.69088 z m 49.42043,-19.22833 c 0.32191,-0.6235 0.78437,-2.23604 1.02768,-3.58346 0.43751,-2.42284 0.42237,-2.44514 -1.37223,-2.02166 -2.5321,0.5975 -3.1617,1.35004 -1.55594,1.8597 1.49214,0.47357 1.72439,1.69364 0.6902,3.62604 -0.43893,0.82013 -0.44682,1.25299 -0.0221,1.25299 0.35629,0 0.91116,-0.51012 1.23308,-1.13361 z m 4.49404,-7.81383 c 0.38866,-1.16594 -0.95027,-0.92093 -1.40213,0.25656 -0.24214,0.63088 -0.0972,0.92702 0.37606,0.76923 0.4233,-0.14102 0.88505,-0.60273 1.02607,-1.02579 z m -65.92501,-1.7355 c 0,-0.48937 -0.51012,-1.02734 -1.13361,-1.19548 -2.14069,-0.57729 -5.99196,-0.38953 -5.99196,0.2921 0,0.37514 0.36437,0.55592 0.80972,0.40174 0.44536,-0.15424 1.80386,0.24711 3.0189,0.89172 2.30979,1.22538 3.29695,1.1086 3.29695,-0.39008 z m 3.88668,1.24756 c 0,-1.20972 -1.44962,-2.77263 -2.27711,-2.4551 -1.32042,0.50668 -1.2114,2.01356 0.17182,2.37504 1.76504,0.46125 2.10529,0.47421 2.10529,0.0801 z m -28.470789,-1.29493 c 5.590398,0.27132 6.025306,0.19782 7.486293,-1.26306 1.769986,-1.76997 1.996451,-2.90554 0.579446,-2.90554 -0.534414,0 -0.971669,-0.25842 -0.971669,-0.57428 0,-0.81424 -3.486658,-1.39579 -8.572643,-1.42982 -2.399139,-0.0171 -4.510969,-0.2701 -4.692955,-0.56455 -0.304368,-0.49248 -1.952468,-0.22206 -6.167781,1.01192 -2.437963,0.71373 -4.574275,2.26377 -4.124026,2.99229 0.24393,0.39469 0.615995,0.3041 0.956183,-0.23283 0.306295,-0.48339 0.561361,-0.57284 0.566817,-0.19881 0.0054,0.3741 -0.339881,1.02998 -0.767427,1.4575 -0.604586,0.60461 -0.04632,0.77733 2.511812,0.77733 2.112639,0 3.573531,0.3427 4.084245,0.95807 0.57938,0.69812 1.118172,0.78518 1.985812,0.32083 0.655828,-0.35099 3.856863,-0.50785 7.125893,-0.34917 z m 90.112789,-1.4352 c -0.6161,-0.20542 -0.628,-0.48138 -0.0506,-1.17694 0.5944,-0.71622 0.53152,-0.90869 -0.29685,-0.90869 -1.1203,0 -1.28963,0.56774 -0.65921,2.21052 0.21545,0.56152 0.71123,0.82348 1.10171,0.58215 0.49429,-0.30547 0.46544,-0.52026 -0.0949,-0.70704 z m -74.26273,-11.45074 c 1.10879,-3.04018 1.57184,-5.27658 1.28173,-6.1906 -0.72689,-2.29022 -1.89874,-0.36834 -3.16535,5.19126 -0.60876,2.67207 -1.28013,5.43903 -1.49194,6.14879 -0.33111,1.10967 -0.24321,1.17277 0.62727,0.45032 0.5568,-0.46209 1.79352,-2.98201 2.74829,-5.59977 z m -4.901427,2.58328 c 0.726617,-0.44907 1.296547,-1.63281 2.228967,-4.62949 0.3771,-1.21199 0.21829,-1.3335 -1.37102,-1.04905 -0.988627,0.177 -2.234755,0.69433 -2.769169,1.14974 -0.534416,0.45543 -1.697442,0.9275 -2.584503,1.04905 -1.617075,0.22157 -2.375315,1.74096 -1.720484,3.44745 0.354126,0.92283 4.73843,0.9456 6.216209,0.0323 z m 65.113827,31.36492 c -0.59496,-0.96269 -0.12174,-1.30347 0.91775,-0.66101 0.5569,0.3442 0.62315,0.67802 0.18801,0.947 -0.36969,0.22844 -0.86725,0.0999 -1.1057,-0.28599 z M 16.426418,258.23201 c 1.603255,-0.38313 3.352259,-1.01604 3.886675,-1.40645 0.863709,-0.63098 0.863709,-0.59117 0,0.35827 -0.534416,0.58745 -2.28342,1.22038 -3.886675,1.40647 l -2.915008,0.33833 z m -3.360353,-2.30588 c 0.467624,-0.18705 1.026326,-0.16404 1.241581,0.0512 0.215206,0.21521 -0.167219,0.36835 -0.850221,0.34022 -0.754613,-0.0311 -0.908123,-0.1846 -0.39136,-0.39136 z m 3.238894,-0.64778 c 0.46762,-0.18705 1.026329,-0.16403 1.241579,0.0512 0.215254,0.2152 -0.167341,0.36834 -0.85021,0.34021 -0.754624,-0.0311 -0.908123,-0.1846 -0.391369,-0.39136 z M 2.3255711,234.34415 c 0,-1.24696 0.133439,-1.75709 0.296244,-1.13361 0.162813,0.62349 0.162813,1.64374 0,2.26723 -0.163055,0.62348 -0.296244,0.11339 -0.296244,-1.13362 z m -0.669634,-7.44946 c -0.07859,-2.49394 -0.323199,-5.70044 -0.543816,-7.12555 -0.30344297,-1.96011 -0.21691997,-2.41946 0.355737,-1.88625 0.508782,0.47385 0.687042,2.8095 0.543818,7.12559 -0.174564,5.25823 -0.238955,5.59971 -0.355739,1.88621 z M 154.24144,215.12956 c 0.44535,-0.17971 1.17408,-0.17971 1.61945,0 0.44534,0.17971 0.0811,0.32673 -0.80973,0.32673 -0.89071,0 -1.25507,-0.14715 -0.80972,-0.32673 z m 7.18093,-1.68186 c 1.17815,-0.56665 1.43536,-1.09442 1.1626,-2.38533 -0.19268,-0.91175 -0.61075,-3.05657 -0.92913,-4.76632 -0.3184,-1.70974 -0.84157,-3.35359 -1.16263,-3.65301 -1.21215,-1.13048 -8.06531,-2.63119 -12.01955,-2.63204 -2.26098,-5.3e-4 -6.58862,-0.43735 -9.61699,-0.97081 -8.29688,-1.46148 -14.75781,-1.21781 -26.66152,1.0055 -20.446671,3.81887 -28.70991,4.75607 -37.571124,4.26107 -13.895998,-0.77623 -17.727075,-1.12465 -23.902995,-2.1739 l -6.191583,-1.05191 0.791104,-3.04977 c 0.898697,-3.46456 1.077245,-5.04918 0.975407,-8.65677 -0.05986,-2.12008 -0.553804,-3.00212 -2.986675,-5.33323 -4.004169,-3.83667 -8.510989,-5.96221 -15.125784,-7.13375 -11.100661,-1.96603 -18.5093097,0.25053 -22.0133889,6.58607 -1.013767,1.83295 -0.928395,0.0473 0.117521,-2.45567 0.973076,-2.32895 4.8779179,-5.32461 8.2519679,-6.33067 3.242829,-0.96695 11.35351,-0.77884 15.814195,0.36673 5.762961,1.48003 11.534698,4.52647 14.231792,7.51183 1.313008,1.45336 2.484101,2.54366 2.602426,2.4229 0.557575,-0.56905 0.705781,-7.53859 0.192362,-9.04666 -1.236474,-3.63195 -9.449244,-8.5175 -16.144375,-9.60389 -5.216592,-0.84644 -11.256409,-0.86392 -14.12629,-0.0409 -1.222804,0.35069 -3.36517,1.55525 -4.760774,2.67681 -2.110044,1.69568 -2.4091757,1.79941 -1.775777,0.6159 0.418954,-0.78282 0.873652,-1.91452 1.010438,-2.51489 0.13686,-0.60035 0.815163,-3.42359 1.507517,-6.27379 0.692354,-2.85024 1.460337,-6.42203 1.706636,-7.93734 0.355492,-2.18716 0.769817,-2.83591 2.009959,-3.14716 1.434816,-0.36012 1.562165,-0.71028 1.562165,-4.29533 0,-2.14676 0.333735,-5.01712 0.74163,-6.37855 0.701168,-2.3403 0.815036,-2.42391 2.087468,-1.53266 2.090842,1.46448 2.809146,1.16488 2.485989,-1.03694 -0.208448,-1.42027 0.107233,-2.40302 1.117243,-3.47811 0.774277,-0.8242 1.630641,-2.33824 1.903027,-3.36457 0.357703,-1.34782 0.951372,-1.92042 2.137573,-2.06174 1.358826,-0.16184 1.589993,-0.46941 1.339192,-1.78141 -0.257763,-1.3484 -0.05498,-1.58572 1.355103,-1.58572 2.19134,0 3.872169,-2.3079 2.94396,-4.04228 -0.368196,-0.688 -0.52093,-1.39942 -0.339397,-1.58095 0.761492,-0.76148 4.568773,0.71476 7.382532,2.86256 2.942246,2.24588 3.071606,2.27982 4.833337,1.26872 0.9956,-0.57138 1.810181,-0.77025 1.810181,-0.44194 0,0.32836 -0.743358,0.98646 -1.651905,1.4625 l -1.65191,0.86552 1.65191,0.88409 c 1.776751,0.95086 1.906548,1.5944 1.806972,8.95913 l -0.05519,4.08342 2.703137,-0.19685 2.703131,-0.19684 0.436232,-3.88668 c 0.239935,-2.13766 1.035161,-5.19841 1.767168,-6.80166 1.811398,-3.96735 1.755878,-4.77442 -0.29305,-4.2602 -1.144066,0.28718 -2.23829,-0.003 -3.556733,-0.94124 -1.047369,-0.74577 -2.490025,-1.40008 -3.205911,-1.45401 -0.715886,-0.0539 -1.301607,-0.32752 -1.301607,-0.60797 0,-0.92675 2.233535,-0.52565 4.388164,0.78804 2.528359,1.54154 4.230717,1.64425 5.328521,0.32146 0.443526,-0.53442 1.463879,-0.97166 2.267434,-0.97166 0.803564,0 2.516876,-0.44116 3.807362,-0.98037 2.037345,-0.85125 2.346333,-1.26734 2.346333,-3.15959 0,-1.19856 0.414322,-2.52306 0.9207,-2.94331 0.750832,-0.62315 0.860719,-0.53471 0.595564,0.47926 -0.392639,1.50143 1.205206,2.05321 5.933199,2.04892 2.522138,-0.003 3.869698,-0.43038 6.089436,-1.9345 2.513062,-1.70286 3.405359,-1.93153 7.536899,-1.93153 4.210654,0 4.788109,0.15523 5.688661,1.52969 0.551262,0.84134 1.823665,1.7055 2.827557,1.92038 1.348031,0.28851 2.579778,1.53989 4.711067,4.78613 4.375647,6.66473 11.041467,17.83292 11.041467,18.49932 0,0.32489 0.583,1.3319 1.29555,2.23777 0.71256,0.90587 1.29557,2.07852 1.29557,2.60585 0,0.82292 -0.22628,0.81055 -1.59666,-0.0874 -1.82151,-1.1935 -2.54858,-1.34081 -1.96613,-0.39839 0.2202,0.35628 -0.0369,0.64777 -0.57132,0.64777 -1.25866,0 -1.92211,-1.07932 -1.00999,-1.64303 0.46043,-0.28454 0.19878,-0.97804 -0.75012,-1.98809 -0.80145,-0.85311 -1.12403,-1.55112 -0.71683,-1.55112 1.06306,0 0.27951,-1.64974 -1.88309,-3.96482 l -1.87034,-2.0022 v 1.61865 c 0,2.00762 -1.75072,2.78015 -3.241987,1.43059 -0.83471,-0.7554 -1.514805,-0.85229 -2.732656,-0.38926 -0.891744,0.33904 -2.824488,0.45507 -4.294952,0.25783 -1.758405,-0.23577 -3.033366,-0.0599 -3.724624,0.51367 -1.300089,1.079 -6.906012,1.06372 -10.21342,-0.0276 -2.119548,-0.69952 -2.592731,-0.65784 -3.677557,0.3239 -1.110456,1.00496 -1.648682,1.04088 -4.979681,0.33238 -5.454705,-1.16022 -5.527995,-1.15337 -6.422993,0.60077 -0.637614,1.24971 -0.64607,1.70009 -0.03789,2.01818 1.58945,0.83124 8.991095,1.21766 10.264989,0.53591 0.905846,-0.48479 3.007794,-0.47664 7.156342,0.0276 3.983543,0.48435 6.524926,0.50574 7.897154,0.0667 1.11285,-0.35623 5.011245,-0.78635 8.663096,-0.95581 5.390189,-0.25015 6.639749,-0.13834 6.639749,0.594 0,1.68346 1.49888,4.20197 2.50077,4.20197 0.80377,0 0.83797,0.15718 0.1763,0.80973 -0.65742,0.64843 -0.97356,0.6094 -1.58706,-0.19587 -0.66595,-0.87416 -2.92579,-0.97421 -17.284496,-0.76507 -9.085093,0.13224 -18.886723,0.2108 -21.781397,0.17456 -4.959167,-0.0622 -5.28592,0.0195 -5.659228,1.41287 -0.66657,2.48815 -0.51099,2.62998 2.511361,2.28934 1.608881,-0.18142 3.057562,-0.11555 3.219265,0.1459 0.161705,0.26166 1.687478,0.25798 3.390604,-0.007 1.703125,-0.26615 8.343606,-0.48698 14.756611,-0.49076 6.413021,-0.005 12.680281,-0.16845 13.927257,-0.36621 1.246976,-0.19758 6.829123,-0.51501 12.404793,-0.70527 8.11403,-0.27685 10.59891,-0.15302 12.44892,0.61986 1.27127,0.53118 4.28838,0.97366 6.70471,0.98332 2.41632,0.009 7.16256,0.3108 10.54722,0.66924 16.21468,1.71712 16.19448,1.71647 16.19448,0.52349 0,-2.40623 -0.76309,-3.15366 -3.21978,-3.15366 -1.33838,0 -3.92054,-0.28204 -5.73815,-0.62672 -1.81762,-0.34473 -7.75828,-0.79487 -13.20143,-1.00033 -6.96998,-0.26311 -10.31578,-0.64819 -11.31395,-1.30223 -1.23333,-0.80809 -1.71478,-0.80436 -3.70845,0.0287 -3.37608,1.41061 -5.06047,1.26538 -4.807,-0.41444 0.15042,-0.9967 1.17211,-1.7307 3.73674,-2.68449 3.09722,-1.15185 3.77194,-1.20692 5.50612,-0.44942 1.087,0.47483 4.16264,0.91874 6.83472,0.98645 2.67212,0.0679 9.34244,0.34798 14.82303,0.62275 8.69438,0.43595 10.00246,0.64413 10.26109,1.63311 0.17165,0.65628 1.09148,1.25019 2.18486,1.41067 2.35194,0.34518 2.50726,0.18606 1.92422,-1.96971 -0.33729,-1.24721 -0.9149,-1.7603 -2.0383,-1.81064 -2.82779,-0.12659 -3.09561,-0.24042 -3.48998,-1.4831 -0.29394,-0.92613 -0.984,-1.22104 -2.79672,-1.19533 -9.3308,0.13224 -24.63248,-0.70101 -25.96288,-1.41395 -0.9048,-0.48489 -2.36328,-0.65015 -3.56277,-0.4037 -1.11701,0.2294 -3.00922,0.58465 -4.20497,0.78928 l -2.17409,0.37204 0.47522,-2.18417 c 0.85182,-3.91509 1.52651,-5.0992 2.90557,-5.0992 0.73257,0 1.49971,-0.43724 1.70481,-0.97165 0.51705,-1.34743 5.62136,-1.31418 6.7485,0.0438 0.65216,0.78581 1.95268,0.98226 5.74739,0.86826 2.69749,-0.0811 6.28011,0.0832 7.9614,0.36524 3.47519,0.58275 10.90076,-0.75043 10.48405,-1.88228 -0.1398,-0.3799 -0.50252,-2.5369 -0.80586,-4.79332 -0.51478,-3.82934 -0.46109,-4.13663 0.80615,-4.61309 0.7467,-0.28077 2.30505,-0.36914 3.46295,-0.19635 1.63509,0.24385 2.10528,0.0805 2.10528,-0.73112 0,-1.49655 1.13826,-1.29267 3.39778,0.60855 1.08093,0.90955 2.72919,1.80651 3.66277,1.99322 l 1.69743,0.33947 -0.44081,5.2943 c -0.24238,2.91188 -0.46397,5.65868 -0.4923,6.10403 -0.0284,0.44535 -0.48878,0.80972 -1.02319,0.80972 -0.95224,0 -1.05378,-0.80351 -1.2551,-9.93213 -0.0264,-1.19605 -0.70731,-2.40942 -1.95574,-3.48496 -2.34696,-2.02193 -2.73484,-1.22658 -1.40838,2.88779 1.29479,4.01603 2.02292,8.57958 1.17533,7.3661 -0.47475,-0.67964 -0.74062,-0.37339 -1.10125,1.26853 -0.26145,1.19048 -0.22035,2.25408 0.0916,2.3636 2.49686,0.8768 3.90802,2.14654 4.53713,4.08242 1.0117,3.11318 2.557,3.26871 3.11147,0.31318 0.54241,-2.89137 2.73725,-8.09846 3.42172,-8.11782 0.27989,-0.007 1.21051,-0.55384 2.06808,-1.21311 l 1.55923,-1.19874 -3.82646,-3.72311 c -2.10456,-2.0477 -2.90678,-3.07072 -1.78275,-2.27336 1.12404,0.79736 2.36292,1.25245 2.75306,1.01132 0.42525,-0.2628 0.70937,0.0898 0.70937,0.88046 0,0.72535 0.66077,1.75181 1.46842,2.28098 1.34646,0.88227 1.80292,0.80282 5.49714,-0.95672 2.21583,-1.05539 4.43436,-1.91888 4.93007,-1.91888 1.34986,0 2.68887,1.93087 2.47432,3.56807 -0.12982,0.99027 0.2135,1.54997 1.09175,1.77962 0.71965,0.18827 1.85659,1.59833 2.59431,3.21773 0.72227,1.58552 1.75,3.24522 2.28382,3.68827 0.53384,0.44304 1.29112,1.77667 1.68287,2.96363 0.39173,1.18699 1.13537,2.32052 1.65257,2.51899 0.56749,0.21765 0.94032,1.23649 0.94032,2.56929 0,1.21465 0.40672,3.19143 0.90382,4.39284 1.11615,2.69766 4.50134,19.76134 4.06152,20.47299 -0.33979,0.54979 1.13335,6.80894 1.89108,8.03498 0.24723,0.40002 0.19023,0.60399 -0.12658,0.45325 -7.05745,-3.35819 -14.03618,-4.82649 -19.50818,-4.1044 -4.88866,0.64509 -11.79802,2.23326 -14.34404,3.29705 -4.0491,1.6918 -4.97464,3.01813 -5.14672,7.37533 -0.0847,2.14637 0.009,3.90249 0.21276,3.90249 0.20174,0 1.4658,-0.56066 2.80901,-1.24594 2.67803,-1.36623 7.58716,-2.67627 14.85197,-3.96339 4.12673,-0.7311 5.49891,-0.69189 11.01225,0.3149 8.05887,1.47165 11.63539,2.72714 12.74058,4.47244 1.60827,2.53977 1.79025,6.31355 0.48808,10.12156 l -1.21251,3.54565 -0.4575,-2.89788 c -1.37044,-8.68015 -7.07234,-12.96053 -17.32287,-13.00416 -9.74533,-0.0413 -18.90892,2.38756 -22.27962,5.90581 -1.84934,1.93031 -1.86803,2.02854 -1.87794,9.87676 -0.0121,9.08563 0.92394,13.10381 2.92848,12.57963 2.00673,-0.52478 1.39465,0.20148 -1.02006,1.21048 -1.23553,0.51625 -3.05741,0.9189 -4.0486,0.89478 l -1.8022,-0.0438 1.51286,-0.72763 z M 82.586559,199.84993 c 0.429014,-0.80163 0.737785,-1.52897 0.686141,-1.61632 -0.05158,-0.0874 0.07784,-1.01774 0.287832,-2.06748 0.477412,-2.38705 6.489362,-8.29674 7.456467,-7.32963 0.442989,0.44299 0.02061,0.9375 -1.300697,1.52232 -1.741181,0.7707 -3.315177,3.17527 -2.078501,3.17527 0.724964,0 0.746416,4.42442 0.02371,4.87112 -1.126763,0.69636 -0.659276,1.60645 0.830408,1.61659 1.207492,0.007 1.290836,0.12807 0.485841,0.69819 -1.319535,0.93467 5.957774,0.13022 8.421119,-0.93101 0.534416,-0.23013 1.859348,-0.51164 2.944311,-0.62538 2.59232,-0.27185 3.55972,-0.92074 3.11201,-2.08747 -0.22755,-0.59294 0.0269,-0.95092 0.67605,-0.95092 0.57254,0 1.04098,-0.2689 1.04098,-0.59756 0,-0.32863 0.99447,-0.92574 2.20994,-1.32689 1.21548,-0.40112 2.37232,-1.15248 2.57079,-1.66968 0.19846,-0.51718 0.73436,-0.93587 1.19089,-0.9304 0.66789,0.007 0.66956,0.11191 0.008,0.53137 -1.03564,0.65732 -2.14175,4.4091 -1.66569,5.64972 0.19724,0.514 0.69181,0.91404 1.09905,0.889 2.01396,-0.12389 3.29755,-1.32565 5.51143,-5.16035 l 2.41722,-4.18691 3.3695,-0.19586 c 1.85324,-0.10773 3.36952,0.0778 3.36952,0.41232 0,0.60387 1.98045,1.15018 6.63974,1.83154 1.55584,0.22745 2.42915,0.0979 2.42915,-0.36055 3e-5,-0.39372 -0.29149,-0.71584 -0.64777,-0.71584 -0.35627,0 -0.13759,-0.53677 0.48584,-1.19278 0.62348,-0.65605 1.38336,-1.05686 1.68862,-0.89073 0.30523,0.16625 0.16795,0.54133 -0.30514,0.8337 -0.47308,0.29238 -0.71844,0.67326 -0.54531,0.8464 0.1731,0.1731 1.03334,-0.22721 1.91156,-0.88963 l 1.59673,-1.20443 -3.06392,-0.7715 c -1.68925,-0.42536 -3.06392,-1.14987 -3.06392,-1.6148 0,-1.56728 3.95777,-1.76724 12.13446,-0.61303 l 3.38944,0.47845 -1.07171,-3.14531 c -0.58963,-1.72991 -1.67763,-3.64642 -2.41796,-4.25894 l -1.34605,-1.11363 1.45748,0.36587 c 0.85975,0.21569 1.4575,0.0692 1.4575,-0.35745 0,-0.39785 0.36439,-0.65046 0.80974,-0.56139 0.44533,0.0891 0.73684,-0.20248 0.64776,-0.64777 -0.0891,-0.44535 0.166,-0.73687 0.56681,-0.64779 0.4008,0.0891 0.86135,-0.19955 1.02346,-0.64114 0.2037,-0.55521 -0.31037,-0.73265 -1.66531,-0.57491 -1.12531,0.13103 -2.08768,-0.1045 -2.25988,-0.55335 -0.34381,-0.89595 -9.37985,-2.78398 -19.85151,-4.14786 -6.5505,-0.85315 -18.97016,-0.61774 -20.17529,0.38241 -0.65098,0.54026 -5.208577,0.83859 -14.835843,0.97109 -10.928487,0.15033 -13.85975,0.36979 -13.725503,1.0272 0.09386,0.4598 -0.135001,1.40716 -0.508627,2.1053 -0.735955,1.37514 -0.04188,1.7139 1.123611,0.54842 1.021966,-1.02198 2.070841,-0.16698 1.670981,1.36204 -0.18519,0.70818 -0.595079,1.12795 -0.910854,0.9328 -0.315775,-0.19514 -0.574128,-0.046 -0.574128,0.33116 0,0.92554 1.500347,0.86987 2.461554,-0.0913 0.520046,-0.52003 0.777335,-0.54297 0.777335,-0.0692 0,0.83859 -1.863524,1.74791 -3.238889,1.58047 -0.712927,-0.0869 -0.66617,0.0691 0.175562,0.58541 0.630984,0.38705 0.959469,1.00756 0.729975,1.37888 -0.22951,0.37134 0.347366,0.17408 1.281935,-0.43818 1.676892,-1.09875 2.1654,-0.75809 1.167162,0.81388 -0.281718,0.44361 -1.245754,0.86728 -2.142292,0.94149 -1.352433,0.11191 -1.578885,0.40275 -1.329486,1.70745 0.196435,1.02754 -0.07258,1.78141 -0.77642,2.17526 -0.592362,0.3315 -0.905012,0.88107 -0.694745,1.22126 0.210235,0.3402 0.609555,0.47808 0.887341,0.30639 0.277786,-0.17163 0.528838,0.52364 0.557887,1.54515 0.03905,1.37696 -0.312462,1.96289 -1.359569,2.26563 -1.400736,0.40496 -1.399027,0.41483 0.207086,1.19735 1.956576,0.95328 2.300468,2.15022 1.205556,4.19607 -0.666279,1.24496 -0.66376,1.63321 0.01347,2.05168 0.459311,0.28388 0.847333,0.77503 0.862267,1.09148 0.121332,2.57051 3.228723,3.08155 4.483322,0.7373 z m 21.937821,-7.86543 c 0,-0.5732 3.50847,-3.63265 4.16581,-3.63265 0.33895,0 0.0504,0.43796 -0.64115,0.97325 -0.92738,0.7178 -0.97707,0.87624 -0.18932,0.60363 0.58744,-0.20321 1.24755,-0.0793 1.46689,0.27566 0.21936,0.35492 -0.26129,0.83516 -1.06809,1.06724 -3.36876,0.96893 -3.73413,1.0387 -3.73413,0.71287 z m -26.180579,-7.10382 c 0.224419,-0.58481 0.862671,-1.06327 1.418352,-1.06327 0.555678,0 0.888862,0.0825 0.740423,0.18337 -0.148442,0.10087 -0.78671,0.5793 -1.418352,1.06327 -0.999842,0.76613 -1.095653,0.74241 -0.740423,-0.18337 z m 51.237859,-9.08721 c -0.24141,-0.62896 0.0272,-0.80113 0.89507,-0.57411 0.6819,0.17822 1.08015,0.58257 0.88499,0.89834 -0.52699,0.85267 -1.38868,0.69572 -1.78006,-0.32423 z m -59.349749,21.91302 c 1.618676,-1.55078 1.689066,-1.85038 1.092195,-4.64888 -0.55654,-2.60947 -0.483473,-3.11182 0.572511,-3.93567 1.17947,-0.92018 1.179092,-0.93349 -0.01469,-0.51852 -1.036899,0.36041 -1.099828,0.27477 -0.409392,-0.55719 0.448728,-0.54065 0.663075,-1.5673 0.476335,-2.2814 -0.186738,-0.7141 -0.0746,-1.46209 0.249181,-1.66221 0.340165,-0.21032 0.351436,-0.82587 0.02666,-1.45815 -0.309111,-0.60185 -0.431345,-1.45867 -0.271659,-1.90403 0.159671,-0.44535 -0.02545,-0.80971 -0.411427,-0.80971 -0.385921,0 -0.701722,-0.43727 -0.701722,-0.97168 0,-0.53442 0.29614,-0.97166 0.658077,-0.97166 0.753514,0 0.616386,-3.82326 -0.154202,-4.29953 -0.279739,-0.17284 -0.330198,-1.02522 -0.112176,-1.89408 0.370729,-1.4771 0.234098,-1.57554 -2.102919,-1.51517 -4.409831,0.11379 -5.109628,0.5999 -5.168542,3.5893 -0.02909,1.4752 -0.22931,3.14201 -0.444956,3.70399 -0.215646,0.56198 -0.158649,1.16604 0.126654,1.34237 0.285319,0.17628 0.572992,2.00756 0.639278,4.06937 0.06627,2.06184 0.386739,3.84047 0.712118,3.95255 0.32538,0.11218 0.431038,0.62222 0.234792,1.13362 -0.196231,0.5114 -0.0032,0.92982 0.42958,0.92982 0.441483,0 0.618728,0.43692 0.404127,0.99619 -0.217173,0.56591 0.03111,1.15481 0.574746,1.36342 0.526362,0.202 0.767924,0.67324 0.5368,1.04722 -0.67895,1.09855 -0.808323,3.75838 -0.16343,3.35983 0.757216,-0.468 0.744315,0.40923 -0.02397,1.62354 -0.327317,0.51739 -0.451409,1.17329 -0.275739,1.4575 0.574747,0.92997 1.761448,0.54552 3.521644,-1.14084 z m -1.98316,-3.14176 c 0,-0.12335 0.437242,-0.58712 0.971669,-1.03064 0.560057,-0.46483 0.971671,-0.52777 0.971671,-0.14861 0,0.36179 -0.437255,0.82557 -0.971671,1.03064 -0.534427,0.20517 -0.971669,0.27195 -0.971669,0.14861 z m -2.591115,-9.45178 c 0,-0.35627 0.291494,-0.64778 0.647777,-0.64778 0.35628,0 0.647774,0.29151 0.647774,0.64778 0,0.35628 -0.291494,0.6478 -0.647774,0.6478 -0.356283,0 -0.647777,-0.29152 -0.647777,-0.6478 z m 55.708994,11.01226 c 0,-0.85059 -0.43185,-1.29558 -1.25732,-1.29558 -1.42359,0 -2.25577,0.9756 -1.65767,1.94334 0.7466,1.20807 2.91499,0.72622 2.91499,-0.64776 z m -47.611755,-1.94334 c -0.220202,-0.35628 -0.07447,-0.64778 0.323882,-0.64778 0.398336,0 0.524854,-0.32264 0.281152,-0.71693 -0.30888,-0.4998 -0.611767,-0.45073 -0.99999,0.16184 -0.754391,1.19058 -0.715405,1.85054 0.109347,1.85054 0.377314,0 0.505851,-0.29152 0.285662,-0.64779 z m 75.572605,-0.48584 c 0.57313,-0.62348 1.70604,-1.63452 2.51766,-2.24671 1.55908,-1.17607 1.62531,-1.08993 -1.60496,-2.0873 -1.03051,-0.31818 -2.54424,1.13538 -1.87713,1.80248 0.2343,0.23456 -0.0595,0.42626 -0.65338,0.42626 -0.59381,0 -1.07965,0.32266 -1.07965,0.71708 0,0.39439 0.444,0.54671 0.98667,0.33845 0.80497,-0.3089 0.86039,-0.14273 0.30108,0.90238 -0.84851,1.58544 0.005,1.67473 1.40971,0.14739 z m -8.04173,-1.18767 c -0.61729,-0.61732 -1.85491,0.38256 -1.39484,1.12692 0.27342,0.44244 0.63575,0.43128 1.10097,-0.0341 0.3814,-0.38139 0.51362,-0.87323 0.29387,-1.09297 z m -64.615878,-9.08415 c 0,-0.14004 -0.437242,-0.2546 -0.971672,-0.2546 -0.534413,0 -0.971656,0.28236 -0.971656,0.62745 0,0.34509 0.437243,0.45967 0.971656,0.2546 0.53443,-0.20516 0.971672,-0.48743 0.971672,-0.62745 z m -2.591115,-8.96138 c 0,-0.15718 -0.291494,-0.46582 -0.647777,-0.68602 -0.356282,-0.2201 -0.647774,-0.0916 -0.647774,0.28567 0,0.37731 0.291492,0.68601 0.647774,0.68601 0.356283,0 0.647777,-0.12847 0.647777,-0.28566 z m 1.758903,-2.53487 c -0.352941,-1.05885 -1.758903,-1.2638 -1.758903,-0.25641 0,0.50471 0.445347,0.91769 0.989674,0.91769 0.544312,0 0.890466,-0.29759 0.769229,-0.66128 z m 82.44143,-11.71538 c 0.94911,-3.38985 0.56765,-4.89746 -1.23918,-4.89746 -0.70995,0 -3.78548,-0.58169 -6.83452,-1.29263 -10.67229,-2.48846 -35.61052,-4.39682 -41.25014,-3.15663 -3.5804,0.78734 -7.66812,0.85509 -24.512023,0.40609 -6.947434,-0.18509 -13.506201,-0.1045 -14.57503,0.17921 -1.068843,0.28377 -2.99189,0.69109 -4.273434,0.90515 -2.468854,0.41238 -4.145145,2.6632 -3.410064,4.5788 0.208447,0.54318 0.01347,1.42819 -0.433578,1.96667 -1.682673,2.02748 -2.503829,1.98114 24.959326,1.40908 10.688354,-0.22256 22.639893,-0.67965 26.558963,-1.01556 7.45012,-0.63856 8.38006,-0.55851 29.61792,2.54977 5.24523,0.76767 9.90924,1.25608 10.36448,1.08531 0.45522,-0.17064 1.41068,-0.0957 2.12323,0.16673 1.76814,0.65113 1.9704,0.45023 2.90405,-2.88446 z M 54.5624,162.37257 c 1.129519,-0.39376 2.330683,-1.23353 2.669257,-1.86615 0.886383,-1.65623 2.728108,-7.21842 2.474198,-7.47233 -0.34702,-0.34702 -5.060468,4.03823 -5.060468,4.7081 0,0.33605 -0.61,1.16307 -1.355556,1.83779 -3.367201,3.04728 -2.831338,4.22319 1.272569,2.79259 z m 107.24507,-11.5185 c 0.42315,-0.68468 -1.43353,-2.37321 -1.99365,-1.8131 -0.53974,0.53972 0.24091,2.38747 1.0088,2.38747 0.34642,0 0.78961,-0.25846 0.98485,-0.57437 z M 60.993622,139.63886 c 1.272939,-1.27295 0.891384,-2.28753 -1.00406,-2.66982 -1.824513,-0.36803 -3.400837,0.8368 -3.400837,2.59931 0,1.07309 3.348712,1.12671 4.404897,0.0706 z m -0.726557,-12.73515 c 1.580288,-3.33465 2.771045,-6.1652 2.646119,-6.29014 -0.124912,-0.12484 -0.852916,-0.0634 -1.617763,0.13661 -0.926991,0.24239 -1.753565,1.36769 -2.479238,3.37515 -2.842384,7.86306 -3.51994,10.13907 -3.481586,11.69511 0.03885,1.5773 0.103558,1.54118 1.050316,-0.58639 0.554887,-1.24697 2.301857,-4.99559 3.882152,-8.33024 z m 96.965925,0.71885 c -0.13197,-4.00177 -1.67746,-8.19864 -3.12314,-8.48157 -0.99412,-0.19465 -1.08172,0.12981 -0.7,2.59113 0.37676,2.42957 1.01538,5.04205 1.99407,8.15766 0.13979,0.44535 0.6315,0.80972 1.09247,0.80972 0.58226,0 0.80714,-0.93931 0.7366,-3.07694 z m -92.444,1.13165 c 2.677213,-0.0195 5.453224,-0.005 8.803939,0.0517 1.157896,0.0197 3.163975,-0.15742 4.457938,-0.39302 1.456407,-0.26522 2.519754,-0.15816 2.791291,0.28126 0.718865,1.16316 6.249093,0.85901 7.664024,-0.42147 0.730851,-0.66142 2.725589,-1.26671 4.803095,-1.4575 l 3.553129,-0.32632 -4.230341,-4.3725 c -2.326687,-2.40485 -4.538009,-4.37247 -4.914032,-4.37247 -0.376036,0 -0.683691,0.89684 -0.683691,1.99296 0,1.85564 -0.145719,1.9804 -2.114619,1.81079 -1.163026,-0.10019 -2.488742,0.049 -2.946021,0.33164 -1.435278,0.88707 -2.712718,-0.1177 -2.712718,-2.13351 0,-1.05899 -0.288382,-2.10366 -0.640866,-2.32151 -0.35247,-0.2179 -2.432185,-0.0436 -4.621556,0.38708 -3.173563,0.62436 -4.247105,0.61678 -5.294524,-0.0372 -1.62964,-1.01774 -2.484462,-0.0311 -6.337295,7.31329 -2.156849,4.11158 -2.416125,4.94414 -1.364366,4.38126 0.714192,-0.38223 2.418162,-0.70369 3.786613,-0.7144 z m 2.164197,-1.94137 c 0,-0.35629 0.308705,-0.64778 0.686006,-0.64778 0.377317,0 0.505854,0.29149 0.285663,0.64778 -0.220202,0.35626 -0.528892,0.64778 -0.686007,0.64778 -0.157112,0 -0.285662,-0.29152 -0.285662,-0.64778 z m 12.965498,-2.75307 c 0.0081,-1.17859 0.130086,-1.27155 0.637863,-0.48581 0.811623,1.25588 0.811623,1.94332 0,1.94332 -0.35628,0 -0.643316,-0.65589 -0.637863,-1.45751 z m -12.734414,-2.11352 c -0.206804,-0.53897 -0.01077,-1.4205 0.436541,-1.95901 1.110764,-1.33838 1.544908,-0.71778 0.657633,0.9401 -0.953101,1.78088 -0.232257,1.72336 1.334468,-0.10652 l 1.247947,-1.4575 -0.762254,1.78138 c -0.831956,1.94429 -2.318877,2.3532 -2.914335,0.80148 z m 118.312489,2.27547 c 0,-0.35627 -0.29149,-0.64776 -0.64777,-0.64776 -0.35627,0 -0.64776,0.29149 -0.64776,0.64776 0,0.35628 0.29149,0.64778 0.64776,0.64778 0.35628,0 0.64777,-0.2915 0.64777,-0.64778 z M 29.947154,200.85918 c -0.767278,-0.94589 -0.755962,-1.01475 0.08263,-0.50263 0.534419,0.32636 2.283423,0.78062 3.886677,1.00948 l 2.915007,0.41606 -2.997631,0.0864 c -2.111817,0.061 -3.26035,-0.23723 -3.886677,-1.00945 z m 10.973411,0.005 c 0.46762,-0.18705 1.02633,-0.16404 1.241579,0.0512 0.215254,0.21521 -0.167341,0.36836 -0.850207,0.34023 -0.754626,-0.0311 -0.908124,-0.1846 -0.391372,-0.39135 z m 69.057565,-68.61103 c 0.25327,-1.03292 1.44677,-4.21002 2.65225,-7.06026 1.20549,-2.85022 2.39005,-6.0074 2.63238,-7.01592 0.4879,-2.03067 2.07269,-3.01104 2.84566,-1.7604 0.3596,0.58186 0.97046,0.29538 2.20182,-1.03259 0.93731,-1.01083 1.70419,-2.05946 1.70419,-2.33033 0,-0.91315 3.5284,-0.49839 9.60147,1.12862 3.7517,1.00512 7.79967,1.62117 10.68837,1.62668 5.06618,0.009 7.56465,0.46364 7.56465,1.3746 0,0.32151 -0.70129,0.40857 -1.55844,0.19342 -0.95831,-0.24043 -2.20599,0.0333 -3.24008,0.71073 -0.96289,0.6309 -2.38211,0.96796 -3.32048,0.78858 -1.16753,-0.22329 -1.96331,0.0994 -2.76726,1.12133 -0.96647,1.22869 -1.54473,1.37909 -4.02807,1.04773 -2.56791,-0.34266 -2.92305,-0.59068 -3.10456,-2.16831 -0.27982,-2.43176 -1.70597,-2.26722 -4.49143,0.51823 -1.60609,1.60609 -2.50476,2.09447 -2.97977,1.61946 -0.3741,-0.3741 -1.58699,-0.68019 -2.69532,-0.68019 -2.54354,0 -6.3318,3.9196 -8.90172,9.21031 -2.05311,4.22671 -3.52443,5.648 -2.80366,2.70828 z m 8.49565,-13.23863 c 1.17495,-1.29832 1.16918,-1.31059 -0.3521,-0.74783 -0.85066,0.31466 -1.65885,0.90866 -1.79595,1.32001 -0.39887,1.1966 0.84785,0.86454 2.14805,-0.57218 z m 73.63248,10.33979 c -1.16921,-2.11063 -1.99004,-3.83751 -1.82408,-3.83751 0.43834,0 4.46676,7.15824 4.18625,7.43873 -0.12995,0.12995 -1.19294,-1.49057 -2.36217,-3.60122 z m -167.998063,-0.923 c 1.092397,-1.96048 3.975076,-5.27131 3.948067,-4.53445 -0.01294,0.35628 -1.069147,1.81378 -2.34686,3.23887 -1.277706,1.42514 -1.99825,2.00813 -1.601207,1.29558 z m 97.906233,-2.19077 c 0,-0.35627 0.2915,-0.82794 0.64777,-1.04813 0.35628,-0.22011 0.64777,-0.10895 0.64777,0.24744 0,0.35628 -0.29149,0.82792 -0.64777,1.04812 -0.35627,0.2201 -0.64777,0.10894 -0.64777,-0.24743 z m -92.370086,-3.86888 c 1.370917,-1.54402 1.680996,-1.68508 1.680996,-0.76482 0,0.34374 -0.655879,0.96916 -1.457505,1.3898 -1.449684,0.76074 -1.450883,0.75739 -0.223481,-0.62498 z M 179.98706,120.3301 c -1.27154,-1.40505 -1.06746,-2.18543 0.42206,-1.61384 0.5103,0.19587 0.97117,0.93143 1.02412,1.6347 0.11972,1.59049 0.009,1.5889 -1.44618,-0.0195 z M 39.514749,117.42566 c -0.249414,-0.64994 0.16083,-1.09837 1.256419,-1.37334 2.089256,-0.52439 2.553356,-0.0365 1.227101,1.28961 -1.304314,1.30433 -2.006055,1.32799 -2.48352,0.0838 z M 171.30955,116.0882 c -1.2118,-0.52594 -2.02047,-1.13907 -1.79704,-1.3625 0.22353,-0.22353 0.80049,-0.079 1.28237,0.32082 0.48184,0.39994 2.01927,0.9952 3.41647,1.32282 1.78487,0.41851 2.05876,0.6075 0.92095,0.63542 -0.89069,0.0221 -2.61093,-0.39061 -3.82275,-0.91656 z M 56.264835,115.79962 c -0.71256,-0.3062 -3.190314,-0.61616 -5.506122,-0.6888 l -4.210566,-0.13197 3.20144,-0.44287 c 1.760786,-0.2436 4.46772,-0.15302 6.015402,0.201 2.806846,0.6423 2.822184,0.63586 6.065057,-2.54752 1.788105,-1.75531 3.047024,-2.65241 2.797604,-1.9936 -0.547788,1.44692 -5.509403,6.23109 -6.41948,6.18986 -0.356277,-0.0171 -1.23078,-0.27984 -1.943335,-0.58605 z M 159.2178,112.88559 c -1.9939,-2.61413 -4.45451,-3.0657 -5.01551,-0.92041 -0.25318,0.9681 -0.77529,1.28685 -1.85696,1.1336 -1.23038,-0.17431 -1.57117,-0.71091 -1.86909,-2.94295 -0.20051,-1.50135 -0.90143,-3.32322 -1.5579,-4.0486 -2.34503,-2.59124 0.58753,-1.42141 3.23597,1.29084 1.99534,2.04342 2.90241,2.54009 4.18008,2.28882 0.89747,-0.17654 2.50628,0.11109 3.57511,0.63892 1.06883,0.52793 1.4332,0.81887 0.80972,0.64655 -1.50673,-0.41647 -1.46337,1.09011 0.0712,2.47902 0.95813,0.86712 1.56387,0.95401 2.95717,0.42428 2.45603,-0.93379 2.93634,-0.78996 1.02008,0.3055 -2.50738,1.43332 -3.6768,1.16034 -5.55002,-1.29557 z m -5.88367,-1.9226 c 0.20075,-0.52301 0.0862,-1.12321 -0.25461,-1.33379 -0.3407,-0.21055 -0.61949,0.21741 -0.61949,0.95093 0,1.56411 0.36024,1.72191 0.8741,0.38286 z m -59.610074,2.4819 c -1.656368,-0.67598 -5.975482,-7.23447 -6.951379,-10.55552 -1.162354,-3.955567 -1.4023,-9.417411 -0.386109,-8.789364 0.356267,0.220096 0.647774,1.096658 0.647774,1.947704 0,2.481067 3.819845,12.34066 5.886215,15.1932 1.042394,1.439 1.820552,2.59332 1.72925,2.56521 -0.0913,-0.0281 -0.507886,-0.19072 -0.925751,-0.36123 z m 31.007224,-2.6646 c 0.53586,-0.62348 2.17248,-3.33434 3.63689,-6.02411 2.41281,-4.43166 2.91685,-6.277103 3.3086,-12.113671 0.0299,-0.445349 0.29697,-0.809723 0.59356,-0.809723 0.29657,0 0.41535,1.530377 0.26395,3.400819 -0.18926,2.337195 -1.18623,5.224245 -3.18796,9.230855 -3.16364,6.33232 -3.90153,7.44948 -4.92049,7.44948 -0.36788,0 -0.23039,-0.51014 0.30545,-1.13365 z m -57.237457,-1.14098 c 0.831755,-1.06479 2.57528,-2.81044 3.874492,-3.8793 l 2.362187,-1.94334 -1.863847,2.45247 c -1.02512,1.34883 -2.768645,3.09452 -3.874492,3.87927 l -2.010645,1.42685 z m 33.354107,-1.8576 c -3.701732,-2.03049 -9.240268,-8.800827 -11.854856,-14.49144 -0.695701,-1.514166 -1.493896,-2.751958 -1.77377,-2.750638 -2.173507,0.0094 -7.906001,5.840217 -8.937098,9.088893 -0.207127,0.652605 -1.747753,1.833935 -3.423637,2.625175 -1.675868,0.79126 -3.498765,1.82334 -4.050874,2.2935 -0.552098,0.47014 -2.240651,1.2912 -3.752337,1.82454 -2.217634,0.78242 -2.810864,0.80728 -3.071278,0.12847 -0.387532,-1.00991 0.542023,-6.553533 1.899118,-11.325816 1.057209,-3.717739 1.994956,-4.753401 5.732468,-6.330952 2.117945,-0.893996 2.557598,-1.49892 3.797692,-5.225402 0.771345,-2.317909 2.274318,-5.207373 3.33993,-6.421033 1.06561,-1.213649 1.72583,-2.206662 1.467165,-2.206662 -0.258675,0 -0.131971,-0.407657 0.281557,-0.905941 0.499012,-0.601276 0.615455,-2.289628 0.346263,-5.020281 -0.230976,-2.342901 -0.119851,-4.81162 0.258056,-5.733801 0.599781,-1.463572 0.669134,-1.338845 0.720563,1.295564 0.09601,4.923417 1.196409,8.20144 4.020548,11.97779 3.013204,4.029194 4.469627,4.35469 5.125953,1.145562 0.46665,-2.281616 2.829282,-4.646523 4.676187,-4.680686 1.428869,-0.02638 4.98813,-1.810091 4.98813,-2.499733 0,-0.275873 -0.32086,-0.822433 -0.712997,-1.214575 -1.121794,-1.121807 1.430537,-1.62587 4.612487,-0.910937 1.69913,0.381786 3.3556,0.389422 4.32725,0.01953 0.86586,-0.3292 2.174,-0.598528 2.90699,-0.598528 1.12862,0 1.20548,0.15326 0.50183,1.001133 -0.45698,0.550643 -1.17499,0.869098 -1.59557,0.707703 -0.42057,-0.161343 -1.15185,-0.05414 -1.62506,0.23822 -0.55444,0.342667 0.27267,0.679447 2.32597,0.947121 5.39717,0.70354 6.05494,0.953839 8.6368,3.286371 1.95414,1.765475 2.59953,2.906379 2.94418,5.204627 0.52115,3.475143 1.42254,3.48158 3.2654,0.0245 1.17542,-2.205813 1.49249,-2.400456 3.41944,-2.099268 1.98726,0.310619 2.11227,0.219853 1.94334,-1.41171 -0.14788,-1.427994 0.11231,-1.784962 1.43712,-1.971673 1.5571,-0.219355 1.57549,-0.181406 0.49147,1.016445 -0.65239,0.720899 -1.5472,3.658666 -2.1269,6.98292 -1.38839,7.961524 -3.81044,12.258969 -9.97411,17.697037 -2.69888,2.381165 -5.0528,4.507365 -5.23093,4.724845 -0.17815,0.21742 -1.34415,0.91459 -2.59113,1.5491 -1.24697,0.63452 -2.96241,1.69545 -3.81209,2.35763 -2.07356,1.61597 -5.61632,1.48231 -8.93327,-0.33713 z m 12.47564,-18.627666 c 0.1974,-0.319397 1.23646,-0.06585 2.30903,0.563166 1.91587,1.123812 1.97198,1.117025 3.19432,-0.385369 1.47034,-1.807289 1.52305,-2.780895 0.33801,-6.244071 -1.37722,-4.024736 -3.75807,-4.966711 -11.57155,-4.578218 -6.07347,0.301972 -9.908119,1.371542 -11.40237,3.18039 -0.34078,0.412517 -0.809466,1.770298 -1.041519,3.017287 -0.335663,1.80368 -0.135027,2.574512 0.98134,3.770236 1.201512,1.286946 1.789297,1.439156 4.088669,1.058878 3.32487,-0.549889 3.68727,-0.757891 3.26006,-1.871199 -0.18725,-0.487969 -1.39853,-1.085731 -2.6917,-1.328328 -2.698327,-0.506217 -5.726629,-2.277388 -3.893807,-2.277388 0.593492,0 1.492322,-0.589991 1.997409,-1.311092 0.783081,-1.118034 1.676698,-1.320922 6.067788,-1.377775 5.062,-0.06558 7.98626,0.810045 7.98626,2.391259 0,1.058595 -1.36237,2.174653 -2.24237,1.836954 -1.41637,-0.543504 -2.56744,1.551615 -1.78996,3.258 0.53859,1.182068 1.06603,1.448676 2.37204,1.199036 0.92369,-0.17653 1.84094,-0.582382 2.03835,-0.901766 z m -5.88418,-1.207937 c 0.2202,-0.356282 0.0916,-0.647776 -0.28565,-0.647776 -0.37732,0 -0.68602,0.291494 -0.68602,0.647776 0,0.35628 0.12847,0.647788 0.28566,0.647788 0.1571,0 0.46582,-0.291508 0.68601,-0.647788 z M 80.229489,84.702085 c -0.218451,-0.353467 -0.744355,-0.619643 -1.16867,-0.591513 -0.556969,0.03703 -0.565454,0.135636 -0.03057,0.354963 0.407535,0.16697 0.606097,0.945692 0.441267,1.730232 -0.266621,1.26905 -0.219406,1.300776 0.427723,0.287697 0.400073,-0.626295 0.548674,-1.427924 0.330223,-1.781379 z m 27.060291,-9.488683 c -0.43856,-0.177501 -1.31307,-0.188275 -1.94334,-0.0245 -0.63027,0.164293 -0.27145,0.309419 0.7974,0.322617 1.06883,0.01212 1.5845,-0.121198 1.14594,-0.29862 z m 44.23671,29.230458 c -0.69157,-0.52309 -1.99357,-0.95107 -2.89334,-0.95107 -0.89976,0 -2.86875,-0.47084 -4.37555,-1.04629 -2.20816,-0.84329 -2.82285,-1.4402 -3.1685,-3.076946 -0.70762,-3.350726 -2.60158,-5.807787 -6.05917,-7.860663 -1.92376,-1.142182 -3.27842,-2.410666 -3.28597,-3.076943 -0.0195,-1.631524 0.54845,-1.439142 4.42912,1.502934 3.65825,2.773437 5.51169,2.932716 5.15821,0.443286 -0.16307,-1.147419 -0.56536,-1.418863 -1.87773,-1.266651 -0.99543,0.115541 -2.30413,-0.357359 -3.23891,-1.170191 -1.24379,-1.081556 -1.30033,-1.240446 -0.27297,-0.767532 0.71255,0.328014 2.55704,0.757028 4.09889,0.953368 1.54184,0.196355 3.34536,0.847442 4.00779,1.446966 0.66246,0.599485 1.46973,0.92606 1.79394,0.725694 0.74905,-0.462949 3.55939,2.519299 4.92436,5.225571 1.21864,2.416117 3.07429,9.920377 2.44566,9.890137 -0.23552,-0.0121 -0.99424,-0.4486 -1.68583,-0.97167 z m -4.41063,-4.889646 c -0.62348,-0.36314 -1.13362,-1.100227 -1.13362,-1.637964 0,-0.537747 -0.27136,-0.810006 -0.60301,-0.605028 -0.33167,0.204928 -0.78907,0.0718 -1.01643,-0.296219 -0.22745,-0.367906 -0.69199,-0.496737 -1.03247,-0.286298 -0.34049,0.210312 -0.54992,0.142251 -0.4654,-0.15131 0.0844,-0.293695 -0.23113,-1.22923 -0.70136,-2.078987 -0.6479,-1.170742 -0.98364,-1.336932 -1.3859,-0.686086 -0.81621,1.320694 0.98961,4.175278 3.38955,5.358032 2.41821,1.191766 4.88764,1.513326 2.94864,0.38395 z m -64.292076,-0.595879 -1.943341,-0.494498 2.105274,-0.0766 c 1.157909,-0.0422 2.105287,0.214966 2.105287,0.571137 0,0.35628 -0.07285,0.613299 -0.161959,0.57114 -0.08901,-0.0422 -1.036445,-0.299161 -2.105274,-0.57114 z M 133.02665,83.697301 c 0,-0.555448 0.29153,-0.829733 0.64781,-0.609531 0.35626,0.220109 0.64776,0.674656 0.64776,1.009901 0,0.335249 -0.2915,0.609558 -0.64776,0.609558 -0.35628,0 -0.64781,-0.454478 -0.64781,-1.009928 z M 79.959918,72.669325 c 0.03111,-0.754629 0.184571,-0.908122 0.391364,-0.391374 0.187116,0.467622 0.1641,1.026316 -0.05117,1.241578 -0.215246,0.215207 -0.368347,-0.167468 -0.340217,-0.850204 z m 51.771202,-1.851134 c 0,-0.555437 0.29149,-1.009888 0.64776,-1.009888 0.35628,0 0.64777,0.27427 0.64777,0.609545 0,0.335245 -0.29149,0.789699 -0.64777,1.009901 -0.35627,0.220107 -0.64776,-0.05414 -0.64776,-0.609558 z M 78.482559,69.452508 C 76.75638,66.562371 74.666389,59.7717 75.042211,58.274259 c 0.663302,-2.642759 1.552974,-3.450434 2.967125,-2.693607 1.390676,0.744276 1.05578,2.373053 -0.796579,3.874249 -1.178676,0.955241 -1.166786,1.099762 0.424839,5.161087 0.900618,2.298099 1.541944,4.465021 1.425149,4.815363 -0.132104,0.396264 -0.351364,0.404276 -0.580186,0.02209 z m 59.086971,0.193902 c 0.0252,-0.487593 3.81899,-7.859662 3.84601,-7.47377 0.0769,1.099211 -2.70799,7.635703 -3.25318,7.635703 -0.33067,0 -0.59747,-0.07299 -0.59283,-0.162068 z m -4.22962,-1.256215 c -0.23185,-0.601869 -0.12537,-1.622126 0.23675,-2.26722 0.60672,-1.080881 0.69153,-1.087078 1.08008,-0.07864 0.23185,0.601839 0.12537,1.622096 -0.23676,2.267219 -0.60671,1.080868 -0.69152,1.087049 -1.08007,0.07864 z m -20.71828,-4.411856 c -0.64881,-0.716939 -1.03391,-1.449255 -0.85576,-1.627391 0.17813,-0.178226 0.85472,0.262676 1.50354,0.979617 0.6488,0.71691 1.0339,1.449242 0.85576,1.627389 -0.17815,0.178228 -0.85474,-0.262702 -1.50354,-0.979615 z M 97.148434,61.448092 c 2.325349,-1.417958 4.784826,-6.025267 4.784826,-8.963398 0,-1.402649 -0.51567,-2.421316 -1.69559,-3.349435 -0.932562,-0.73357 -1.925455,-1.191683 -2.206406,-1.018034 -0.806651,0.498525 0.115544,3.144086 1.420762,4.075882 1.678484,1.198269 1.496254,1.680488 -1.103532,2.920233 -2.847475,1.357873 -6.239491,1.477941 -5.750472,0.203692 0.459568,-1.197581 -1.333633,-1.801495 -3.219821,-1.084395 -1.929429,0.733555 -2.90087,-0.153763 -2.494709,-2.278385 0.205079,-1.072748 0.861259,-1.715056 2.009082,-1.966651 0.937506,-0.205414 2.433302,-0.605652 3.323998,-0.889294 1.398677,-0.445389 1.464244,-0.579823 0.480954,-0.9862 -1.553797,-0.642093 -5.401921,0.150824 -6.61402,1.363044 -0.891479,0.891476 -0.992502,0.854498 -0.992502,-0.363231 0,-0.817464 0.64294,-1.648653 1.619443,-2.093568 1.617279,-0.736883 2.196724,-1.825469 0.971672,-1.825469 -0.356283,0 -0.647777,0.291494 -0.647777,0.647761 0,0.356282 -0.575514,0.647776 -1.278919,0.647776 -1.927625,0 -3.435244,3.412445 -2.95942,6.698494 l 0.390149,2.694307 -0.916728,-2.003224 C 81.765215,52.776217 81.144548,50.64277 80.890153,49.137035 80.570151,47.242983 80.162092,46.5012 79.565972,46.72994 c -1.389949,0.533366 -2.322835,-5.200893 -1.58202,-9.724345 0.556876,-3.400285 0.480509,-3.988554 -0.73151,-5.634945 -0.793255,-1.077555 -1.625208,-3.670435 -2.010375,-6.265482 l -0.65708,-4.427175 2.402919,-3.893062 c 2.170169,-3.51595 4.059212,-5.569819 8.725784,-9.4871449 0.848844,-0.712556 1.330296,-0.931181 1.06988,-0.485833 -0.676794,1.157443 0.283482,0.99316 2.417048,-0.41351 1.013309,-0.668079 2.368137,-1.077204 3.010728,-0.909163 0.642578,0.168051 1.723784,0.0083 2.402668,-0.355069 0.971413,-0.519882 1.400614,-0.394309 2.015048,0.58955 1.006478,1.611623 1.711029,1.576229 3.335611,-0.167561 1.111727,-1.193287 1.320807,-1.244559 1.320807,-0.323889 0,1.376375 2.31082,1.463078 2.83149,0.106236 0.25842,-0.673431 0.8706,-0.864191 1.92451,-0.599677 1.20034,0.301264 1.62402,0.0878 1.89692,-0.955759 0.26004,-0.994418 0.87225,-1.34366 2.35536,-1.34366 1.10218,0 2.00398,-0.284285 2.00398,-0.631748 0,-1.02242896 3.43481,0.532126 4.64368,2.101675 0.79957,1.038156 0.91236,1.718287 0.43335,2.613327 -0.89798,1.677877 -0.19416,2.125894 1.72562,1.098451 1.85743,-0.99406 2.10377,-2.265755 0.55409,-2.860422 -0.58541,-0.224632 -0.9203,-0.552509 -0.74423,-0.728596 0.43624,-0.436253 5.7962,2.003437 5.68001,2.585382 -0.0509,0.255388 0.12416,0.65868 0.38904,0.896196 0.26495,0.237534 0.27204,0.06748 0.0147,-0.377868 -0.25629,-0.445348 -0.33862,-0.809724 -0.18288,-0.809724 0.83641,0 5.4923,2.25568 6.83356,3.310707 0.85566,0.6730609 2.05751,1.2237449 2.67078,1.2237449 0.61328,0 2.39585,0.982421 3.96127,2.183157 3.37115,2.585791 4.46565,5.471577 4.46565,11.774008 0,4.169474 -0.31449,5.183629 -4.20948,13.57344 -0.96958,2.088507 -2.26831,9.828927 -2.26831,13.519224 0,1.242359 -0.43724,2.696086 -0.97165,3.230502 -1.0703,1.070297 -1.30991,3.423232 -0.38323,3.763285 1.14414,0.41983 1.06415,2.753249 -0.10262,2.992993 -0.81858,0.168196 -1.13734,-0.185338 -1.14709,-1.272066 -0.007,-0.827742 -0.39528,-3.326892 -0.86191,-5.553621 -0.85587,-4.084351 -0.46346,-5.137613 1.02573,-2.753061 1.00051,1.602087 1.79301,1.668532 1.79301,0.150326 0,-1.590439 -3.08641,-5.980382 -4.20456,-5.980382 -1.304,0 -1.97408,-4.290134 -1.06342,-6.808462 0.5949,-1.645219 0.54798,-2.623463 -0.23186,-4.834097 -0.53782,-1.524304 -0.97783,-3.363184 -0.97783,-4.086386 0,-0.723201 -0.74817,-2.295795 -1.66258,-3.494656 -3.1331,-4.107705 -3.76131,-4.281502 -17.34672,-4.799205 -13.231247,-0.504224 -18.707342,0.108943 -21.211168,2.374843 -2.197074,1.988305 -4.476306,6.577164 -4.476306,9.012256 0,1.296035 -0.294566,2.906821 -0.654576,3.579522 -0.360037,0.672716 -0.842351,3.01951 -1.071846,5.215088 -0.416449,3.984363 -0.414295,3.991044 1.127893,3.501581 0.849839,-0.269732 2.328063,-1.069248 3.28496,-1.776736 1.512427,-1.118155 2.5014,-1.24987 7.566311,-1.007718 3.483224,0.166486 6.240442,0.622123 6.855782,1.132811 1.22418,1.015973 1.36806,3.241151 0.21957,3.395609 -0.44535,0.06006 0.93928,0.282811 3.07695,0.495377 4.42544,0.440058 5.20772,0.273328 4.23227,-0.902007 -1.0691,-1.288198 1.16873,-3.555121 4.18886,-4.243297 3.40732,-0.776407 11.14527,0.410189 13.1964,2.023626 0.85433,0.672002 2.07983,1.221851 2.72332,1.221851 0.64348,0 1.32553,0.251698 1.51566,0.559353 0.473,0.76531 -1.48536,9.972048 -2.29229,10.776773 -0.40465,0.403563 -0.38996,-0.03973 0.0389,-1.175766 1.07651,-2.851166 0.84363,-7.23419 -0.47067,-8.857242 -0.82417,-1.017821 -2.08778,-1.520778 -4.37248,-1.740374 -2.37857,-0.228661 -2.96092,-0.13049 -2.24167,0.378164 0.83845,0.59283 0.81624,0.68839 -0.16207,0.696968 -0.62351,0.0054 -1.13362,-0.273045 -1.13362,-0.618837 0,-0.374473 -1.11331,-0.456901 -2.75306,-0.203949 -1.51419,0.233575 -3.45363,0.398958 -4.30988,0.367202 -1.0172,-0.03771 -1.26908,0.119986 -0.72672,0.455314 0.45653,0.282136 0.64865,0.806545 0.42691,1.165317 -0.22174,0.358799 0.009,0.8108 0.51454,1.004488 0.50473,0.19366 1.01319,1.003017 1.1299,1.798522 0.11675,0.795514 0.60714,1.57658 1.08989,1.735687 0.63423,0.209093 0.75688,-0.0913 0.44217,-1.082849 -0.37725,-1.188572 -0.17676,-1.372201 1.49823,-1.372201 1.72672,0 8.51799,2.867716 8.51799,3.596868 0,0.754888 -2.62213,0.166243 -3.59553,-0.807151 -1.03076,-1.030762 -1.14987,-1.024594 -1.97374,0.102076 -0.75346,1.030409 -0.7197,1.313958 0.23993,2.015667 1.72472,1.261158 0.78892,1.515928 -2.88792,0.786209 -2.31254,-0.458922 -4.10413,-1.349173 -5.7511,-2.857722 l -2.39218,-2.191149 0.44038,2.754529 c 0.24221,1.514986 0.86383,3.60348 1.3814,4.64107 0.51756,1.037613 0.81762,2.009957 0.66681,2.160767 -0.43669,0.436676 -1.8118,-2.449811 -3.00826,-6.314527 -0.93388,-3.016682 -1.36362,-3.59428 -2.80341,-3.768133 -1.18324,-0.142973 -1.82372,0.152776 -2.10566,0.971683 -1.76983,5.140793 -3.86717,8.763703 -5.745458,9.92455 -1.150678,0.711149 -2.34923,1.291915 -2.663455,1.290595 -0.314227,-0.0013 0.336257,-0.55584 1.445525,-1.232257 z M 93.512136,50.374978 c 0.789953,-0.510527 0.706234,-0.629799 -0.447609,-0.637866 -0.780595,-0.0054 -1.599435,0.281583 -1.819624,0.637866 -0.509717,0.824724 0.99102,0.824724 2.267233,0 z M 138.84675,35.923661 c -0.007,-1.153843 -0.12726,-1.237562 -0.63785,-0.447612 -0.82474,1.276202 -0.82474,2.776953 0,2.267236 0.35628,-0.220205 0.64332,-1.039029 0.63785,-1.819624 z m -55.793554,0.484076 c 0.12618,-0.111635 0.12618,-0.498255 0,-0.85921 -0.12618,-0.360953 -0.958175,-0.06935 -1.848871,0.647895 l -1.619446,1.304185 1.619446,-0.444971 c 0.890696,-0.244727 1.722691,-0.536287 1.848871,-0.647899 z M 82.499889,12.400581 c 0,-0.860768 -0.175858,-0.905031 -0.971669,-0.244585 -0.534416,0.443528 -0.971672,0.916472 -0.971672,1.050984 0,0.134516 0.437256,0.244585 0.971672,0.244585 0.534413,0 0.971669,-0.472946 0.971669,-1.050984 z M 116.83219,5.0532281 c 0,-1.053282 -2.18347,-1.864394 -4.05551,-1.506533 -2.65399,0.507338 -2.1409,1.376252 0.97856,1.657211 1.51419,0.13637 2.82594,0.298894 2.915,0.361136 0.089,0.06225 0.16196,-0.168075 0.16196,-0.511814 z M 86.71504,61.39459 c -0.226936,-0.367215 0.03313,-0.475795 0.609545,-0.254595 1.122225,0.430628 1.327547,0.894951 0.395763,0.894951 -0.335245,0 -0.787651,-0.288169 -1.005308,-0.640356 z m 39.50995,-1.302983 c 0.64486,-0.712549 1.31822,-1.295564 1.49635,-1.295564 0.17823,0 -0.2037,0.583015 -0.84858,1.295564 -0.64486,0.712563 -1.31822,1.295578 -1.49635,1.295578 -0.17824,0 0.20369,-0.583015 0.84858,-1.295578 z m 13.27549,0.485842 c -0.001,-0.44535 -0.44799,-1.661123 -0.99064,-2.701716 -0.66145,-1.268389 -0.77194,-2.106687 -0.33521,-2.543416 1.05776,-1.057759 3.27317,1.438402 3.27317,3.687942 0,1.8644 -0.049,1.901322 -0.93946,0.709316 -0.90734,-1.214429 -0.9269,-1.207587 -0.57221,0.200031 0.20198,0.801629 0.18753,1.457497 -0.032,1.457497 -0.21961,0 -0.40125,-0.364361 -0.40343,-0.809723 z M 80.359534,56.703171 c -0.336214,-2.506692 -0.163642,-3.719923 0.431776,-3.035385 0.513096,0.589926 0.905172,5.776058 0.436674,5.776058 -0.275468,0 -0.666276,-1.233308 -0.86845,-2.740673 z m 35.177096,1.445096 c -0.53442,-0.345374 -0.68016,-0.627939 -0.32388,-0.627939 0.35626,0 1.08503,0.282565 1.61944,0.627939 0.53442,0.34536 0.68016,0.627954 0.32388,0.627954 -0.35627,0 -1.08503,-0.282594 -1.61944,-0.627954 z M 98.394643,4.3826091 c 0.826651,-3.24696 5.842307,-5.500751 8.925247,-4.01056796 1.26455,0.611238 1.15216,0.68865296 -1.0567,0.72783096 -2.95317,0.05242 -4.78476,0.916487 -6.791227,3.203941 l -1.48962,1.698246 z"
       id="path12"
       inkscape:connector-curvature="0" />
  </g>
</svg>
