<?xml version="1.0" encoding="UTF-8" standalone="no"?>
<svg
   xmlns:dc="http://purl.org/dc/elements/1.1/"
   xmlns:cc="http://creativecommons.org/ns#"
   xmlns:rdf="http://www.w3.org/1999/02/22-rdf-syntax-ns#"
   xmlns:svg="http://www.w3.org/2000/svg"
   xmlns="http://www.w3.org/2000/svg"
   xmlns:sodipodi="http://sodipodi.sourceforge.net/DTD/sodipodi-0.dtd"
   xmlns:inkscape="http://www.inkscape.org/namespaces/inkscape"
   id="6088ba52-b752-42bb-ac91-0a74df332082"
   data-name="Layer 1"
   width="300"
   height="287"
   viewBox="0 0 900.94 787"
   version="1.1"
   sodipodi:docname="undraw_coding_6mjf.svg"
   inkscape:version="0.92.3 (2405546, 2018-03-11)">
  <metadata
     id="metadata134">
    <rdf:RDF>
      <cc:Work
         rdf:about="">
        <dc:format>image/svg+xml</dc:format>
        <dc:type
           rdf:resource="http://purl.org/dc/dcmitype/StillImage" />
      </cc:Work>
    </rdf:RDF>
  </metadata>
  <sodipodi:namedview
     pagecolor="#ffffff"
     bordercolor="#666666"
     borderopacity="1"
     objecttolerance="10"
     gridtolerance="10"
     guidetolerance="10"
     inkscape:pageopacity="0"
     inkscape:pageshadow="2"
     inkscape:window-width="1321"
     inkscape:window-height="713"
     id="namedview132"
     showgrid="false"
     inkscape:zoom="0.29987294"
     inkscape:cx="240.6162"
     inkscape:cy="270.56986"
     inkscape:window-x="45"
     inkscape:window-y="27"
     inkscape:window-maximized="1"
     inkscape:current-layer="6088ba52-b752-42bb-ac91-0a74df332082" />
  <defs
     id="defs9">
    <linearGradient
       id="33dd52eb-d837-4874-aadb-63a17bd6edfc"
       x1="611.05"
       y1="646"
       x2="611.05"
       y2="103.5"
       gradientUnits="userSpaceOnUse">
      <stop
         offset="0"
         stop-color="gray"
         stop-opacity="0.25"
         id="stop2" />
      <stop
         offset="0.54"
         stop-color="gray"
         stop-opacity="0.12"
         id="stop4" />
      <stop
         offset="1"
         stop-color="gray"
         stop-opacity="0.1"
         id="stop6" />
    </linearGradient>
  </defs>
  <title
     id="title11">coding</title>
  <rect
     x="763.63"
     y="283"
     width="52"
     height="27"
     fill="#6c63ff"
     opacity="0.2"
     id="rect13" />
  <rect
     x="767.63"
     y="316"
     width="52"
     height="27"
     fill="#6c63ff"
     opacity="0.2"
     id="rect15" />
  <rect
     x="724.63"
     y="87"
     width="52"
     height="27"
     fill="#6c63ff"
     opacity="0.2"
     id="rect17" />
  <rect
     x="761.63"
     y="118"
     width="52"
     height="27"
     fill="#6c63ff"
     opacity="0.2"
     id="rect19" />
  <rect
     x="661.63"
     y="89"
     width="52"
     height="27"
     fill="#6c63ff"
     opacity="0.2"
     id="rect21" />
  <rect
     x="828.63"
     y="149"
     width="52"
     height="27"
     fill="#6c63ff"
     opacity="0.2"
     id="rect23" />
  <rect
     x="765.63"
     y="151"
     width="52"
     height="27"
     fill="#6c63ff"
     opacity="0.2"
     id="rect25" />
  <rect
     x="698.63"
     y="120"
     width="52"
     height="27"
     fill="#6c63ff"
     opacity="0.2"
     id="rect27" />
  <rect
     x="825.63"
     y="357"
     width="52"
     height="27"
     fill="#6c63ff"
     opacity="0.2"
     id="rect29" />
  <rect
     x="762.63"
     y="359"
     width="52"
     height="27"
     fill="#6c63ff"
     opacity="0.2"
     id="rect31" />
  <path
     d="M280.17,332.5s73.29,73.29,31.92,182S383,804.14,383,804.14s-1.2-.18-3.43-.57C229.05,777,154.26,604.85,238,477,269.08,429.41,294.62,373.64,280.17,332.5Z"
     transform="translate(-149.42 -56.5)"
     fill="#6c63ff"
     id="path33"
     style="fill:#63c41d;fill-opacity:1" />
  <path
     d="M280.17,332.5s41.37,89.84,0,163.12-7.09,279,102.84,308.52"
     transform="translate(-149.42 -56.5)"
     fill="none"
     stroke="#535461"
     stroke-miterlimit="10"
     stroke-width="2"
     id="path35" />
  <path
     d="M149.63,628.92s83.63-13.32,91.25,61.63S401.7,775.89,401.7,775.89s-1,.68-2.87,1.91c-126.49,83-247.4,52.89-229.17-57.36C176.43,679.45,175.87,638.28,149.63,628.92Z"
     transform="translate(-149.42 -56.5)"
     fill="#6c63ff"
     id="path37" />
  <path
     d="M149.63,628.92s83.63-13.32,91.25,61.63S401.7,775.89,401.7,775.89s-1,.68-2.87,1.91c-126.49,83-247.4,52.89-229.17-57.36C176.43,679.45,175.87,638.28,149.63,628.92Z"
     transform="translate(-149.42 -56.5)"
     id="path39"
     style="fill:#63c41d;fill-opacity:1"
     fill="#f5f5f5"
     opacity="0.2" />
  <path
     d="M149.63,628.92s64.91,14.25,59.58,73.27S305.61,832,401.7,775.89"
     transform="translate(-149.42 -56.5)"
     fill="none"
     stroke="#535461"
     stroke-miterlimit="10"
     stroke-width="2"
     id="path41" />
  <rect
     x="0.63"
     y="284"
     width="52"
     height="27"
     fill="#6c63ff"
     opacity="0.2"
     id="rect43" />
  <rect
     x="37.63"
     y="315"
     width="52"
     height="27"
     fill="#6c63ff"
     opacity="0.2"
     id="rect45" />
  <rect
     x="318.63"
     width="52"
     height="27"
     fill="#6c63ff"
     opacity="0.2"
     id="rect47" />
  <rect
     x="728.63"
     y="498"
     width="52"
     height="27"
     fill="#6c63ff"
     opacity="0.2"
     id="rect49" />
  <rect
     x="41.63"
     y="348"
     width="52"
     height="27"
     fill="#6c63ff"
     opacity="0.2"
     id="rect51" />
  <rect
     x="355.63"
     y="31"
     width="52"
     height="27"
     fill="#6c63ff"
     opacity="0.2"
     id="rect53" />
  <rect
     x="165.63"
     y="214"
     width="52"
     height="27"
     fill="#6c63ff"
     opacity="0.2"
     id="rect55" />
  <rect
     x="202.63"
     y="245"
     width="52"
     height="27"
     fill="#6c63ff"
     opacity="0.2"
     id="rect57" />
  <rect
     x="301.63"
     y="228"
     width="52"
     height="27"
     fill="#6c63ff"
     opacity="0.2"
     id="rect59" />
  <rect
     x="206.63"
     y="278"
     width="52"
     height="27"
     fill="#6c63ff"
     opacity="0.2"
     id="rect61" />
  <rect
     x="798.63"
     y="498"
     width="52"
     height="27"
     fill="#6c63ff"
     opacity="0.2"
     id="rect63" />
  <path
     d="M870.07,447.61a412.25,412.25,0,0,1-6.18-56.71h0a76,76,0,0,0-53.46-69.38c-5.46-1.68-11.47-3.25-18.11-4.66-58.2-12.36-75.88-1.57-77.89-.15A74.63,74.63,0,0,1,710,307.1c-.1-.34-.19-.68-.29-1a74.51,74.51,0,0,0,19.91-44.89c9.71-9.84,15.38-21.72,15.38-34.51,0-11-4.2-21.32-11.55-30.25V179.07a75.57,75.57,0,0,0-75.57-75.57h-6.13a75.57,75.57,0,0,0-75.57,75.57v18.73c-6.67,8.61-10.45,18.44-10.45,28.88,0,12.52,5.44,24.16,14.78,33.88a74.52,74.52,0,0,0,20.74,46.34c.41,2.84.83,5.89,1.24,9.11L498.39,338s-40.14,1.65-66,55C410.52,438.19,367,554.29,354.11,588.85h0c-2.33,6.26-3.65,9.85-3.65,9.85s.43-.43,1.24-1.17l-1.24,3.37s.63-.64,1.83-1.69c-1.82,14.46-2.08,39.29,16.86,42.38,15.88,2.59,56.8,3.66,87.71,4.09v0H459c20.49.27,36.08.27,36.08.27v-.27H827.52v-3.41a22.91,22.91,0,0,0-1.83-9l.46-.56a18.25,18.25,0,0,1,3.45,8,8,8,0,0,1-.16.84l.2-.51a8.56,8.56,0,0,1-.2,2.71s42.65-109.89,42.19-175.51A111.17,111.17,0,0,0,870.07,447.61ZM604.22,330.86a76.25,76.25,0,0,1-1.06-9.48s0-.06,0-.09C603.53,324.38,603.89,327.58,604.22,330.86ZM475,566.9v26.19L458.6,596.6Z"
     transform="translate(-149.42 -56.5)"
     fill="url(#33dd52eb-d837-4874-aadb-63a17bd6edfc)"
     id="path65" />
  <path
     d="M503.71,57.57h0a75.57,75.57,0,0,1,75.57,75.57v32.24a0,0,0,0,1,0,0H428.14a0,0,0,0,1,0,0V133.14A75.57,75.57,0,0,1,503.71,57.57Z"
     fill="#e14b5a"
     id="path67" />
  <ellipse
     cx="504.24"
     cy="175.95"
     rx="86.14"
     ry="59.19"
     fill="#e14b5a"
     id="ellipse69" />
  <path
     d="M598.44,289.79s18,94.07,0,119.44,55,35.41,55,35.41L729,417.16l10.57-67.65s-46-25.9-36.47-78.22Z"
     transform="translate(-149.42 -56.5)"
     fill="#f7c4a7"
     id="path71" />
  <path
     d="M821.46,606.89s4.76,20.61-21.14,24.31a146.45,146.45,0,0,1-46.08-.55l-5.71-51.77h60.25Z"
     transform="translate(-149.42 -56.5)"
     fill="#f7c4a7"
     id="path73" />
  <path
     d="M364.12,580.51S352.68,627,378.58,631.2s121,4.23,121,4.23v-55l-43.06,9.2L416.1,550.87Z"
     transform="translate(-149.42 -56.5)"
     fill="#f7c4a7"
     id="path75" />
  <path
     d="M604,320.18l-101.21,21.4s-38.58,1.59-63.42,52.85-78.75,197.66-78.75,197.66,46-46.51,99.89,3.17l35.94-65-7.93,103.06H767V584.69s58.13,31.18,53.91,48.62c0,0,49.75-128.18,39-186.43a396.18,396.18,0,0,1-5.94-54.5h0a73,73,0,0,0-51.38-66.67c-5.24-1.61-11-3.12-17.4-4.47-59.72-12.68-75,0-75,0s-11.57,37.64-11.36,54.7c.26,21.93-31.18,36.47-31.18,36.47s-46.51-11.1-48.62-20.08S600.28,330.75,604,320.18Z"
     transform="translate(-149.42 -56.5)"
     opacity="0.1"
     id="path77" />
  <path
     d="M604,318.07l-101.21,21.4s-38.58,1.59-63.42,52.85S360.61,590,360.61,590s46-46.51,99.89,3.17l35.94-65L488.51,631.2H767V582.58s58.13,31.18,53.91,48.62c0,0,49.75-128.18,39-186.43a396.18,396.18,0,0,1-5.94-54.5h0a73,73,0,0,0-51.38-66.67c-5.24-1.61-11-3.12-17.4-4.47-59.72-12.68-75,0-75,0s-11.57,37.64-11.36,54.7c.26,21.93-31.18,36.47-31.18,36.47s-46.51-11.1-48.62-20.08S600.28,328.64,604,318.07Z"
     transform="translate(-149.42 -56.5)"
     fill="#575988"
     id="path79"
     style="fill:#800080" />
  <path
     d="M707.42,313.58a71.53,71.53,0,0,1-2.76-37.52L600,294.55s1.51,7.91,3.22,19.76a71.86,71.86,0,0,0,104.18-.73Z"
     transform="translate(-149.42 -56.5)"
     opacity="0.1"
     id="path81" />
  <path
     d="M725.27,259.67a71.88,71.88,0,0,1-143.73,1.74c0-.58,0-1.16,0-1.74a71.89,71.89,0,0,1,40.29-64.59q3.23-1.58,6.64-2.84a72.39,72.39,0,0,1,37-3.44h0a71.82,71.82,0,0,1,59.61,66.1Q725.27,257.27,725.27,259.67Z"
     transform="translate(-149.42 -56.5)"
     fill="#f7c4a7"
     id="path83" />
  <g
     opacity="0.1"
     id="g89">
    <path
       d="M628.36,193.93l.1-.06q-3.41,1.26-6.64,2.84a71.89,71.89,0,0,0-40.29,64.59c0,.58,0,1.16,0,1.74a16,16,0,0,0,6.45-1.55c17.52-8.18,28-33.2,32.16-50.65C621.64,204.59,623.05,197.55,628.36,193.93Z"
       transform="translate(-149.42 -56.5)"
       id="path85" />
    <path
       d="M683.37,195.94a71.28,71.28,0,0,0-17.87-5.51,23.06,23.06,0,0,1,12.83,8.06,32.86,32.86,0,0,1,3.93,7,72.07,72.07,0,0,0-60.45,1.25c4.51,9.89,18.5,15.28,27.84,18.89q15.34,5.92,31,10.83l-9.24-7.5,20.87,3.32a36.15,36.15,0,0,0-1.46-12.3c4,3.22,9.3,4.3,13.64,7,8.13,5.13,11.52,15,15.95,23.55,1.17,2.26,2.55,4.57,4.66,6A71.91,71.91,0,0,0,683.37,195.94Z"
       transform="translate(-149.42 -56.5)"
       id="path87" />
  </g>
  <path
     d="M628.36,192.3l.1-.06q-3.41,1.26-6.64,2.84a71.89,71.89,0,0,0-40.29,64.59c0,.58,0,1.16,0,1.74a16,16,0,0,0,6.45-1.55c17.52-8.18,28-33.2,32.16-50.65C621.64,203,623.05,195.93,628.36,192.3Z"
     transform="translate(-149.42 -56.5)"
     fill="#632652"
     id="path91" />
  <path
     d="M683.37,194.32a71.28,71.28,0,0,0-17.87-5.51,23.06,23.06,0,0,1,12.83,8.06,32.86,32.86,0,0,1,3.93,7,72.07,72.07,0,0,0-60.45,1.25c4.51,9.89,18.5,15.28,27.84,18.89q15.34,5.92,31,10.83l-9.24-7.5,20.87,3.32a36.15,36.15,0,0,0-1.46-12.3c4,3.22,9.3,4.3,13.64,7,8.13,5.13,11.52,15,15.95,23.55,1.17,2.26,2.55,4.57,4.66,6A71.91,71.91,0,0,0,683.37,194.32Z"
     transform="translate(-149.42 -56.5)"
     fill="#632652"
     id="path93" />
  <path
     d="M573.33,247.82s74-92,159.61,0l-7.4-20.61s-40.17-58.66-68.7-46-56.55,21.67-56.55,21.67Z"
     transform="translate(-149.42 -56.5)"
     opacity="0.1"
     id="path95" />
  <path
     d="M573.33,246.19s74-92,159.61,0l-7.4-20.61s-40.17-58.66-68.7-46-56.55,21.67-56.55,21.67Z"
     transform="translate(-149.42 -56.5)"
     fill="#e14b5a"
     id="path97" />
  <path
     d="M512.55,444.38s-15.85,42.28,6.34,80.33-19.55,53.91-19.55,53.91"
     transform="translate(-149.42 -56.5)"
     opacity="0.1"
     id="path99" />
  <path
     d="M769.4,406.33s27.48,34.88,9.51,66.06S762,578.62,762,578.62"
     transform="translate(-149.42 -56.5)"
     opacity="0.1"
     id="path101" />
  <path
     d="M338.82,553.3H644.29a25.37,25.37,0,0,1,25.37,25.37v0a0,0,0,0,1,0,0H313.46a0,0,0,0,1,0,0v0A25.37,25.37,0,0,1,338.82,553.3Z"
     fill="#535461"
     id="path103" />
  <path
     d="M369.9,378.89H613.22a39,39,0,0,1,39,39V559.11a0,0,0,0,1,0,0H330.9a0,0,0,0,1,0,0V417.89A39,39,0,0,1,369.9,378.89Z"
     fill="#535461"
     id="path105" />
  <circle
     cx="491.29"
     cy="476.93"
     r="19.03"
     fill="#fff"
     id="circle107" />
  <path
     d="M577.56,204.7s72.72-72.68,151.15-1.33"
     transform="translate(-149.42 -56.5)"
     fill="none"
     stroke="#000"
     stroke-miterlimit="10"
     opacity="0.1"
     id="path109" />
  <rect
     x="590.36"
     y="143.57"
     width="7.3"
     height="41.39"
     fill="#6a5c99"
     id="rect111" />
  <path
     d="M580.62,170.35h0a25.16,25.16,0,0,1,25.16,25.16v1.62a25.16,25.16,0,0,1-25.16,25.16h0a0,0,0,0,1,0,0V170.35a0,0,0,0,1,0,0Z"
     fill="#ffd037"
     id="path113" />
  <rect
     x="575.75"
     y="167.92"
     width="11.36"
     height="56.81"
     rx="5.68"
     ry="5.68"
     fill="#6a5c99"
     id="rect115" />
  <rect
     x="558.44"
     y="200.88"
     width="7.3"
     height="41.39"
     transform="translate(974.76 386.65) rotate(-180)"
     fill="#6a5c99"
     id="rect117" />
  <path
     d="M550.32,227.66h0a25.16,25.16,0,0,1,25.16,25.16v1.62a25.16,25.16,0,0,1-25.16,25.16h0a0,0,0,0,1,0,0V227.66A0,0,0,0,1,550.32,227.66Z"
     transform="translate(976.38 450.76) rotate(180)"
     fill="#ffd037"
     id="path119" />
  <rect
     x="568.99"
     y="225.23"
     width="11.36"
     height="56.81"
     rx="5.68"
     ry="5.68"
     transform="translate(999.92 450.76) rotate(-180)"
     fill="#6a5c99"
     id="rect121" />
  <path
     d="M738.92,155.83c-9.89-20.56-31.43-45.42-77.86-47.41v-.06l-.56,0h0l-16.45.78v.08c-46.12,2.12-67.56,26.89-77.42,47.38A106.59,106.59,0,0,0,556.41,201l5.68-.14,5.68-.13A96.65,96.65,0,0,1,577,161.21c12.52-25.72,35.56-39.39,68.47-40.66h0l14.55-.81h0C692.95,121,716,134.69,728.51,160.4a96.65,96.65,0,0,1,9.25,39.54l5.68.13,5.68.14A106.59,106.59,0,0,0,738.92,155.83Z"
     transform="translate(-149.42 -56.5)"
     fill="#ffd037"
     id="path123" />
  <rect
     x="74.28"
     y="579"
     width="774.71"
     height="208"
     fill="#d6d6e3"
     id="rect125" />
  <rect
     x="74.28"
     y="593"
     width="774.71"
     height="27"
     opacity="0.1"
     id="rect127" />
  <rect
     x="22.31"
     y="576"
     width="878.63"
     height="27"
     fill="#d6d6e3"
     id="rect129" />
  <g
     transform="matrix(0.03725501,0,0,0.03725501,335.48729,642.16949)"
     id="g208"
     style="stroke-width:2.68420315">
    <g
       style="fill:#6f3299;stroke:none;stroke-width:2.68420315"
       id="layer101-3">
      <path
         inkscape:connector-curvature="0"
         id="path2-6"
         d="M 0,1515 V 0 h 1122 c 704,0 1133,4 1152,10 142,45 203,69 283,112 51,27 99,55 105,61 7,7 31,25 52,41 47,35 108,97 145,146 14,19 28,37 32,40 20,17 113,198 134,260 49,146 58,199 58,340 1,148 -9,198 -68,365 -35,100 -77,179 -127,237 -15,18 -28,36 -28,39 0,4 -16,24 -35,45 -19,22 -35,42 -35,46 0,4 -10,17 -23,30 -13,13 -61,68 -108,123 -46,54 -130,146 -186,205 -57,58 -102,108 -100,112 1,3 74,82 162,174 88,92 185,194 215,227 30,32 78,82 105,111 135,143 250,268 253,275 5,14 -128,21 -419,21 h -287 l -139,-142 c -77,-79 -173,-178 -213,-220 l -72,-77 -122,126 c -66,70 -161,166 -209,215 l -89,88 -354,-2 -354,-3 272,-280 c 150,-154 324,-331 386,-394 l 112,-114 -132,-136 c -73,-75 -183,-188 -245,-251 -62,-63 -176,-180 -254,-260 l -141,-145 263,-3 c 145,-2 311,0 368,3 l 104,7 131,127 c 72,70 163,157 201,194 l 70,66 65,-63 c 368,-359 435,-438 473,-556 27,-83 40,-169 34,-223 -8,-61 -47,-187 -59,-187 -4,0 -8,-6 -8,-12 -1,-16 -64,-85 -110,-119 -55,-41 -147,-85 -240,-115 l -85,-28 -752,-4 -753,-3 -1,816 c -1,448 -3,820 -4,825 -1,6 -3,206 -4,445 l -1,435 H 270 0 Z"
         style="stroke-width:2.68420315" />
      <path
         inkscape:connector-curvature="0"
         id="path4-7"
         d="m 3698,3000 c -116,-32 -211,-87 -286,-165 -71,-74 -82,-89 -108,-145 -8,-19 -20,-43 -25,-52 -5,-10 -13,-34 -18,-55 -6,-21 -15,-56 -20,-78 -7,-25 -11,-236 -11,-562 v -523 h 224 225 l 3,508 3,507 31,55 c 19,34 51,69 80,90 l 48,35 h 121 c 116,0 122,-1 167,-30 26,-16 53,-41 60,-55 6,-14 17,-32 24,-40 6,-8 19,-45 28,-81 14,-55 16,-135 16,-527 v -462 h 214 215 l 28,38 c 15,20 33,42 39,47 6,6 31,37 54,70 24,33 46,62 50,65 7,5 58,71 175,225 37,50 72,91 76,93 5,2 9,10 9,18 0,8 4,14 8,14 5,0 24,21 42,48 34,47 104,135 144,182 11,14 54,70 94,125 41,55 78,102 84,104 9,3 -6,-35 -34,-84 -6,-11 -38,-71 -70,-134 l -58,-114 v -349 -348 h 220 220 v 790 790 h -193 -193 l -22,-25 c -12,-14 -22,-30 -22,-35 0,-6 -4,-10 -8,-10 -5,0 -26,-25 -47,-55 -20,-30 -40,-55 -44,-55 -3,0 -21,-23 -40,-50 -19,-28 -38,-50 -43,-50 -4,0 -8,-6 -8,-14 0,-8 -4,-16 -8,-18 -4,-1 -44,-50 -87,-108 -44,-58 -88,-114 -98,-125 -10,-11 -27,-35 -38,-52 -12,-18 -25,-33 -30,-33 -5,0 -9,-7 -9,-15 0,-8 -4,-15 -9,-15 -5,0 -19,-15 -30,-33 -11,-19 -31,-45 -43,-58 -13,-14 -58,-72 -101,-130 -43,-57 -86,-113 -95,-124 -10,-11 -35,-44 -56,-72 -21,-29 -39,-53 -40,-53 -3,0 108,222 161,320 l 40,75 -9,120 c -12,168 -51,283 -133,395 -34,46 -107,116 -141,136 -78,44 -119,61 -199,84 -98,28 -425,28 -527,0 z"
         style="stroke-width:2.68420315" />
      <path
         inkscape:connector-curvature="0"
         id="path6-5"
         d="m 5960,2210 v -790 h 1095 1095 v 190 190 h -385 -385 v 600 600 h -220 -220 v -600 -600 l -427,1 c -458,1 -448,-1 -253,40 30,6 73,17 95,23 l 40,13 3,561 2,562 h -220 -220 z"
         style="stroke-width:2.68420315" />
    </g>
    <g
       style="fill:#ff0090;stroke:none;stroke-width:2.68420315"
       id="layer102-3">
      <path
         inkscape:connector-curvature="0"
         id="path9-5"
         d="M 0,1515 V 0 h 1122 c 704,0 1133,4 1152,10 142,45 203,69 283,112 51,27 99,55 105,61 7,7 31,25 52,41 47,35 108,97 145,146 14,19 28,37 32,40 20,17 113,198 134,260 49,146 58,199 58,340 1,148 -9,198 -68,365 -35,100 -77,179 -127,237 -15,18 -28,36 -28,39 0,4 -16,24 -35,45 -19,22 -35,42 -35,46 0,4 -10,17 -23,30 -13,13 -61,68 -108,123 -46,54 -130,146 -186,205 -57,58 -102,108 -100,112 1,3 74,82 162,174 88,92 185,194 215,227 30,32 78,82 105,111 135,143 250,268 253,275 5,14 -128,21 -419,21 h -287 l -140,-142 c -77,-79 -150,-154 -162,-168 -34,-40 -152,-163 -317,-331 l -153,-155 v 356 357 l -36,37 -35,36 -355,-2 -354,-3 272,-280 c 150,-154 324,-331 386,-394 l 112,-114 -132,-136 c -73,-75 -183,-188 -245,-251 -62,-63 -176,-180 -254,-260 l -141,-145 263,-3 c 145,-2 311,0 368,3 l 104,7 131,127 c 72,70 163,157 201,194 l 70,66 65,-63 c 368,-359 435,-438 473,-556 27,-83 40,-169 34,-223 -8,-61 -47,-187 -59,-187 -4,0 -8,-6 -8,-12 -1,-16 -64,-85 -110,-119 -55,-41 -147,-85 -240,-115 l -85,-28 -752,-4 -753,-3 -1,816 c -1,448 -3,820 -4,825 -1,6 -3,206 -4,445 l -1,435 H 270 0 Z"
         style="stroke-width:2.68420315" />
    </g>
  </g>
</svg>
