<?xml version="1.0" encoding="UTF-8" standalone="no"?>
<!-- Created with Inkscape (http://www.inkscape.org/) -->

<svg
   xmlns:dc="http://purl.org/dc/elements/1.1/"
   xmlns:cc="http://creativecommons.org/ns#"
   xmlns:rdf="http://www.w3.org/1999/02/22-rdf-syntax-ns#"
   xmlns:svg="http://www.w3.org/2000/svg"
   xmlns="http://www.w3.org/2000/svg"
   xmlns:sodipodi="http://sodipodi.sourceforge.net/DTD/sodipodi-0.dtd"
   xmlns:inkscape="http://www.inkscape.org/namespaces/inkscape"
   width="210mm"
   height="297mm"
   viewBox="0 0 210 297"
   version="1.1"
   id="svg56"
   inkscape:version="0.92.3 (2405546, 2018-03-11)"
   sodipodi:docname="drawing.svg">
  <defs
     id="defs50" />
  <sodipodi:namedview
     id="base"
     pagecolor="#ffffff"
     bordercolor="#666666"
     borderopacity="1.0"
     inkscape:pageopacity="0.0"
     inkscape:pageshadow="2"
     inkscape:zoom="0.35"
     inkscape:cx="400"
     inkscape:cy="560"
     inkscape:document-units="mm"
     inkscape:current-layer="layer1"
     showgrid="false"
     inkscape:window-width="1321"
     inkscape:window-height="713"
     inkscape:window-x="45"
     inkscape:window-y="27"
     inkscape:window-maximized="1" />
  <metadata
     id="metadata53">
    <rdf:RDF>
      <cc:Work
         rdf:about="">
        <dc:format>image/svg+xml</dc:format>
        <dc:type
           rdf:resource="http://purl.org/dc/dcmitype/StillImage" />
        <dc:title></dc:title>
      </cc:Work>
    </rdf:RDF>
  </metadata>
  <g
     inkscape:label="Layer 1"
     inkscape:groupmode="layer"
     id="layer1">
    <path
       style="fill:#000000;stroke-width:0.26458335"
       d="m 77.53518,305.74058 c -0.648812,-0.7169 -1.033898,-1.44924 -0.855764,-1.62738 0.178147,-0.17824 0.85474,0.26268 1.503539,0.97962 0.648812,0.71691 1.033912,1.44924 0.855764,1.62737 -0.178133,0.17825 -0.854727,-0.26267 -1.503539,-0.97961 z m 56.03289,-1.87562 c 0.53442,-0.29736 1.8462,-0.71377 2.91503,-0.92536 l 1.94334,-0.38466 -1.94334,0.91583 c -2.18633,1.03033 -4.65929,1.36477 -2.91503,0.39419 z m 12.95559,-0.99312 c 0,-0.52352 2.03567,-2.31349 2.63104,-2.31349 0.32735,0 0.096,0.583 -0.51412,1.29556 -1.0094,1.17891 -2.11692,1.71147 -2.11692,1.01793 z m -17.4522,-2.92772 c 0.9115,-0.27659 2.369,-0.88565 3.2389,-1.35347 0.86988,-0.46785 3.18487,-0.908 5.14439,-0.97815 1.95954,-0.07 2.9798,0.005 2.26725,0.16575 -0.71258,0.16134 -3.14815,0.8528 -5.41244,1.53671 -2.26425,0.6839 -4.74201,1.21841 -5.50612,1.18779 -1.22535,-0.049 -1.19372,-0.11514 0.26802,-0.55856 z m -14.28896,-6.58757 c 1.24696,-0.37194 4.01621,-1.21004 6.1539,-1.86242 2.13766,-0.6524 3.97966,-1.09457 4.0933,-0.98258 0.42371,0.41743 -6.79095,2.78029 -9.59943,3.14389 -2.81855,0.3649 -2.83999,0.355 -0.64777,-0.29889 z m 30.80188,-3.0746 c 0.60247,-0.54795 6.18545,-2.08035 7.21809,-1.98118 0.75427,0.0725 -5.77367,2.43081 -6.89418,2.49069 -0.5692,0.0303 -0.69684,-0.1704 -0.32391,-0.50951 z m -24.56667,-3.0143 c -0.52825,-0.52825 -1.28191,-0.96044 -1.67484,-0.96044 -0.39291,0 -0.87094,-0.408 -1.0623,-0.90668 -0.2401,-0.6257 -1.41568,-0.89708 -3.7935,-0.87571 -2.46213,0.0221 -3.97482,-0.345 -5.2998,-1.28643 -4.0257,-2.86024 -11.441118,-4.56654 -13.721361,-3.15727 -1.09249,0.67521 -7.890151,1.15314 -7.890151,0.55475 0,-0.30104 0.361937,-0.90927 0.804309,-1.35165 1.150301,-1.15032 -0.371916,-1.95717 -3.197023,-1.69459 -1.787439,0.16624 -2.085707,0.038 -1.513828,-0.65128 0.527709,-0.63584 0.418913,-1.47324 -0.419964,-3.23238 -0.959711,-2.01256 -0.993054,-2.46022 -0.218829,-2.93872 1.791519,-1.10723 -1.835864,-3.05842 -6.442229,-3.46532 -5.980074,-0.52825 -13.504443,-2.02507 -16.509226,-3.28415 -1.794166,-0.7518 -3.404279,-0.94456 -5.39559,-0.64594 -2.625778,0.39377 -3.016338,0.25506 -5.216059,-1.85246 -2.785329,-2.66854 -4.745768,-3.405 -6.526835,-2.45179 -0.917062,0.49078 -1.748783,0.47442 -2.916029,-0.0574 -1.70524,-0.77695 -5.374293,-5.50011 -4.754259,-6.12015 0.196354,-0.19635 0.847256,0.46478 1.446457,1.46923 1.76893,2.96522 4.067957,4.37023 5.834197,3.5655 2.133208,-0.97195 4.187827,-0.28248 6.926865,2.32447 2.104121,2.00266 2.672657,2.22682 4.780214,1.88481 1.634341,-0.26522 4.160943,0.13859 7.976312,1.27469 5.342628,1.5909 6.592056,1.6867 28.876102,2.21432 28.072147,0.6646 29.795197,0.4399 12.983787,-1.69337 -8.996002,-1.14155 -11.668656,-1.82377 -11.05223,-2.82116 0.1761,-0.28495 -1.084721,-0.38308 -2.801851,-0.21814 -4.958108,0.47641 -20.571778,-1.16586 -29.871018,-3.14189 -1.603252,-0.34066 -5.339823,-0.89411 -8.303497,-1.22986 -2.963669,-0.33573 -6.607425,-1.17475 -8.09724,-1.86446 -1.489806,-0.68971 -3.947625,-1.58639 -5.461807,-1.99266 -1.514184,-0.40624 -2.75306,-0.99999 -2.75306,-1.31942 0,-0.31941 1.967629,0.0171 4.372508,0.74602 6.264543,1.90086 8.661883,1.88772 9.638602,-0.0529 0.906478,-1.80104 4.204338,-3.40416 5.436447,-2.64266 0.832002,0.51419 1.688967,0.37826 4.196379,-0.66562 0.712556,-0.29666 2.60731,-0.71375 4.210565,-0.92685 5.637888,-0.74945 6.708307,-0.97956 7.077206,-1.52147 0.638107,-0.93735 5.926748,-2.7714 6.668949,-2.31272 0.421648,0.2606 0.519333,0.13515 0.242962,-0.31203 -0.292208,-0.47282 0.02841,-0.74788 0.871587,-0.74788 0.733583,0 1.333782,-0.28594 1.333782,-0.63543 0,-0.34949 0.70766,-0.81306 1.572581,-1.03013 0.864922,-0.21716 1.737357,-0.82412 1.938761,-1.34896 0.201391,-0.52484 0.641837,-0.78392 0.978726,-0.57569 0.336903,0.2081 0.913091,-0.1376 1.280428,-0.76867 0.367351,-0.63097 0.676769,-0.7888 0.687596,-0.35067 0.01347,0.53606 0.708199,0.37981 2.124988,-0.47779 1.157896,-0.70087 2.834035,-1.56928 3.724731,-1.92978 0.890696,-0.36051 2.0567,-0.94897 2.591115,-1.30775 0.534415,-0.35874 1.408911,-0.81989 1.943339,-1.02474 0.534415,-0.20492 1.700419,-0.69112 2.591115,-1.0806 0.890696,-0.38947 1.895736,-0.63802 2.233436,-0.55236 0.54634,0.13858 6.31268,-2.02841 10.72215,-4.02945 0.8907,-0.4042 2.76505,-1.6876 4.16522,-2.852 1.40018,-1.16442 2.81269,-2.11713 3.1389,-2.11713 0.32624,0 1.41328,-0.58401 2.41572,-1.2978 1.00242,-0.71377 2.28629,-1.11984 2.85305,-0.90235 0.57901,0.22204 1.03049,0.0644 1.03049,-0.35988 0,-0.41543 0.31921,-0.55805 0.70934,-0.31692 0.39016,0.24117 1.54436,-0.17897 2.56491,-0.93344 2.33796,-1.72852 4.45282,-1.73765 7.34424,-0.0315 1.81501,1.07089 2.89629,1.25762 5.38121,0.92933 2.95542,-0.39043 2.79463,-0.26564 -3.2391,2.51409 -3.49187,1.6087 -7.42713,3.59163 -8.74501,4.40649 -1.31789,0.81487 -4.58241,2.39338 -7.2545,3.50785 -2.6721,1.11444 -6.7531,2.81836 -9.0689,3.78647 -2.31581,0.96813 -4.57324,2.10927 -5.0165,2.53589 -0.44326,0.42662 -0.99618,3.02638 -1.22872,5.7772 -0.41973,4.96557 -0.41161,5.00149 1.12982,4.9896 4.49016,-0.0348 13.82643,0.75639 14.70071,1.24568 1.11205,0.62234 4.40288,-0.26678 5.97122,-1.61328 0.74041,-0.63569 3.16849,-0.77168 9.88595,-0.5536 4.89749,0.15889 9.11982,0.33578 9.38299,0.39287 0.26316,0.0571 1.20722,-0.0793 2.09792,-0.30293 2.83851,-0.71291 9.0806,-0.95873 9.44329,-0.37186 0.19243,0.31134 1.03711,0.56609 1.87711,0.56609 0.83998,0 1.63461,0.32213 1.76584,0.7158 0.28456,0.85368 4.84733,2.64672 6.64118,2.60977 0.69615,-0.0147 1.57066,0.21447 1.94334,0.50822 0.3727,0.29387 1.25523,0.44186 1.96121,0.32891 0.70596,-0.11285 1.75004,0.21667 2.32017,0.73272 0.57014,0.51598 1.74153,0.91584 2.60311,0.88861 2.41674,-0.0764 3.88146,0.37277 4.52337,1.38713 0.32767,0.51775 0.59044,0.60236 0.596,0.19195 0.005,-0.40377 0.59153,-0.88626 1.30236,-1.07215 1.11842,-0.29245 1.23613,-0.10625 0.87393,1.38193 -0.23014,0.94598 -0.84679,1.97265 -1.37019,2.28147 -0.79639,0.46993 -0.80687,0.65323 -0.0641,1.12371 1.43028,0.90603 3.63166,0.66586 4.05706,-0.44264 0.69641,-1.81487 0.42508,-2.30948 -1.06432,-1.94 -0.80163,0.1988 -1.09313,0.19414 -0.64778,-0.009 0.44535,-0.20468 0.80972,-0.93062 0.80972,-1.61348 0,-0.78632 0.44963,-1.24159 1.22627,-1.24159 1.27426,0 2.28683,1.6234 1.65263,2.64959 -0.20028,0.32412 -0.0348,0.58931 0.36805,0.58931 0.40938,0 0.26231,0.46998 -0.33354,1.0658 -1.68668,1.68671 0.19195,2.35647 2.33306,0.83181 2.13987,-1.52373 2.60883,-1.56934 2.08443,-0.20272 -0.33918,0.88392 -0.19121,0.93435 0.94943,0.32389 1.92416,-1.02978 1.92974,-1.02417 2.18552,2.19186 0.12753,1.60325 0.10598,2.91503 -0.0479,2.91503 -0.15399,0 -2.44514,-0.74738 -5.09157,-1.66082 -2.64644,-0.9134 -4.90365,-1.56884 -5.01603,-1.45646 -0.671,0.67101 1.95079,2.70965 4.0312,3.13461 1.35312,0.27638 4.79224,1.09049 7.64249,1.80914 2.85024,0.71865 5.98386,1.48174 6.96362,1.69574 1.95886,0.42789 2.45461,1.67674 0.64777,1.63179 -0.62349,-0.0147 -2.42318,-0.27714 -3.99932,-0.5814 -2.17233,-0.41934 -3.08476,-0.33414 -3.771,0.35209 -0.49791,0.49791 -0.66583,0.90959 -0.37319,0.91486 0.29268,0.005 -0.16796,0.36962 -1.02375,0.80972 -2.10938,1.08484 -3.15992,2.82128 -2.25457,3.72663 0.38219,0.38219 2.78993,0.87052 5.35054,1.08522 6.84889,0.57417 6.22041,1.36407 -0.79343,0.99719 -5.87552,-0.30732 -6.1773,-0.2512 -12.68186,2.35844 -3.66474,1.47028 -7.00112,2.67325 -7.41416,2.67325 -0.41305,0 -1.89673,0.61408 -3.29708,1.36462 -3.43361,1.8403 -7.93459,3.1543 -10.83399,3.16283 -1.31285,0.005 -3.06185,0.25582 -3.88668,0.55992 -0.8248,0.30412 -2.35219,0.75971 -3.39417,1.01242 -1.56461,0.37947 -1.76557,0.30408 -1.15391,-0.43293 0.40735,-0.49082 3.15463,-1.26749 6.10508,-1.72596 5.2753,-0.81968 12.35737,-2.91658 13.94754,-4.12961 1.38288,-1.05493 0.92275,-2.06793 -2.51922,-5.54624 -3.44385,-3.48022 -4.68379,-3.78146 -6.49118,-1.57709 -0.76725,0.93577 -0.69399,1.01402 0.62988,0.67273 1.47199,-0.37947 1.46858,-0.35883 -0.19538,1.18321 -1.99504,1.84895 -2.38122,1.95364 -1.82097,0.49364 0.32181,-0.83864 0.12187,-0.99976 -0.90616,-0.73086 -0.94223,0.24638 -1.29726,0.0448 -1.24288,-0.7056 0.0419,-0.57779 0.36761,-1.29275 0.72389,-1.58875 0.35769,-0.29723 -0.12241,-0.37112 -1.07216,-0.16501 -1.47518,0.32008 -1.67214,0.19047 -1.384,-0.91141 0.48214,-1.84378 -1.54593,-2.41534 -3.85933,-1.08763 -2.09163,1.20042 -5.37207,1.43859 -5.99231,0.43506 -0.2201,-0.35628 -2.08754,-0.64778 -4.14967,-0.64778 -4.10778,0 -7.03856,1.64966 -6.30892,3.55107 0.53157,1.38527 -0.86724,4.21144 -2.11513,4.27344 -0.66935,0.0333 -0.7463,0.1655 -0.21987,0.37787 1.40281,0.56602 0.96361,2.35343 -0.48518,1.97458 -1.67274,-0.43745 -2.05196,0.25295 -2.05196,3.73592 v 2.84966 l -3.34685,0.33624 c -9.98142,1.00278 -13.31801,1.01592 -14.2778,0.056 z m 2.18591,-1.23134 c 0,-0.50529 0.19512,-1.45265 0.43374,-2.10529 0.41861,-1.14525 0.38627,-1.14498 -0.928,0.007 -0.74894,0.65694 -1.20443,1.60435 -1.01221,2.10528 0.45409,1.18327 1.50647,1.17776 1.50647,-0.007 z m 2.94163,-0.41998 c 0.75961,-1.22905 -0.34824,-1.53234 -1.47642,-0.40417 -1.00985,1.00985 -1.01161,1.09505 -0.0221,1.09505 0.58973,0 1.26438,-0.31088 1.49923,-0.69088 z m 49.42043,-19.22832 c 0.32191,-0.6235 0.78437,-2.23604 1.02768,-3.58346 0.43751,-2.42284 0.42237,-2.44514 -1.37223,-2.02166 -2.5321,0.5975 -3.1617,1.35004 -1.55594,1.8597 1.49214,0.47357 1.72439,1.69364 0.6902,3.62605 -0.43893,0.82013 -0.44682,1.25297 -0.0221,1.25297 0.35629,0 0.91116,-0.51012 1.23308,-1.1336 z m 4.49404,-7.81383 c 0.38866,-1.16594 -0.95027,-0.92093 -1.40213,0.25656 -0.24214,0.63088 -0.0972,0.92702 0.37606,0.76923 0.4233,-0.14102 0.88505,-0.60273 1.02607,-1.02579 z m -65.92501,-1.7355 c 0,-0.48937 -0.51012,-1.02734 -1.13361,-1.19548 -2.14069,-0.57729 -5.99196,-0.38953 -5.99196,0.2921 0,0.37514 0.36437,0.55592 0.80972,0.40174 0.44536,-0.15424 1.80386,0.24711 3.0189,0.89172 2.30979,1.22538 3.29695,1.1086 3.29695,-0.39008 z m 3.88668,1.24756 c 0,-1.20972 -1.44962,-2.77263 -2.27711,-2.4551 -1.32042,0.50668 -1.2114,2.01356 0.17182,2.37504 1.76504,0.46125 2.10529,0.47421 2.10529,0.0801 z m -28.470795,-1.29493 c 5.590397,0.27132 6.025308,0.19782 7.486294,-1.26306 1.769986,-1.76997 1.996451,-2.90554 0.579446,-2.90554 -0.534415,0 -0.971669,-0.25842 -0.971669,-0.57428 0,-0.81424 -3.486659,-1.39579 -8.572644,-1.42982 -2.399137,-0.0171 -4.510968,-0.2701 -4.692954,-0.56455 -0.304368,-0.49248 -1.952469,-0.22206 -6.167782,1.01192 -2.437962,0.71373 -4.574275,2.26377 -4.124025,2.99229 0.243931,0.39469 0.615995,0.3041 0.956183,-0.23283 0.306294,-0.48339 0.561362,-0.57284 0.566816,-0.19881 0.0054,0.3741 -0.339879,1.02998 -0.767425,1.4575 -0.604588,0.60461 -0.04632,0.77733 2.511811,0.77733 2.112639,0 3.573531,0.3427 4.084245,0.95807 0.579379,0.69812 1.118171,0.78518 1.985812,0.32083 0.655828,-0.35099 3.856864,-0.50785 7.125892,-0.34917 z m 90.112795,-1.4352 c -0.6161,-0.20542 -0.628,-0.48138 -0.0506,-1.17694 0.5944,-0.71622 0.53152,-0.90869 -0.29685,-0.90869 -1.1203,0 -1.28963,0.56774 -0.65921,2.21052 0.21545,0.56152 0.71123,0.82348 1.10171,0.58215 0.49429,-0.30547 0.46544,-0.52026 -0.0949,-0.70704 z m -74.26273,-11.45074 c 1.10879,-3.04018 1.57184,-5.27658 1.28173,-6.1906 -0.72689,-2.29022 -1.89874,-0.36834 -3.16535,5.19126 -0.60876,2.67207 -1.28013,5.43903 -1.49194,6.14879 -0.33111,1.10967 -0.24321,1.17277 0.62727,0.45032 0.5568,-0.46209 1.79352,-2.98201 2.74829,-5.59977 z m -4.90143,2.58328 c 0.72662,-0.44907 1.29655,-1.63281 2.22897,-4.62949 0.3771,-1.21199 0.21829,-1.3335 -1.37102,-1.04905 -0.98863,0.177 -2.23476,0.69433 -2.769175,1.14974 -0.534415,0.45543 -1.697442,0.9275 -2.584503,1.04905 -1.617075,0.22157 -2.375315,1.74096 -1.720483,3.44745 0.354126,0.92283 4.73843,0.9456 6.216211,0.0323 z m 65.11383,31.36491 c -0.59496,-0.96267 -0.12174,-1.30346 0.91775,-0.661 0.5569,0.34419 0.62315,0.67803 0.18801,0.947 -0.36969,0.22843 -0.86725,0.0999 -1.1057,-0.286 z M 16.967834,259.6683 c 1.603254,-0.38313 3.352258,-1.01604 3.886675,-1.40645 0.863709,-0.63098 0.863709,-0.59117 0,0.35827 -0.534417,0.58745 -2.283421,1.22038 -3.886675,1.40647 l -2.915008,0.33833 z m -3.360353,-2.30588 c 0.467624,-0.18705 1.026326,-0.16404 1.241581,0.0512 0.215206,0.21521 -0.167219,0.36835 -0.850221,0.34022 -0.754614,-0.0311 -0.908123,-0.1846 -0.39136,-0.39136 z m 3.238894,-0.64778 c 0.46762,-0.18705 1.026329,-0.16403 1.241579,0.0512 0.215254,0.2152 -0.167342,0.36834 -0.85021,0.34021 -0.754624,-0.0311 -0.908123,-0.1846 -0.391369,-0.39136 z M 2.8669872,235.78044 c 0,-1.24696 0.1334388,-1.75709 0.2962438,-1.13361 0.1628131,0.62349 0.1628131,1.64374 0,2.26723 -0.1630555,0.62348 -0.2962438,0.11339 -0.2962438,-1.13362 z m -0.669634,-7.44946 c -0.07859,-2.49394 -0.3231996,-5.70044 -0.5438159,-7.12555 -0.303443,-1.96011 -0.2169199,-2.41946 0.355737,-1.88625 0.5087817,0.47385 0.6870421,2.8095 0.5438173,7.12559 -0.1745639,5.25823 -0.2389549,5.59971 -0.3557384,1.88621 z M 154.78286,216.56585 c 0.44535,-0.17971 1.17408,-0.17971 1.61945,0 0.44534,0.17971 0.0811,0.32673 -0.80973,0.32673 -0.89071,0 -1.25507,-0.14715 -0.80972,-0.32673 z m 7.18093,-1.68186 c 1.17815,-0.56665 1.43536,-1.09442 1.1626,-2.38533 -0.19268,-0.91175 -0.61075,-3.05657 -0.92913,-4.76632 -0.3184,-1.70974 -0.84157,-3.35359 -1.16263,-3.65301 -1.21215,-1.13048 -8.06531,-2.63119 -12.01955,-2.63204 -2.26098,-5e-4 -6.58862,-0.43735 -9.61699,-0.97081 -8.29688,-1.46148 -14.75781,-1.21781 -26.66152,1.0055 -20.446676,3.81887 -28.709915,4.75607 -37.57113,4.26107 -13.895998,-0.77623 -17.727074,-1.12465 -23.902995,-2.1739 l -6.191583,-1.05191 0.791106,-3.04977 c 0.898697,-3.46456 1.077244,-5.04918 0.975407,-8.65677 -0.05986,-2.12008 -0.553805,-3.00212 -2.986675,-5.33323 -4.00417,-3.83667 -8.51099,-5.96221 -15.125784,-7.13375 -11.100661,-1.96603 -18.50931,0.25053 -22.0133892,6.58607 -1.013767,1.83295 -0.9283953,0.0473 0.1175215,-2.45567 0.9730756,-2.32895 4.8779177,-5.32461 8.2519677,-6.33067 3.242829,-0.96695 11.353509,-0.77884 15.814194,0.36673 5.762961,1.48003 11.534699,4.52647 14.231792,7.51183 1.313007,1.45336 2.484102,2.54366 2.602426,2.4229 0.557576,-0.56905 0.705781,-7.53859 0.192363,-9.04666 -1.236474,-3.63195 -9.449244,-8.5175 -16.144376,-9.60389 -5.216592,-0.84644 -11.256408,-0.86392 -14.126289,-0.0409 -1.222805,0.35069 -3.36517,1.55525 -4.760774,2.67681 -2.110044,1.69568 -2.409176,1.79941 -1.775777,0.6159 0.418954,-0.78282 0.873652,-1.91452 1.010438,-2.51489 0.13686,-0.60035 0.815162,-3.42359 1.507517,-6.27379 0.692354,-2.85024 1.460336,-6.42203 1.706635,-7.93734 0.355493,-2.18716 0.769818,-2.83591 2.00996,-3.14716 1.434816,-0.36012 1.562164,-0.71028 1.562164,-4.29533 0,-2.14676 0.333736,-5.01712 0.74163,-6.37855 0.701168,-2.3403 0.815036,-2.42391 2.087468,-1.53266 2.090842,1.46448 2.809146,1.16488 2.485989,-1.03694 -0.208448,-1.42027 0.107233,-2.40302 1.117244,-3.47811 0.774276,-0.8242 1.63064,-2.33824 1.903026,-3.36457 0.357703,-1.34782 0.951372,-1.92042 2.137573,-2.06174 1.358828,-0.16184 1.589993,-0.46941 1.339192,-1.78141 -0.257763,-1.3484 -0.05498,-1.58572 1.355102,-1.58572 2.19134,0 3.872171,-2.3079 2.943962,-4.04228 -0.368198,-0.688 -0.52093,-1.39942 -0.339398,-1.58095 0.761492,-0.76148 4.568773,0.71476 7.382532,2.86256 2.942246,2.24588 3.071607,2.27982 4.833338,1.26872 0.9956,-0.57138 1.81018,-0.77025 1.81018,-0.44194 0,0.32836 -0.743358,0.98646 -1.651906,1.4625 l -1.651909,0.86552 1.651909,0.88409 c 1.776753,0.95086 1.906549,1.5944 1.806972,8.95913 l -0.05519,4.08342 2.703137,-0.19685 2.703131,-0.19684 0.436232,-3.88668 c 0.239934,-2.13766 1.035159,-5.19841 1.767168,-6.80166 1.811398,-3.96735 1.755876,-4.77442 -0.29305,-4.2602 -1.144068,0.28718 -2.23829,-0.003 -3.556734,-0.94124 -1.047368,-0.74577 -2.490025,-1.40008 -3.20591,-1.45401 -0.715887,-0.0539 -1.301609,-0.32752 -1.301609,-0.60797 0,-0.92675 2.233536,-0.52565 4.388165,0.78804 2.52836,1.54154 4.230716,1.64425 5.328522,0.32146 0.443526,-0.53442 1.463877,-0.97166 2.267433,-0.97166 0.803563,0 2.516876,-0.44116 3.807361,-0.98037 2.037346,-0.85125 2.346333,-1.26734 2.346333,-3.15959 0,-1.19856 0.414322,-2.52306 0.9207,-2.94331 0.750833,-0.62315 0.860719,-0.53471 0.595566,0.47926 -0.392641,1.50143 1.205204,2.05321 5.933197,2.04892 2.52214,-0.003 3.869698,-0.43038 6.089436,-1.9345 2.513063,-1.70286 3.405361,-1.93153 7.5369,-1.93153 4.210654,0 4.788108,0.15523 5.688661,1.52969 0.551262,0.84134 1.823663,1.7055 2.827558,1.92038 1.348029,0.28851 2.579776,1.53989 4.71107,4.78613 4.37565,6.66473 11.04147,17.83292 11.04147,18.49932 0,0.32489 0.583,1.3319 1.29555,2.23777 0.71256,0.90587 1.29557,2.07852 1.29557,2.60585 0,0.82292 -0.22628,0.81055 -1.59666,-0.0874 -1.82151,-1.1935 -2.54858,-1.34081 -1.96613,-0.39839 0.2202,0.35628 -0.0369,0.64777 -0.57132,0.64777 -1.25866,0 -1.92211,-1.07932 -1.00999,-1.64303 0.46043,-0.28454 0.19878,-0.97804 -0.75012,-1.98809 -0.80145,-0.85311 -1.12403,-1.55112 -0.71683,-1.55112 1.06306,0 0.27951,-1.64974 -1.88309,-3.96482 l -1.87034,-2.0022 v 1.61865 c 0,2.00762 -1.75072,2.78015 -3.24199,1.43059 -0.834715,-0.7554 -1.51481,-0.85229 -2.732659,-0.38926 -0.891746,0.33904 -2.824488,0.45507 -4.294954,0.25783 -1.758405,-0.23577 -3.033365,-0.0599 -3.724623,0.51367 -1.300089,1.079 -6.906013,1.06372 -10.21342,-0.0276 -2.119547,-0.69952 -2.59273,-0.65784 -3.677558,0.3239 -1.110455,1.00496 -1.648681,1.04088 -4.979681,0.33238 -5.454704,-1.16022 -5.527995,-1.15337 -6.422992,0.60077 -0.637615,1.24971 -0.646069,1.70009 -0.03789,2.01818 1.589449,0.83124 8.991093,1.21766 10.264989,0.53591 0.905846,-0.48479 3.007793,-0.47664 7.15634,0.0276 3.983543,0.48435 6.524926,0.50574 7.897154,0.0667 1.112852,-0.35623 5.011246,-0.78635 8.663097,-0.95581 5.390197,-0.25015 6.639757,-0.13834 6.639757,0.594 0,1.68346 1.49888,4.20197 2.50077,4.20197 0.80377,0 0.83797,0.15718 0.1763,0.80973 -0.65742,0.64843 -0.97356,0.6094 -1.58706,-0.19587 -0.66595,-0.87416 -2.92579,-0.97421 -17.284503,-0.76507 -9.085094,0.13224 -18.886724,0.2108 -21.781399,0.17456 -4.959167,-0.0622 -5.28592,0.0195 -5.659227,1.41287 -0.66657,2.48815 -0.510989,2.62998 2.51136,2.28934 1.608883,-0.18142 3.057562,-0.11555 3.219266,0.1459 0.161705,0.26166 1.687478,0.25798 3.390603,-0.007 1.703125,-0.26615 8.343607,-0.48698 14.756613,-0.49076 6.41302,-0.005 12.680279,-0.16845 13.927256,-0.36621 1.246981,-0.19758 6.829131,-0.51501 12.404801,-0.70527 8.11403,-0.27685 10.59891,-0.15302 12.44892,0.61986 1.27127,0.53118 4.28838,0.97366 6.70471,0.98332 2.41632,0.009 7.16256,0.3108 10.54722,0.66924 16.21468,1.71712 16.19448,1.71647 16.19448,0.52349 0,-2.40623 -0.76309,-3.15366 -3.21978,-3.15366 -1.33838,0 -3.92054,-0.28204 -5.73815,-0.62672 -1.81762,-0.34473 -7.75828,-0.79487 -13.20143,-1.00033 -6.96998,-0.26311 -10.31578,-0.64819 -11.31395,-1.30223 -1.23333,-0.80809 -1.71478,-0.80436 -3.70845,0.0287 -3.37608,1.41061 -5.06047,1.26538 -4.807,-0.41444 0.15042,-0.9967 1.17211,-1.7307 3.73674,-2.68449 3.09722,-1.15185 3.77194,-1.20692 5.50612,-0.44942 1.087,0.47483 4.16264,0.91874 6.83472,0.98645 2.67212,0.0679 9.34244,0.34798 14.82303,0.62275 8.69438,0.43595 10.00246,0.64413 10.26109,1.63311 0.17165,0.65628 1.09148,1.25019 2.18486,1.41067 2.35194,0.34518 2.50726,0.18606 1.92422,-1.96971 -0.33729,-1.24721 -0.9149,-1.7603 -2.0383,-1.81064 -2.82779,-0.12659 -3.09561,-0.24042 -3.48998,-1.4831 -0.29394,-0.92613 -0.984,-1.22104 -2.79672,-1.19533 -9.3308,0.13224 -24.63248,-0.70101 -25.96288,-1.41395 -0.9048,-0.48489 -2.36328,-0.65015 -3.56277,-0.4037 -1.11701,0.2294 -3.00922,0.58465 -4.20497,0.78928 l -2.17409,0.37204 0.47522,-2.18417 c 0.85182,-3.91509 1.52651,-5.0992 2.90557,-5.0992 0.73257,0 1.49971,-0.43724 1.70481,-0.97165 0.51705,-1.34743 5.62136,-1.31418 6.7485,0.0438 0.65216,0.78581 1.95268,0.98226 5.74739,0.86826 2.69749,-0.0811 6.28011,0.0832 7.9614,0.36524 3.47519,0.58275 10.90076,-0.75043 10.48405,-1.88228 -0.1398,-0.3799 -0.50252,-2.5369 -0.80586,-4.79332 -0.51478,-3.82934 -0.46109,-4.13663 0.80615,-4.61309 0.7467,-0.28077 2.30505,-0.36914 3.46295,-0.19635 1.63509,0.24385 2.10528,0.0805 2.10528,-0.73112 0,-1.49655 1.13826,-1.29267 3.39778,0.60855 1.08093,0.90955 2.72919,1.80651 3.66277,1.99322 l 1.69743,0.33947 -0.44081,5.2943 c -0.24238,2.91188 -0.46397,5.65868 -0.4923,6.10403 -0.0284,0.44535 -0.48878,0.80972 -1.02319,0.80972 -0.95224,0 -1.05378,-0.80351 -1.2551,-9.93213 -0.0264,-1.19605 -0.70731,-2.40942 -1.95574,-3.48496 -2.34696,-2.02193 -2.73484,-1.22658 -1.40838,2.88779 1.29479,4.01603 2.02292,8.57958 1.17533,7.3661 -0.47475,-0.67964 -0.74062,-0.37339 -1.10125,1.26853 -0.26145,1.19048 -0.22035,2.25408 0.0916,2.3636 2.49686,0.8768 3.90802,2.14654 4.53713,4.08242 1.0117,3.11318 2.557,3.26871 3.11147,0.31318 0.54241,-2.89137 2.73725,-8.09846 3.42172,-8.11782 0.27989,-0.007 1.21051,-0.55384 2.06808,-1.21311 l 1.55923,-1.19874 -3.82646,-3.72311 c -2.10456,-2.0477 -2.90678,-3.07072 -1.78275,-2.27336 1.12404,0.79736 2.36292,1.25245 2.75306,1.01132 0.42525,-0.2628 0.70937,0.0898 0.70937,0.88046 0,0.72535 0.66077,1.75181 1.46842,2.28098 1.34646,0.88227 1.80292,0.80282 5.49714,-0.95672 2.21583,-1.05539 4.43436,-1.91888 4.93007,-1.91888 1.34986,0 2.68887,1.93087 2.47432,3.56807 -0.12982,0.99027 0.2135,1.54997 1.09175,1.77962 0.71965,0.18827 1.85659,1.59833 2.59431,3.21773 0.72227,1.58552 1.75,3.24522 2.28382,3.68827 0.53384,0.44304 1.29112,1.77667 1.68287,2.96363 0.39173,1.18699 1.13537,2.32052 1.65257,2.51899 0.56749,0.21765 0.94032,1.23649 0.94032,2.56929 0,1.21465 0.40672,3.19143 0.90382,4.39284 1.11615,2.69766 4.50134,19.76134 4.06152,20.47299 -0.33979,0.54979 1.13335,6.80894 1.89108,8.03498 0.24723,0.40002 0.19023,0.60399 -0.12658,0.45325 -7.05745,-3.35819 -14.03618,-4.82649 -19.50818,-4.1044 -4.88866,0.64509 -11.79802,2.23326 -14.34404,3.29705 -4.0491,1.6918 -4.97464,3.01813 -5.14672,7.37533 -0.0847,2.14637 0.009,3.90249 0.21276,3.90249 0.20174,0 1.4658,-0.56066 2.80901,-1.24594 2.67803,-1.36623 7.58716,-2.67627 14.85197,-3.96339 4.12673,-0.7311 5.49891,-0.69189 11.01225,0.3149 8.05887,1.47165 11.63539,2.72714 12.74058,4.47244 1.60827,2.53977 1.79025,6.31355 0.48808,10.12156 l -1.21251,3.54565 -0.4575,-2.89788 c -1.37044,-8.68015 -7.07234,-12.96053 -17.32287,-13.00416 -9.74533,-0.0413 -18.90892,2.38756 -22.27962,5.90581 -1.84934,1.93031 -1.86803,2.02854 -1.87794,9.87676 -0.0121,9.08563 0.92394,13.10381 2.92848,12.57963 2.00673,-0.52478 1.39465,0.20148 -1.02006,1.21048 -1.23553,0.51625 -3.05741,0.9189 -4.0486,0.89478 l -1.8022,-0.0438 1.51286,-0.72763 z M 83.127973,201.28622 c 0.429014,-0.80163 0.737785,-1.52897 0.686142,-1.61632 -0.05158,-0.0874 0.07784,-1.01774 0.287831,-2.06748 0.477412,-2.38705 6.489361,-8.29674 7.456466,-7.32963 0.442991,0.44299 0.0206,0.9375 -1.300695,1.52232 -1.741182,0.7707 -3.315177,3.17527 -2.078502,3.17527 0.724965,0 0.746417,4.42442 0.0237,4.87112 -1.126763,0.69636 -0.659276,1.60645 0.830407,1.61659 1.207493,0.007 1.290837,0.12807 0.485841,0.69819 -1.319534,0.93467 5.957774,0.13022 8.42112,-0.93101 0.534415,-0.23013 1.859349,-0.51164 2.944317,-0.62538 2.59232,-0.27185 3.55972,-0.92074 3.11201,-2.08747 -0.22755,-0.59294 0.0269,-0.95092 0.67605,-0.95092 0.57254,0 1.04098,-0.2689 1.04098,-0.59756 0,-0.32863 0.99447,-0.92574 2.20994,-1.32689 1.21548,-0.40112 2.37232,-1.15248 2.57079,-1.66968 0.19846,-0.51718 0.73436,-0.93587 1.19089,-0.9304 0.66789,0.007 0.66956,0.11191 0.008,0.53137 -1.03564,0.65732 -2.14175,4.4091 -1.66569,5.64972 0.19724,0.514 0.69181,0.91404 1.09905,0.889 2.01396,-0.12389 3.29755,-1.32565 5.51143,-5.16035 l 2.41722,-4.18691 3.3695,-0.19586 c 1.85324,-0.10773 3.36952,0.0778 3.36952,0.41232 0,0.60387 1.98045,1.15018 6.63974,1.83154 1.55584,0.22745 2.42915,0.0979 2.42915,-0.36055 3e-5,-0.39372 -0.29149,-0.71584 -0.64777,-0.71584 -0.35627,0 -0.13759,-0.53677 0.48584,-1.19278 0.62348,-0.65605 1.38336,-1.05686 1.68862,-0.89073 0.30523,0.16625 0.16795,0.54133 -0.30514,0.8337 -0.47308,0.29238 -0.71844,0.67326 -0.54531,0.8464 0.1731,0.1731 1.03334,-0.22721 1.91156,-0.88963 l 1.59673,-1.20443 -3.06392,-0.7715 c -1.68925,-0.42536 -3.06392,-1.14987 -3.06392,-1.6148 0,-1.56728 3.95777,-1.76724 12.13446,-0.61303 l 3.38944,0.47845 -1.07171,-3.14531 c -0.58963,-1.72991 -1.67763,-3.64642 -2.41796,-4.25894 l -1.34605,-1.11363 1.45748,0.36587 c 0.85975,0.21569 1.4575,0.0692 1.4575,-0.35745 0,-0.39785 0.36439,-0.65046 0.80974,-0.56139 0.44533,0.0891 0.73684,-0.20248 0.64776,-0.64777 -0.0891,-0.44535 0.166,-0.73687 0.56681,-0.64779 0.4008,0.0891 0.86135,-0.19955 1.02346,-0.64114 0.2037,-0.55521 -0.31037,-0.73265 -1.66531,-0.57491 -1.12531,0.13103 -2.08768,-0.1045 -2.25988,-0.55335 -0.34381,-0.89595 -9.37985,-2.78398 -19.85151,-4.14786 -6.5505,-0.85315 -18.97016,-0.61774 -20.17529,0.38241 -0.65098,0.54026 -5.20858,0.83859 -14.835849,0.97109 -10.928486,0.15033 -13.859749,0.36979 -13.725503,1.0272 0.09386,0.4598 -0.135,1.40716 -0.508626,2.1053 -0.735954,1.37514 -0.04188,1.7139 1.123611,0.54842 1.021967,-1.02198 2.070839,-0.16698 1.670981,1.36204 -0.18519,0.70818 -0.595081,1.12795 -0.910855,0.9328 -0.315775,-0.19514 -0.574128,-0.046 -0.574128,0.33116 0,0.92554 1.500348,0.86987 2.461554,-0.0913 0.520047,-0.52003 0.777336,-0.54297 0.777336,-0.0692 0,0.83859 -1.863524,1.74791 -3.23889,1.58047 -0.712926,-0.0869 -0.66617,0.0691 0.175562,0.58541 0.630983,0.38705 0.959469,1.00756 0.729974,1.37888 -0.229508,0.37134 0.347367,0.17408 1.281936,-0.43818 1.676893,-1.09875 2.165401,-0.75809 1.167162,0.81388 -0.281718,0.44361 -1.245752,0.86728 -2.142292,0.94149 -1.352433,0.11191 -1.578884,0.40275 -1.329486,1.70745 0.196434,1.02754 -0.07258,1.78141 -0.77642,2.17526 -0.592361,0.3315 -0.905011,0.88107 -0.694746,1.22126 0.210237,0.3402 0.609557,0.47808 0.887343,0.30639 0.277785,-0.17163 0.528839,0.52364 0.557886,1.54515 0.03905,1.37696 -0.312461,1.96289 -1.35957,2.26563 -1.400736,0.40496 -1.399026,0.41483 0.207087,1.19735 1.956577,0.95328 2.300469,2.15022 1.205555,4.19607 -0.666279,1.24496 -0.66376,1.63321 0.01347,2.05168 0.459313,0.28388 0.847334,0.77503 0.862268,1.09148 0.121333,2.57051 3.228723,3.08155 4.483323,0.7373 z m 21.937827,-7.86543 c 0,-0.5732 3.50847,-3.63265 4.16581,-3.63265 0.33895,0 0.0504,0.43796 -0.64115,0.97325 -0.92738,0.7178 -0.97707,0.87624 -0.18932,0.60363 0.58744,-0.20321 1.24755,-0.0793 1.46689,0.27566 0.21936,0.35492 -0.26129,0.83516 -1.06809,1.06724 -3.36876,0.96893 -3.73413,1.0387 -3.73413,0.71287 z m -26.180584,-7.10382 c 0.224418,-0.58481 0.862672,-1.06327 1.418351,-1.06327 0.555678,0 0.888864,0.0825 0.740424,0.18337 -0.148441,0.10087 -0.786709,0.5793 -1.418351,1.06327 -0.999842,0.76613 -1.095655,0.74241 -0.740424,-0.18337 z m 51.237864,-9.08721 c -0.24141,-0.62896 0.0272,-0.80113 0.89507,-0.57411 0.6819,0.17822 1.08015,0.58257 0.88499,0.89834 -0.52699,0.85267 -1.38868,0.69572 -1.78006,-0.32423 z m -59.349754,21.91302 c 1.618677,-1.55078 1.689066,-1.85038 1.092194,-4.64888 -0.55654,-2.60947 -0.483471,-3.11182 0.572511,-3.93567 1.17947,-0.92018 1.179093,-0.93349 -0.01468,-0.51852 -1.036901,0.36041 -1.09983,0.27477 -0.409393,-0.55719 0.448728,-0.54065 0.663074,-1.5673 0.476335,-2.2814 -0.186739,-0.7141 -0.0746,-1.46209 0.249182,-1.66221 0.340162,-0.21032 0.351434,-0.82587 0.02666,-1.45815 -0.309108,-0.60185 -0.431343,-1.45867 -0.271658,-1.90403 0.159671,-0.44535 -0.02545,-0.80971 -0.411426,-0.80971 -0.385921,0 -0.701722,-0.43727 -0.701722,-0.97168 0,-0.53442 0.29614,-0.97166 0.658077,-0.97166 0.753514,0 0.616385,-3.82326 -0.154204,-4.29953 -0.279738,-0.17284 -0.330197,-1.02522 -0.112175,-1.89408 0.37073,-1.4771 0.2341,-1.57554 -2.102917,-1.51517 -4.409833,0.11379 -5.10963,0.5999 -5.168545,3.5893 -0.02909,1.4752 -0.229307,3.14201 -0.444953,3.70399 -0.215646,0.56198 -0.158649,1.16604 0.126652,1.34237 0.285319,0.17628 0.572992,2.00756 0.63928,4.06937 0.06627,2.06184 0.386738,3.84047 0.712117,3.95255 0.32538,0.11218 0.431038,0.62222 0.234792,1.13362 -0.196231,0.5114 -0.0032,0.92982 0.429579,0.92982 0.441483,0 0.618728,0.43692 0.404127,0.99619 -0.217173,0.56591 0.03111,1.15481 0.574747,1.36342 0.526362,0.202 0.767923,0.67324 0.536799,1.04722 -0.67895,1.09855 -0.808322,3.75838 -0.163429,3.35983 0.757217,-0.468 0.744316,0.40923 -0.02397,1.62354 -0.327315,0.51739 -0.451408,1.17329 -0.275738,1.4575 0.574747,0.92997 1.761448,0.54552 3.521644,-1.14084 z m -1.98316,-3.14176 c 0,-0.12335 0.437242,-0.58712 0.97167,-1.03064 0.560055,-0.46483 0.97167,-0.52777 0.97167,-0.14861 0,0.36179 -0.437255,0.82557 -0.97167,1.03064 -0.534428,0.20517 -0.97167,0.27195 -0.97167,0.14861 z m -2.591114,-9.45178 c 0,-0.35627 0.291494,-0.64778 0.647775,-0.64778 0.356281,0 0.647775,0.29151 0.647775,0.64778 0,0.35628 -0.291494,0.6478 -0.647775,0.6478 -0.356281,0 -0.647775,-0.29152 -0.647775,-0.6478 z m 55.708998,11.01226 c 0,-0.85059 -0.43185,-1.29558 -1.25732,-1.29558 -1.42359,0 -2.25577,0.9756 -1.65767,1.94334 0.7466,1.20807 2.91499,0.72622 2.91499,-0.64776 z m -47.61176,-1.94334 c -0.220203,-0.35628 -0.07447,-0.64778 0.323881,-0.64778 0.398337,0 0.524854,-0.32264 0.281152,-0.71693 -0.308879,-0.4998 -0.611766,-0.45073 -0.99999,0.16184 -0.754389,1.19058 -0.715403,1.85054 0.109348,1.85054 0.377315,0 0.505852,-0.29152 0.285663,-0.64779 z m 75.57261,-0.48584 c 0.57313,-0.62348 1.70604,-1.63452 2.51766,-2.24671 1.55908,-1.17607 1.62531,-1.08993 -1.60496,-2.0873 -1.03051,-0.31818 -2.54424,1.13538 -1.87713,1.80248 0.2343,0.23456 -0.0595,0.42626 -0.65338,0.42626 -0.59381,0 -1.07965,0.32266 -1.07965,0.71708 0,0.39439 0.444,0.54671 0.98667,0.33845 0.80497,-0.3089 0.86039,-0.14273 0.30108,0.90238 -0.84851,1.58544 0.005,1.67473 1.40971,0.14739 z m -8.04173,-1.18767 c -0.61729,-0.61732 -1.85491,0.38256 -1.39484,1.12692 0.27342,0.44244 0.63575,0.43128 1.10097,-0.0341 0.3814,-0.38139 0.51362,-0.87323 0.29387,-1.09297 z M 77.211286,184.8605 c 0,-0.14004 -0.437242,-0.2546 -0.97167,-0.2546 -0.534415,0 -0.971656,0.28236 -0.971656,0.62745 0,0.34509 0.437241,0.45967 0.971656,0.2546 0.534428,-0.20516 0.97167,-0.48743 0.97167,-0.62745 z m -2.591115,-8.96138 c 0,-0.15718 -0.291494,-0.46582 -0.647775,-0.68602 -0.356282,-0.2201 -0.647776,-0.0916 -0.647776,0.28567 0,0.37731 0.291494,0.68601 0.647776,0.68601 0.356281,0 0.647775,-0.12847 0.647775,-0.28566 z m 1.758903,-2.53487 c -0.352941,-1.05885 -1.758903,-1.2638 -1.758903,-0.25641 0,0.50471 0.445348,0.91769 0.989674,0.91769 0.544313,0 0.890467,-0.29759 0.769229,-0.66128 z m 82.441436,-11.71538 c 0.94911,-3.38985 0.56765,-4.89746 -1.23918,-4.89746 -0.70995,0 -3.78548,-0.58169 -6.83452,-1.29263 -10.67229,-2.48846 -35.61052,-4.39682 -41.25014,-3.15663 -3.5804,0.78734 -7.66812,0.85509 -24.512027,0.40609 -6.947435,-0.18509 -13.506202,-0.1045 -14.575032,0.17921 -1.068843,0.28377 -2.991889,0.69109 -4.273434,0.90515 -2.468852,0.41238 -4.145144,2.6632 -3.410063,4.5788 0.208448,0.54318 0.01347,1.42819 -0.433577,1.96667 -1.682673,2.02748 -2.503829,1.98114 24.959326,1.40908 10.688353,-0.22256 22.639897,-0.67965 26.558967,-1.01556 7.45012,-0.63856 8.38006,-0.55851 29.61792,2.54977 5.24523,0.76767 9.90924,1.25608 10.36448,1.08531 0.45522,-0.17064 1.41068,-0.0957 2.12323,0.16673 1.76814,0.65113 1.9704,0.45023 2.90405,-2.88446 z m -103.716695,2.15999 c 1.12952,-0.39376 2.330682,-1.23353 2.669257,-1.86615 0.886383,-1.65623 2.728108,-7.21842 2.474199,-7.47233 -0.347021,-0.34702 -5.060469,4.03823 -5.060469,4.7081 0,0.33605 -0.610001,1.16307 -1.355557,1.83779 -3.3672,3.04728 -2.831337,4.22319 1.27257,2.79259 z m 107.245075,-11.5185 c 0.42315,-0.68468 -1.43353,-2.37321 -1.99365,-1.8131 -0.53974,0.53972 0.24091,2.38747 1.0088,2.38747 0.34642,0 0.78961,-0.25846 0.98485,-0.57437 z M 61.535036,141.07515 c 1.272939,-1.27295 0.891384,-2.28753 -1.004058,-2.66982 -1.824514,-0.36803 -3.400838,0.8368 -3.400838,2.59931 0,1.07309 3.348711,1.12671 4.404896,0.0706 z M 60.808481,128.34 c 1.580288,-3.33465 2.771043,-6.1652 2.646119,-6.29014 -0.124914,-0.12484 -0.852917,-0.0634 -1.617763,0.13661 -0.926992,0.24239 -1.753565,1.36769 -2.479238,3.37515 -2.842385,7.86306 -3.519941,10.13907 -3.481586,11.69511 0.03885,1.5773 0.103557,1.54118 1.050315,-0.58639 0.554888,-1.24697 2.301857,-4.99559 3.882153,-8.33024 z m 96.965929,0.71885 c -0.13197,-4.00177 -1.67746,-8.19864 -3.12314,-8.48157 -0.99412,-0.19465 -1.08172,0.12981 -0.7,2.59113 0.37676,2.42957 1.01538,5.04205 1.99407,8.15766 0.13979,0.44535 0.6315,0.80972 1.09247,0.80972 0.58226,0 0.80714,-0.93931 0.7366,-3.07694 z m -92.444005,1.13165 c 2.677214,-0.0195 5.453223,-0.005 8.803938,0.0517 1.157897,0.0197 3.163976,-0.15742 4.457938,-0.39302 1.456407,-0.26522 2.519756,-0.15816 2.791293,0.28126 0.718864,1.16316 6.249093,0.85901 7.664023,-0.42147 0.73085,-0.66142 2.72559,-1.26671 4.803096,-1.4575 l 3.553129,-0.32632 -4.230342,-4.3725 c -2.326688,-2.40485 -4.538009,-4.37247 -4.914032,-4.37247 -0.376037,0 -0.68369,0.89684 -0.68369,1.99296 0,1.85564 -0.145721,1.9804 -2.114619,1.81079 -1.163028,-0.10019 -2.488743,0.049 -2.946022,0.33164 -1.435279,0.88707 -2.712717,-0.1177 -2.712717,-2.13351 0,-1.05899 -0.288383,-2.10366 -0.640867,-2.32151 -0.35247,-0.2179 -2.432184,-0.0436 -4.621555,0.38708 -3.173564,0.62436 -4.247107,0.61678 -5.294525,-0.0372 -1.62964,-1.01774 -2.484461,-0.0311 -6.337295,7.31329 -2.15685,4.11158 -2.416125,4.94414 -1.364365,4.38126 0.71419,-0.38223 2.41816,-0.70369 3.786612,-0.7144 z m 2.164197,-1.94137 c 0,-0.35629 0.308704,-0.64778 0.686007,-0.64778 0.377315,0 0.505852,0.29149 0.285663,0.64778 -0.220203,0.35626 -0.528894,0.64778 -0.686007,0.64778 -0.157112,0 -0.285663,-0.29152 -0.285663,-0.64778 z M 80.4601,125.49606 c 0.0081,-1.17859 0.130086,-1.27155 0.637864,-0.48581 0.811622,1.25588 0.811622,1.94332 0,1.94332 -0.356281,0 -0.643318,-0.65589 -0.637864,-1.45751 z m -12.734414,-2.11352 c -0.206804,-0.53897 -0.01077,-1.4205 0.436541,-1.95901 1.110764,-1.33838 1.544908,-0.71778 0.657633,0.9401 -0.9531,1.78088 -0.232256,1.72336 1.334468,-0.10652 l 1.247947,-1.4575 -0.762253,1.78138 c -0.831956,1.94429 -2.318878,2.3532 -2.914336,0.80148 z m 118.312494,2.27547 c 0,-0.35627 -0.29149,-0.64776 -0.64777,-0.64776 -0.35627,0 -0.64776,0.29149 -0.64776,0.64776 0,0.35628 0.29149,0.64778 0.64776,0.64778 0.35628,0 0.64777,-0.2915 0.64777,-0.64778 z M 30.48857,202.29547 c -0.767279,-0.94589 -0.755963,-1.01475 0.08263,-0.50263 0.534418,0.32636 2.283421,0.78062 3.886675,1.00948 l 2.915006,0.41606 -2.997631,0.0864 c -2.111817,0.061 -3.260348,-0.23723 -3.886674,-1.00945 z m 10.97341,0.005 c 0.467621,-0.18705 1.02633,-0.16404 1.24158,0.0512 0.215254,0.21521 -0.167342,0.36836 -0.850209,0.34023 -0.754625,-0.0311 -0.908123,-0.1846 -0.391371,-0.39135 z m 69.05757,-68.61103 c 0.25327,-1.03292 1.44677,-4.21002 2.65225,-7.06026 1.20549,-2.85022 2.39005,-6.0074 2.63238,-7.01592 0.4879,-2.03067 2.07269,-3.01104 2.84566,-1.7604 0.3596,0.58186 0.97046,0.29538 2.20182,-1.03259 0.93731,-1.01083 1.70419,-2.05946 1.70419,-2.33033 0,-0.91315 3.5284,-0.49839 9.60147,1.12862 3.7517,1.00512 7.79967,1.62117 10.68837,1.62668 5.06618,0.009 7.56465,0.46364 7.56465,1.3746 0,0.32151 -0.70129,0.40857 -1.55844,0.19342 -0.95831,-0.24043 -2.20599,0.0333 -3.24008,0.71073 -0.96289,0.6309 -2.38211,0.96796 -3.32048,0.78858 -1.16753,-0.22329 -1.96331,0.0994 -2.76726,1.12133 -0.96647,1.22869 -1.54473,1.37909 -4.02807,1.04773 -2.56791,-0.34266 -2.92305,-0.59068 -3.10456,-2.16831 -0.27982,-2.43176 -1.70597,-2.26722 -4.49143,0.51823 -1.60609,1.60609 -2.50476,2.09447 -2.97977,1.61946 -0.3741,-0.3741 -1.58699,-0.68019 -2.69532,-0.68019 -2.54354,0 -6.3318,3.9196 -8.90172,9.21031 -2.05311,4.22671 -3.52443,5.648 -2.80366,2.70828 z m 8.49565,-13.23863 c 1.17495,-1.29832 1.16918,-1.31059 -0.3521,-0.74783 -0.85066,0.31466 -1.65885,0.90866 -1.79595,1.32001 -0.39887,1.1966 0.84785,0.86454 2.14805,-0.57218 z m 73.63248,10.33979 c -1.16921,-2.11063 -1.99004,-3.83751 -1.82408,-3.83751 0.43834,0 4.46676,7.15824 4.18625,7.43873 -0.12995,0.12995 -1.19294,-1.49057 -2.36217,-3.60122 z m -167.998068,-0.923 c 1.092397,-1.96048 3.975077,-5.27131 3.948067,-4.53445 -0.01293,0.35628 -1.069146,1.81378 -2.34686,3.23887 -1.277706,1.42514 -1.99825,2.00813 -1.601207,1.29558 z m 97.906238,-2.19077 c 0,-0.35627 0.2915,-0.82794 0.64777,-1.04813 0.35628,-0.22011 0.64777,-0.10895 0.64777,0.24744 0,0.35628 -0.29149,0.82792 -0.64777,1.04812 -0.35627,0.2201 -0.64777,0.10894 -0.64777,-0.24743 z m -92.37009,-3.86888 c 1.370916,-1.54402 1.680995,-1.68508 1.680995,-0.76482 0,0.34374 -0.655878,0.96916 -1.457505,1.3898 -1.449684,0.76074 -1.450881,0.75739 -0.22348,-0.62498 z m 150.34272,-2.04156 c -1.27154,-1.40505 -1.06746,-2.18543 0.42206,-1.61384 0.5103,0.19587 0.97117,0.93143 1.02412,1.6347 0.11972,1.59049 0.009,1.5889 -1.44618,-0.0195 z M 40.056165,118.86195 c -0.249415,-0.64994 0.160829,-1.09837 1.256418,-1.37334 2.089256,-0.52439 2.553358,-0.0365 1.227102,1.28961 -1.304316,1.30433 -2.006055,1.32799 -2.48352,0.0838 z m 131.794805,-1.33746 c -1.2118,-0.52594 -2.02047,-1.13907 -1.79704,-1.3625 0.22353,-0.22353 0.80049,-0.079 1.28237,0.32082 0.48184,0.39994 2.01927,0.9952 3.41647,1.32282 1.78487,0.41851 2.05876,0.6075 0.92095,0.63542 -0.89069,0.0221 -2.61093,-0.39061 -3.82275,-0.91656 z M 56.806249,117.23591 c -0.712558,-0.3062 -3.190312,-0.61616 -5.506122,-0.6888 l -4.210565,-0.13197 3.20144,-0.44287 c 1.760787,-0.2436 4.467719,-0.15302 6.015402,0.201 2.806845,0.6423 2.822184,0.63586 6.065058,-2.54752 1.788104,-1.75531 3.047023,-2.65241 2.797604,-1.9936 -0.54779,1.44692 -5.509403,6.23109 -6.41948,6.18986 -0.356279,-0.0171 -1.23078,-0.27984 -1.943337,-0.58605 z m 102.952971,-2.91403 c -1.9939,-2.61413 -4.45451,-3.0657 -5.01551,-0.92041 -0.25318,0.9681 -0.77529,1.28685 -1.85696,1.1336 -1.23038,-0.17431 -1.57117,-0.71091 -1.86909,-2.94295 -0.20051,-1.50135 -0.90143,-3.32322 -1.5579,-4.0486 -2.34503,-2.59124 0.58753,-1.42141 3.23597,1.29084 1.99534,2.04342 2.90241,2.54009 4.18008,2.28882 0.89747,-0.17654 2.50628,0.11109 3.57511,0.63892 1.06883,0.52793 1.4332,0.81887 0.80972,0.64655 -1.50673,-0.41647 -1.46337,1.09011 0.0712,2.47902 0.95813,0.86712 1.56387,0.95401 2.95717,0.42428 2.45603,-0.93379 2.93634,-0.78996 1.02008,0.3055 -2.50738,1.43332 -3.6768,1.16034 -5.55002,-1.29557 z m -5.88367,-1.9226 c 0.20075,-0.52301 0.0862,-1.12321 -0.25461,-1.33379 -0.3407,-0.21055 -0.61949,0.21741 -0.61949,0.95093 0,1.56411 0.36024,1.72191 0.8741,0.38286 z m -59.610078,2.4819 c -1.65637,-0.67598 -5.975482,-7.23447 -6.95138,-10.55552 -1.162355,-3.95556 -1.402299,-9.417406 -0.38611,-8.789359 0.356268,0.220096 0.647776,1.09666 0.647776,1.947704 0,2.481068 3.819844,12.340655 5.886213,15.193195 1.042395,1.439 1.820553,2.59332 1.72925,2.56521 -0.0913,-0.0281 -0.507886,-0.19072 -0.925749,-0.36123 z m 31.007228,-2.6646 c 0.53586,-0.62348 2.17248,-3.33434 3.63689,-6.02411 2.41281,-4.43166 2.91685,-6.277097 3.3086,-12.113666 0.0299,-0.445348 0.29697,-0.809723 0.59356,-0.809723 0.29657,0 0.41535,1.530378 0.26395,3.40082 -0.18926,2.337195 -1.18623,5.224239 -3.18796,9.230849 -3.16364,6.33232 -3.90153,7.44948 -4.92049,7.44948 -0.36788,0 -0.23039,-0.51014 0.30545,-1.13365 z M 68.035239,111.0756 c 0.831753,-1.06479 2.575278,-2.81044 3.874491,-3.8793 l 2.362186,-1.94334 -1.863847,2.45247 c -1.025118,1.34883 -2.768643,3.09452 -3.874492,3.87927 l -2.010644,1.42685 z m 33.354111,-1.8576 c -3.701737,-2.03049 -9.240274,-8.80082 -11.854861,-14.491435 -0.695702,-1.514164 -1.493897,-2.751957 -1.77377,-2.750637 -2.173508,0.0094 -7.906002,5.840217 -8.937099,9.088892 -0.207127,0.6526 -1.747753,1.83393 -3.423636,2.62517 -1.675869,0.79126 -3.498765,1.82334 -4.050874,2.2935 -0.552097,0.47014 -2.240651,1.2912 -3.752338,1.82454 -2.217633,0.78242 -2.810864,0.80728 -3.071276,0.12847 -0.387534,-1.00991 0.542021,-6.55353 1.899118,-11.325809 1.057209,-3.717741 1.994956,-4.753403 5.732467,-6.330954 2.117945,-0.893995 2.557597,-1.49892 3.797693,-5.225402 0.771343,-2.317908 2.274317,-5.207371 3.339929,-6.421033 1.065611,-1.213647 1.725829,-2.206661 1.467166,-2.206661 -0.258676,0 -0.131971,-0.407656 0.281556,-0.905941 0.499012,-0.601275 0.615456,-2.289628 0.346262,-5.020282 -0.230976,-2.342901 -0.119851,-4.81162 0.258057,-5.7338 0.599781,-1.463571 0.669133,-1.338845 0.720562,1.295564 0.09601,4.923418 1.19641,8.201441 4.020548,11.97779 3.013206,4.029194 4.469627,4.354691 5.125953,1.145561 0.466652,-2.281616 2.829282,-4.646521 4.676188,-4.680686 1.428869,-0.02639 4.988135,-1.810089 4.988135,-2.499731 0,-0.275873 -0.32086,-0.822435 -0.713,-1.214577 -1.121797,-1.121807 1.43054,-1.625869 4.61249,-0.910936 1.69913,0.381786 3.3556,0.389422 4.32725,0.01953 0.86586,-0.3292 2.174,-0.598528 2.90699,-0.598528 1.12862,0 1.20548,0.153261 0.50183,1.001134 -0.45698,0.550642 -1.17499,0.869096 -1.59557,0.707701 -0.42057,-0.161342 -1.15185,-0.05414 -1.62506,0.238221 -0.55444,0.342666 0.27267,0.679448 2.32597,0.94712 5.39717,0.70354 6.05494,0.95384 8.6368,3.286373 1.95414,1.765474 2.59953,2.906377 2.94418,5.204624 0.52115,3.475144 1.42254,3.481581 3.2654,0.02451 1.17542,-2.205813 1.49249,-2.400457 3.41944,-2.099267 1.98726,0.310617 2.11227,0.219853 1.94334,-1.411712 -0.14788,-1.427992 0.11231,-1.78496 1.43712,-1.971672 1.5571,-0.219355 1.57549,-0.181406 0.49147,1.016445 -0.65239,0.720898 -1.5472,3.658666 -2.1269,6.982919 -1.38839,7.961524 -3.81044,12.258969 -9.97411,17.697039 -2.69888,2.38116 -5.0528,4.50736 -5.23093,4.72484 -0.17815,0.21742 -1.34415,0.91459 -2.59113,1.5491 -1.24697,0.63452 -2.96241,1.69545 -3.81209,2.35763 -2.07356,1.61597 -5.61632,1.48231 -8.93327,-0.33713 z m 12.47564,-18.62766 c 0.1974,-0.319396 1.23646,-0.06585 2.30903,0.563166 1.91587,1.123813 1.97198,1.117026 3.19432,-0.385368 1.47034,-1.807289 1.52305,-2.780897 0.33801,-6.244071 -1.37722,-4.024736 -3.75807,-4.966712 -11.57155,-4.578219 -6.07347,0.301971 -9.908126,1.371541 -11.402374,3.180391 -0.340781,0.412517 -0.809466,1.770296 -1.04152,3.017287 -0.335664,1.803679 -0.135028,2.57451 0.981339,3.770234 1.201514,1.286946 1.789297,1.439157 4.088675,1.058879 3.32487,-0.549888 3.68727,-0.757891 3.26006,-1.8712 -0.18725,-0.487969 -1.39853,-1.08573 -2.6917,-1.328328 -2.698331,-0.506216 -5.726633,-2.277387 -3.893812,-2.277387 0.593492,0 1.492322,-0.589991 1.997407,-1.311091 0.783085,-1.118036 1.676705,-1.320922 6.067795,-1.377777 5.062,-0.06558 7.98626,0.810046 7.98626,2.39126 0,1.058595 -1.36237,2.174652 -2.24237,1.836954 -1.41637,-0.543504 -2.56744,1.551615 -1.78996,3.257999 0.53859,1.182069 1.06603,1.448677 2.37204,1.199037 0.92369,-0.176531 1.84094,-0.582382 2.03835,-0.901766 z m -5.88418,-1.207938 c 0.2202,-0.356281 0.0916,-0.647775 -0.28565,-0.647775 -0.37732,0 -0.68602,0.291494 -0.68602,0.647775 0,0.356281 0.12847,0.647789 0.28566,0.647789 0.1571,0 0.46582,-0.291508 0.68601,-0.647789 z m -27.209905,-3.24402 c -0.218452,-0.353467 -0.744356,-0.619644 -1.16867,-0.591513 -0.556971,0.03703 -0.565455,0.135634 -0.03057,0.354962 0.407534,0.16697 0.606096,0.945692 0.441267,1.730233 -0.266621,1.269048 -0.219408,1.300775 0.427721,0.287696 0.400074,-0.626296 0.548676,-1.427925 0.330223,-1.781378 z M 107.8312,76.649698 c -0.43856,-0.177501 -1.31307,-0.188274 -1.94334,-0.02451 -0.63027,0.164291 -0.27145,0.309418 0.7974,0.322616 1.06883,0.01212 1.5845,-0.121198 1.14594,-0.298618 z m 44.23671,29.230452 c -0.69157,-0.52309 -1.99357,-0.95107 -2.89334,-0.95107 -0.89976,0 -2.86875,-0.47084 -4.37555,-1.04629 -2.20816,-0.84329 -2.82285,-1.4402 -3.1685,-3.07694 -0.70762,-3.350725 -2.60158,-5.807788 -6.05917,-7.860663 -1.92376,-1.142182 -3.27842,-2.410665 -3.28597,-3.076943 -0.0195,-1.631524 0.54845,-1.439143 4.42912,1.502933 3.65825,2.773437 5.51169,2.932718 5.15821,0.443288 -0.16307,-1.14742 -0.56536,-1.418863 -1.87773,-1.266652 -0.99543,0.115542 -2.30413,-0.357358 -3.23891,-1.170191 -1.24379,-1.081556 -1.30033,-1.240446 -0.27297,-0.767532 0.71255,0.328015 2.55704,0.757028 4.09889,0.953368 1.54184,0.196354 3.34536,0.847442 4.00779,1.446967 0.66246,0.599485 1.46973,0.926059 1.79394,0.725692 0.74905,-0.462948 3.55939,2.519299 4.92436,5.225571 1.21864,2.416118 3.07429,9.920372 2.44566,9.890132 -0.23552,-0.0121 -0.99424,-0.4486 -1.68583,-0.97167 z m -4.41063,-4.88964 c -0.62348,-0.36314 -1.13362,-1.100227 -1.13362,-1.637964 0,-0.537747 -0.27136,-0.810007 -0.60301,-0.605027 -0.33167,0.204927 -0.78907,0.0718 -1.01643,-0.29622 -0.22745,-0.367907 -0.69199,-0.496737 -1.03247,-0.286297 -0.34049,0.21031 -0.54992,0.14225 -0.4654,-0.15131 0.0844,-0.293697 -0.23113,-1.229231 -0.70136,-2.078988 -0.6479,-1.170742 -0.98364,-1.336931 -1.3859,-0.686086 -0.81621,1.320693 0.98961,4.175278 3.38955,5.358032 2.41821,1.19176 4.88764,1.51332 2.94864,0.38395 z m -64.292082,-0.59588 -1.943339,-0.494497 2.105273,-0.0766 c 1.15791,-0.0422 2.105286,0.214967 2.105286,0.571137 0,0.35628 -0.07285,0.6133 -0.16196,0.57114 -0.08901,-0.0422 -1.036444,-0.29916 -2.105273,-0.57114 z M 133.56807,85.133598 c 0,-0.555449 0.29153,-0.829734 0.64781,-0.609531 0.35626,0.220109 0.64776,0.674655 0.64776,1.009901 0,0.335247 -0.2915,0.609558 -0.64776,0.609558 -0.35628,0 -0.64781,-0.454478 -0.64781,-1.009928 z M 80.501334,74.105622 c 0.03111,-0.754631 0.184571,-0.908122 0.391362,-0.391375 0.187116,0.467622 0.164101,1.026317 -0.05117,1.241577 -0.215247,0.215207 -0.368347,-0.167468 -0.340216,-0.850202 z m 51.771206,-1.851135 c 0,-0.555436 0.29149,-1.009887 0.64776,-1.009887 0.35628,0 0.64777,0.27427 0.64777,0.609544 0,0.335246 -0.29149,0.789698 -0.64777,1.009901 -0.35627,0.220108 -0.64776,-0.05414 -0.64776,-0.609558 z M 79.023974,70.888803 c -1.72618,-2.890136 -3.816169,-9.680808 -3.440348,-11.178248 0.663302,-2.642758 1.552975,-3.450434 2.967124,-2.693607 1.390678,0.744276 1.055781,2.373053 -0.796579,3.874249 -1.178676,0.955241 -1.166785,1.099762 0.424839,5.161087 0.90062,2.298099 1.541945,4.465021 1.425151,4.815364 -0.132106,0.396263 -0.351366,0.404275 -0.580187,0.02209 z m 59.086976,0.193903 c 0.0252,-0.487592 3.81899,-7.859663 3.84601,-7.47377 0.0769,1.099211 -2.70799,7.635704 -3.25318,7.635704 -0.33067,0 -0.59747,-0.07299 -0.59283,-0.162068 z m -4.22962,-1.256215 c -0.23185,-0.601868 -0.12537,-1.622125 0.23675,-2.26722 0.60672,-1.080882 0.69153,-1.087077 1.08008,-0.07864 0.23185,0.601841 0.12537,1.622098 -0.23676,2.26722 -0.60671,1.080869 -0.69152,1.08705 -1.08007,0.07864 z m -20.71828,-4.411855 c -0.64881,-0.716939 -1.03391,-1.449257 -0.85576,-1.627391 0.17813,-0.178228 0.85472,0.262676 1.50354,0.979615 0.6488,0.716912 1.0339,1.449243 0.85576,1.62739 -0.17815,0.178229 -0.85474,-0.262703 -1.50354,-0.979614 z M 97.689849,62.884389 c 2.325351,-1.41796 4.784831,-6.025268 4.784831,-8.963398 0,-1.40265 -0.51567,-2.421317 -1.69559,-3.349436 -0.932567,-0.73357 -1.92546,-1.191684 -2.20641,-1.018035 -0.806652,0.498527 0.115542,3.144086 1.420762,4.075882 1.678488,1.198269 1.496258,1.680488 -1.103533,2.920234 -2.847475,1.357873 -6.239492,1.47794 -5.750472,0.203693 0.459568,-1.197582 -1.333634,-1.801497 -3.219822,-1.084397 -1.929428,0.733556 -2.900869,-0.15376 -2.494708,-2.278384 0.20508,-1.072748 0.861258,-1.715056 2.009082,-1.96665 0.937506,-0.205416 2.433302,-0.605652 3.323998,-0.889295 1.398676,-0.445389 1.464244,-0.579824 0.480953,-0.9862 -1.553796,-0.642093 -5.40192,0.150824 -6.61402,1.363044 -0.891477,0.891477 -0.992502,0.854499 -0.992502,-0.36323 0,-0.817465 0.642941,-1.648653 1.619445,-2.09357 1.617277,-0.736883 2.196724,-1.825468 0.97167,-1.825468 -0.356281,0 -0.647775,0.291494 -0.647775,0.647762 0,0.356281 -0.575515,0.647775 -1.27892,0.647775 -1.927624,0 -3.435244,3.412445 -2.959421,6.698495 l 0.390149,2.694307 -0.916727,-2.003224 c -0.50421,-1.101782 -1.124877,-3.235227 -1.379271,-4.740962 -0.320003,-1.894052 -0.728062,-2.635836 -1.32418,-2.407096 -1.389951,0.533365 -2.322837,-5.200894 -1.582022,-9.724345 0.556877,-3.400285 0.480509,-3.988553 -0.73151,-5.634944 -0.793253,-1.077556 -1.625208,-3.670435 -2.010375,-6.265482 l -0.65708,-4.427175 2.402921,-3.893062 c 2.170168,-3.51595 4.059211,-5.569819 8.725784,-9.4871451 0.848842,-0.7125557 1.330294,-0.9311804 1.06988,-0.4858327 -0.676796,1.1574424 0.283482,0.9931594 2.417048,-0.4135097 1.013307,-0.6680797 2.368137,-1.0772044 3.010728,-0.9091637 0.642577,0.168051 1.723783,0.0083 2.402666,-0.3550687 0.971413,-0.5198817 1.400615,-0.3943087 2.015048,0.5895497 1.00648,1.6116231 1.71103,1.5762291 3.335614,-0.167561 1.11173,-1.1932864 1.32081,-1.2445583 1.32081,-0.3238887 0,1.3763751 2.31082,1.4630781 2.83149,0.106236 0.25842,-0.6734307 0.8706,-0.8641907 1.92451,-0.5996767 1.20034,0.3012637 1.62402,0.0878 1.89692,-0.955759 0.26004,-0.9944185 0.87225,-1.3436607 2.35536,-1.3436607 1.10218,0 2.00398,-0.2842843 2.00398,-0.6317476 0,-1.0224286 3.43481,0.5321257 4.64368,2.1016749 0.79957,1.0381561 0.91236,1.7182868 0.43335,2.6133272 -0.89798,1.6778771 -0.19416,2.1258938 1.72562,1.0984504 1.85743,-0.9940594 2.10377,-2.2657545 0.55409,-2.8604212 -0.58541,-0.224632 -0.9203,-0.5525096 -0.74423,-0.7285965 0.43624,-0.4362528 5.7962,2.0034366 5.68001,2.5853823 -0.0509,0.255388 0.12416,0.6586797 0.38904,0.8961954 0.26495,0.237534 0.27204,0.06748 0.0147,-0.3778677 -0.25629,-0.4453477 -0.33862,-0.8097234 -0.18288,-0.8097234 0.83641,0 5.4923,2.2556795 6.83356,3.3107065 0.85566,0.673061 2.05751,1.223745 2.67078,1.223745 0.61328,0 2.39585,0.982421 3.96127,2.183157 3.37114,2.585791 4.46565,5.471577 4.46565,11.774008 0,4.169474 -0.3145,5.18363 -4.20948,13.57344 -0.96958,2.088507 -2.26831,9.828926 -2.26831,13.519223 0,1.242359 -0.43724,2.696086 -0.97165,3.230501 -1.0703,1.070298 -1.30991,3.423232 -0.38323,3.763286 1.14413,0.419829 1.06415,2.75325 -0.10262,2.992993 -0.81858,0.168195 -1.13734,-0.185339 -1.14709,-1.272065 -0.007,-0.827741 -0.39528,-3.326893 -0.86191,-5.55362 -0.85587,-4.084352 -0.46346,-5.137615 1.02573,-2.753062 1.00051,1.602087 1.79301,1.66853 1.79301,0.150326 0,-1.590439 -3.08641,-5.980384 -4.20457,-5.980384 -1.30399,0 -1.97407,-4.290133 -1.06341,-6.808462 0.5949,-1.645219 0.54797,-2.623461 -0.23186,-4.834095 -0.53782,-1.524305 -0.97783,-3.363185 -0.97783,-4.086386 0,-0.723201 -0.74817,-2.295796 -1.66258,-3.494658 -3.1331,-4.107703 -3.76131,-4.2815 -17.34672,-4.799203 -13.231257,-0.504224 -18.707351,0.108943 -21.211176,2.374843 -2.197074,1.988304 -4.476306,6.577163 -4.476306,9.012255 0,1.296036 -0.294565,2.906822 -0.654576,3.579523 -0.360038,0.672715 -0.842352,3.019509 -1.071847,5.215088 -0.416449,3.984364 -0.414294,3.991043 1.127894,3.501579 0.849839,-0.269732 2.328062,-1.069247 3.284959,-1.776733 1.512427,-1.118157 2.501401,-1.249872 7.566311,-1.007719 3.483225,0.166485 6.240451,0.622122 6.855791,1.132809 1.22418,1.015974 1.36806,3.241152 0.21957,3.395612 -0.44535,0.06006 0.93928,0.282808 3.07695,0.495376 4.42544,0.440056 5.20772,0.273328 4.23227,-0.902008 -1.0691,-1.288198 1.16873,-3.555122 4.18886,-4.243296 3.40732,-0.776407 11.14527,0.410187 13.1964,2.023626 0.85433,0.672001 2.07983,1.221849 2.72332,1.221849 0.64348,0 1.32553,0.2517 1.51566,0.559354 0.473,0.765311 -1.48536,9.972047 -2.29229,10.776774 -0.40465,0.403562 -0.38996,-0.03973 0.0389,-1.175767 1.07651,-2.851165 0.84363,-7.234189 -0.47067,-8.857243 -0.82417,-1.017819 -2.08778,-1.520776 -4.37248,-1.740373 -2.37857,-0.22866 -2.96093,-0.13049 -2.24167,0.378164 0.83844,0.592832 0.81624,0.68839 -0.16207,0.696968 -0.62351,0.0054 -1.13362,-0.273045 -1.13362,-0.618836 0,-0.374474 -1.11331,-0.456902 -2.75306,-0.203949 -1.51419,0.233575 -3.45363,0.398956 -4.30988,0.367203 -1.0172,-0.03771 -1.26908,0.119985 -0.72672,0.455313 0.45653,0.282135 0.64865,0.806544 0.42691,1.165317 -0.22174,0.358799 0.009,0.810799 0.51454,1.004487 0.50473,0.193661 1.01318,1.003019 1.1299,1.798521 0.11675,0.795516 0.60714,1.576582 1.08989,1.735688 0.63423,0.209093 0.75688,-0.0913 0.44217,-1.082849 -0.37725,-1.188573 -0.17676,-1.372201 1.49823,-1.372201 1.72672,0 8.51799,2.867715 8.51799,3.596867 0,0.754888 -2.62213,0.166243 -3.59553,-0.80715 -1.03076,-1.03076 -1.14987,-1.024593 -1.97374,0.102075 -0.75346,1.030411 -0.7197,1.31396 0.23993,2.015668 1.72472,1.261157 0.78892,1.515929 -2.88792,0.78621 -2.31254,-0.458922 -4.10413,-1.349174 -5.7511,-2.857723 l -2.39218,-2.191148 0.44038,2.754529 c 0.24221,1.514986 0.86383,3.60348 1.3814,4.641068 0.51756,1.037615 0.81762,2.009958 0.66681,2.160768 -0.43669,0.436676 -1.8118,-2.449811 -3.00826,-6.314526 -0.93388,-3.016681 -1.36362,-3.594282 -2.80341,-3.768134 -1.18324,-0.142973 -1.82372,0.152777 -2.10566,0.971683 -1.76983,5.140793 -3.86718,8.763705 -5.745466,9.924551 -1.150678,0.711149 -2.34923,1.291915 -2.663456,1.290595 -0.314225,-0.0013 0.336257,-0.55584 1.445526,-1.232258 z M 94.053551,51.811274 c 0.789954,-0.510526 0.706233,-0.629798 -0.44761,-0.637865 -0.780595,-0.0054 -1.599434,0.281583 -1.819624,0.637865 -0.509717,0.824724 0.991021,0.824724 2.267234,0 z M 139.38817,37.359958 c -0.007,-1.153844 -0.12726,-1.237564 -0.63785,-0.447611 -0.82474,1.2762 -0.82474,2.776952 0,2.267234 0.35628,-0.220203 0.64332,-1.039029 0.63785,-1.819623 z m -55.793558,0.484077 c 0.12618,-0.111636 0.12618,-0.498257 0,-0.859211 -0.12618,-0.360954 -0.958176,-0.06935 -1.848872,0.647896 l -1.619445,1.304183 1.619445,-0.444971 c 0.890696,-0.244726 1.722692,-0.536287 1.848872,-0.647897 z M 83.041304,13.836878 c 0,-0.860768 -0.175858,-0.905031 -0.97167,-0.244585 -0.534415,0.443528 -0.97167,0.916472 -0.97167,1.050984 0,0.134516 0.437255,0.244585 0.97167,0.244585 0.534415,0 0.97167,-0.472946 0.97167,-1.050984 z M 117.37361,6.4895251 c 0,-1.0532817 -2.18347,-1.8643939 -4.05551,-1.5065332 -2.65399,0.507338 -2.1409,1.3762522 0.97856,1.6572112 1.51419,0.13637 2.82594,0.2988937 2.915,0.3611357 0.089,0.06225 0.16196,-0.168075 0.16196,-0.5118137 z M 87.256455,62.830887 c -0.226936,-0.367216 0.03313,-0.475796 0.609544,-0.254596 1.122225,0.430629 1.327547,0.894951 0.395765,0.894951 -0.335246,0 -0.787651,-0.288168 -1.005309,-0.640355 z m 39.509955,-1.302984 c 0.64486,-0.712549 1.31822,-1.295564 1.49635,-1.295564 0.17823,0 -0.2037,0.583015 -0.84858,1.295564 -0.64486,0.712562 -1.31822,1.295577 -1.49635,1.295577 -0.17824,0 0.20369,-0.583015 0.84858,-1.295577 z m 13.27549,0.485842 c -0.001,-0.445349 -0.44799,-1.661124 -0.99064,-2.701715 -0.66145,-1.268389 -0.77194,-2.106687 -0.33521,-2.543416 1.05776,-1.057761 3.27317,1.438402 3.27317,3.687941 0,1.864399 -0.049,1.901324 -0.93946,0.709317 -0.90734,-1.214429 -0.9269,-1.207588 -0.57221,0.20003 0.20198,0.801629 0.18753,1.457498 -0.032,1.457498 -0.21961,0 -0.40125,-0.364361 -0.40343,-0.809723 z M 80.90095,58.139468 c -0.336216,-2.506693 -0.163643,-3.719924 0.431774,-3.035385 0.513098,0.589924 0.905173,5.776058 0.436676,5.776058 -0.275469,0 -0.666278,-1.233309 -0.86845,-2.740673 z m 35.1771,1.445096 c -0.53442,-0.345374 -0.68016,-0.62794 -0.32388,-0.62794 0.35626,0 1.08503,0.282566 1.61944,0.62794 0.53442,0.345359 0.68016,0.627952 0.32388,0.627952 -0.35627,0 -1.08503,-0.282593 -1.61944,-0.627952 z M 98.936058,5.8189064 c 0.82665,-3.2469602 5.842312,-5.50075164 8.925252,-4.0105683 1.26455,0.6112382 1.15216,0.6886527 -1.0567,0.7278305 -2.95317,0.052425 -4.78476,0.916487 -6.79123,3.2039419 l -1.489623,1.698246 z"
       id="path12"
       inkscape:connector-curvature="0" />
  </g>
</svg>
