<!DOCTYPE svg PUBLIC "-//W3C//DTD SVG 20010904//EN" "http://www.w3.org/TR/2001/REC-SVG-20010904/DTD/svg10.dtd">
<svg version="1.0" xmlns="http://www.w3.org/2000/svg" width="815px" height="303px" viewBox="0 0 8150 3030" preserveAspectRatio="xMidYMid meet">
<g id="layer101" fill="#6f3299" stroke="none">
 <path d="M0 1515 l0 -1515 1122 0 c704 0 1133 4 1152 10 142 45 203 69 283 112 51 27 99 55 105 61 7 7 31 25 52 41 47 35 108 97 145 146 14 19 28 37 32 40 20 17 113 198 134 260 49 146 58 199 58 340 1 148 -9 198 -68 365 -35 100 -77 179 -127 237 -15 18 -28 36 -28 39 0 4 -16 24 -35 45 -19 22 -35 42 -35 46 0 4 -10 17 -23 30 -13 13 -61 68 -108 123 -46 54 -130 146 -186 205 -57 58 -102 108 -100 112 1 3 74 82 162 174 88 92 185 194 215 227 30 32 78 82 105 111 135 143 250 268 253 275 5 14 -128 21 -419 21 l-287 0 -139 -142 c-77 -79 -173 -178 -213 -220 l-72 -77 -122 126 c-66 70 -161 166 -209 215 l-89 88 -354 -2 -354 -3 272 -280 c150 -154 324 -331 386 -394 l112 -114 -132 -136 c-73 -75 -183 -188 -245 -251 -62 -63 -176 -180 -254 -260 l-141 -145 263 -3 c145 -2 311 0 368 3 l104 7 131 127 c72 70 163 157 201 194 l70 66 65 -63 c368 -359 435 -438 473 -556 27 -83 40 -169 34 -223 -8 -61 -47 -187 -59 -187 -4 0 -8 -6 -8 -12 -1 -16 -64 -85 -110 -119 -55 -41 -147 -85 -240 -115 l-85 -28 -752 -4 -753 -3 -1 816 c-1 448 -3 820 -4 825 -1 6 -3 206 -4 445 l-1 435 -270 0 -270 0 0 -1515z"/>
 <path d="M3698 3000 c-116 -32 -211 -87 -286 -165 -71 -74 -82 -89 -108 -145 -8 -19 -20 -43 -25 -52 -5 -10 -13 -34 -18 -55 -6 -21 -15 -56 -20 -78 -7 -25 -11 -236 -11 -562 l0 -523 224 0 225 0 3 508 3 507 31 55 c19 34 51 69 80 90 l48 35 121 0 c116 0 122 -1 167 -30 26 -16 53 -41 60 -55 6 -14 17 -32 24 -40 6 -8 19 -45 28 -81 14 -55 16 -135 16 -527 l0 -462 214 0 215 0 28 38 c15 20 33 42 39 47 6 6 31 37 54 70 24 33 46 62 50 65 7 5 58 71 175 225 37 50 72 91 76 93 5 2 9 10 9 18 0 8 4 14 8 14 5 0 24 21 42 48 34 47 104 135 144 182 11 14 54 70 94 125 41 55 78 102 84 104 9 3 -6 -35 -34 -84 -6 -11 -38 -71 -70 -134 l-58 -114 0 -349 0 -348 220 0 220 0 0 790 0 790 -193 0 -193 0 -22 -25 c-12 -14 -22 -30 -22 -35 0 -6 -4 -10 -8 -10 -5 0 -26 -25 -47 -55 -20 -30 -40 -55 -44 -55 -3 0 -21 -23 -40 -50 -19 -28 -38 -50 -43 -50 -4 0 -8 -6 -8 -14 0 -8 -4 -16 -8 -18 -4 -1 -44 -50 -87 -108 -44 -58 -88 -114 -98 -125 -10 -11 -27 -35 -38 -52 -12 -18 -25 -33 -30 -33 -5 0 -9 -7 -9 -15 0 -8 -4 -15 -9 -15 -5 0 -19 -15 -30 -33 -11 -19 -31 -45 -43 -58 -13 -14 -58 -72 -101 -130 -43 -57 -86 -113 -95 -124 -10 -11 -35 -44 -56 -72 -21 -29 -39 -53 -40 -53 -3 0 108 222 161 320 l40 75 -9 120 c-12 168 -51 283 -133 395 -34 46 -107 116 -141 136 -78 44 -119 61 -199 84 -98 28 -425 28 -527 0z"/>
 <path d="M5960 2210 l0 -790 1095 0 1095 0 0 190 0 190 -385 0 -385 0 0 600 0 600 -220 0 -220 0 0 -600 0 -600 -427 1 c-458 1 -448 -1 -253 40 30 6 73 17 95 23 l40 13 3 561 2 562 -220 0 -220 0 0 -790z"/>
 </g>
<g id="layer102" fill="#ff0090" stroke="none">
 <path d="M0 1515 l0 -1515 1122 0 c704 0 1133 4 1152 10 142 45 203 69 283 112 51 27 99 55 105 61 7 7 31 25 52 41 47 35 108 97 145 146 14 19 28 37 32 40 20 17 113 198 134 260 49 146 58 199 58 340 1 148 -9 198 -68 365 -35 100 -77 179 -127 237 -15 18 -28 36 -28 39 0 4 -16 24 -35 45 -19 22 -35 42 -35 46 0 4 -10 17 -23 30 -13 13 -61 68 -108 123 -46 54 -130 146 -186 205 -57 58 -102 108 -100 112 1 3 74 82 162 174 88 92 185 194 215 227 30 32 78 82 105 111 135 143 250 268 253 275 5 14 -128 21 -419 21 l-287 0 -140 -142 c-77 -79 -150 -154 -162 -168 -34 -40 -152 -163 -317 -331 l-153 -155 0 356 0 357 -36 37 -35 36 -355 -2 -354 -3 272 -280 c150 -154 324 -331 386 -394 l112 -114 -132 -136 c-73 -75 -183 -188 -245 -251 -62 -63 -176 -180 -254 -260 l-141 -145 263 -3 c145 -2 311 0 368 3 l104 7 131 127 c72 70 163 157 201 194 l70 66 65 -63 c368 -359 435 -438 473 -556 27 -83 40 -169 34 -223 -8 -61 -47 -187 -59 -187 -4 0 -8 -6 -8 -12 -1 -16 -64 -85 -110 -119 -55 -41 -147 -85 -240 -115 l-85 -28 -752 -4 -753 -3 -1 816 c-1 448 -3 820 -4 825 -1 6 -3 206 -4 445 l-1 435 -270 0 -270 0 0 -1515z"/>
 </g>

</svg>